<svg fill="currentColor" viewBox="0 0 24 13" xmlns="http://www.w3.org/2000/svg">
  <path d="M4.38526 1.86704C4.10401 2.19606 3.65392 2.45565 3.20387 2.41854C3.14762 1.97367 3.36793 1.50091 3.62579 1.20892C3.90704 0.870635 4.39932 0.62962 4.79781 0.611084C4.84468 1.07453 4.66182 1.52871 4.38526 1.86704ZM4.79312 2.50663C4.14146 2.46956 3.5836 2.87272 3.27418 2.87272C2.96012 2.87272 2.48659 2.52517 1.97092 2.53443C1.30056 2.5437 0.677025 2.91906 0.33479 3.51694C-0.368428 4.71265 0.151978 6.48308 0.831712 7.45632C1.16457 7.9383 1.56306 8.46662 2.0881 8.44809C2.58507 8.42955 2.78195 8.12834 3.38204 8.12834C3.98677 8.12834 4.16026 8.44809 4.68531 8.43882C5.2291 8.42955 5.57134 7.95688 5.9042 7.47485C6.28388 6.92799 6.43862 6.39499 6.44799 6.36718C6.43862 6.35791 5.3979 5.96402 5.38853 4.77753C5.37915 3.78576 6.20893 3.31304 6.24643 3.28524C5.77759 2.59931 5.04629 2.52517 4.79312 2.50663ZM8.55765 1.16258V8.38789H9.69212V5.91768H11.2626C12.6971 5.91768 13.7051 4.94445 13.7051 3.53552C13.7051 2.12664 12.7159 1.16262 11.3001 1.16262H8.5576L8.55765 1.16258ZM9.69212 2.10806H11.0001C11.9846 2.10806 12.5471 2.62711 12.5471 3.54011C12.5471 4.4531 11.9846 4.97684 10.9954 4.97684H9.69212V2.10806ZM15.7772 8.44345C16.4898 8.44345 17.1508 8.08664 17.4508 7.52119H17.4743V8.38785H18.5244V4.79143C18.5244 3.74868 17.6806 3.07666 16.3819 3.07666C15.1771 3.07666 14.2864 3.75795 14.2536 4.69412H15.2756C15.36 4.24921 15.7771 3.95722 16.3491 3.95722C17.043 3.95722 17.4321 4.27701 17.4321 4.86562V5.26415L16.0163 5.34756C14.6989 5.42634 13.9864 5.95934 13.9864 6.88629C13.9864 7.82245 14.7224 8.44345 15.7772 8.44345ZM16.0819 7.58607C15.4772 7.58607 15.0927 7.29876 15.0927 6.85844C15.0927 6.4043 15.4631 6.14012 16.171 6.09841L17.4321 6.01963V6.42743C17.4321 7.10408 16.8508 7.58607 16.0819 7.58607H16.0819ZM19.9261 10.3529C21.0325 10.3529 21.5529 9.93584 22.0076 8.67057L24 3.14617H22.8467L21.5107 7.41456H21.4872L20.1511 3.14617H18.9651L20.8871 8.40638L20.784 8.72618C20.6106 9.2684 20.3293 9.47698 19.8277 9.47698C19.7386 9.47698 19.5652 9.46771 19.4948 9.45844V10.3251C19.5604 10.3436 19.8417 10.3529 19.9261 10.3529Z"></path>
</svg>