<svg fill="currentColor" viewBox="0 0 24 13" xmlns="http://www.w3.org/2000/svg">
  <path d="M3.96299 1.735C3.22833 1.73504 2.50814 1.9393 1.88285 2.32497C1.25756 2.71063 0.751781 3.26252 0.42199 3.919C0.144511 4.47115 0 5.08054 0 5.6985C0 6.31645 0.144511 6.92584 0.42199 7.478C0.751781 8.13447 1.25756 8.68636 1.88285 9.07202C2.50814 9.45769 3.22833 9.66195 3.96299 9.662C5.03299 9.662 5.93299 9.31 6.58999 8.705C7.33799 8.015 7.76999 6.995 7.76999 5.789C7.76976 5.51882 7.74634 5.24916 7.69999 4.983H3.96399V6.509H6.10399C6.06043 6.75276 5.96798 6.98519 5.83221 7.19228C5.69644 7.39937 5.52016 7.57684 5.31399 7.714C4.95799 7.955 4.49999 8.093 3.96399 8.093C2.92999 8.093 2.05299 7.396 1.73899 6.457C1.57315 5.96493 1.57315 5.43207 1.73899 4.94C2.05299 4 2.92999 3.304 3.96399 3.304C4.52899 3.29475 5.07496 3.50811 5.48399 3.898L6.61599 2.768C5.89873 2.09384 4.94728 1.72362 3.96299 1.735ZM10.464 2.285V9.185H11.35V6.39H12.815C13.418 6.39 13.925 6.194 14.337 5.802C14.5421 5.61815 14.705 5.39214 14.8146 5.13945C14.9242 4.88676 14.9779 4.61337 14.972 4.338C14.9762 4.06405 14.9216 3.79238 14.8121 3.54125C14.7026 3.29011 14.5406 3.06533 14.337 2.882C14.1354 2.68674 13.897 2.53337 13.6358 2.43073C13.3746 2.32809 13.0956 2.27822 12.815 2.284L10.464 2.285ZM12.891 3.135C13.0456 3.13769 13.1981 3.17139 13.3395 3.23408C13.4808 3.29678 13.6082 3.3872 13.714 3.5C13.8267 3.60959 13.9162 3.74065 13.9774 3.88544C14.0385 4.03024 14.07 4.18582 14.07 4.343C14.07 4.50017 14.0385 4.65576 13.9774 4.80055C13.9162 4.94534 13.8267 5.07641 13.714 5.186C13.6007 5.30328 13.4642 5.39562 13.3132 5.45709C13.1622 5.51857 13 5.54783 12.837 5.543H11.35V3.135H12.837C12.855 3.13458 12.873 3.13458 12.891 3.135ZM17.015 4.31C16.173 4.31 15.538 4.618 15.108 5.235L15.889 5.726C16.177 5.309 16.569 5.1 17.064 5.1C17.3798 5.09612 17.6855 5.21145 17.92 5.423C18.0354 5.51846 18.1282 5.63844 18.1915 5.77423C18.2548 5.91001 18.2871 6.05818 18.286 6.208V6.41C17.946 6.217 17.512 6.121 16.986 6.121C16.369 6.121 15.876 6.266 15.507 6.555C15.137 6.843 14.953 7.232 14.953 7.72C14.949 7.9396 14.994 8.15734 15.0848 8.35733C15.1757 8.55732 15.31 8.73451 15.478 8.876C15.828 9.184 16.263 9.339 16.783 9.339C17.393 9.339 17.881 9.069 18.248 8.529H18.286V9.184H19.134V6.275C19.134 5.665 18.944 5.185 18.566 4.835C18.186 4.485 17.67 4.31 17.015 4.31ZM19.278 4.464L21.224 8.886L20.126 11.266H21.041L24 4.463H23.035L21.667 7.854H21.647L20.241 4.464H19.278ZM17.132 6.832C17.626 6.832 18.012 6.942 18.288 7.162C18.288 7.534 18.141 7.858 17.848 8.135C17.5835 8.39951 17.225 8.54839 16.851 8.549C16.6011 8.55376 16.3573 8.47178 16.161 8.317C16.0697 8.25093 15.9954 8.16402 15.9445 8.06349C15.8935 7.96295 15.8673 7.85171 15.868 7.739C15.868 7.482 15.988 7.269 16.231 7.092C16.471 6.919 16.772 6.832 17.132 6.832Z"></path>
</svg>