<svg class="w-8" viewBox="0 0 24 13" fill="none" xmlns="http://www.w3.org/2000/svg">
  <rect stroke="currentColor" x="0.5" y="0.5" width="23" height="11" rx="1.5"></rect>
  <path fill="currentColor" d="M16.539 3.18591C16.0742 3.01652 15.5828 2.93152 15.088 2.93491C13.488 2.93491 12.358 3.74091 12.35 4.89791C12.34 5.74791 13.153 6.22691 13.768 6.51091C14.399 6.80291 14.61 6.98691 14.608 7.24791C14.604 7.64491 14.104 7.82491 13.639 7.82491C13 7.82491 12.651 7.73591 12.114 7.51291L11.915 7.41991L11.688 8.75191C12.077 8.91391 12.778 9.05291 13.502 9.06491C15.203 9.06491 16.315 8.26391 16.328 7.03291C16.342 6.35391 15.902 5.84091 14.976 5.41691C14.413 5.14191 14.064 4.95791 14.064 4.67891C14.064 4.43191 14.363 4.16791 14.988 4.16791C15.404 4.15785 15.8174 4.23589 16.201 4.39691L16.351 4.46391L16.578 3.17691L16.539 3.18591ZM20.691 3.04291H19.441C19.052 3.04291 18.759 3.14991 18.589 3.53591L16.185 8.98191H17.886L18.226 8.08891L20.302 8.09091C20.351 8.29991 20.501 8.98191 20.501 8.98191H22.001L20.691 3.04291ZM10.049 2.99291H11.67L10.656 8.93491H9.03705L10.049 2.99091V2.99291ZM5.93405 6.26791L6.10205 7.09291L7.68605 3.04291H9.40305L6.85205 8.97391H5.13905L3.73905 3.95191C3.71637 3.8691 3.66312 3.79798 3.59005 3.75291C3.08545 3.49225 2.55079 3.29444 1.99805 3.16391L2.02005 3.03891H4.62905C4.98305 3.05291 5.26805 3.16391 5.36305 3.54191L5.93305 6.27091L5.93405 6.26791ZM18.691 6.87391L19.337 5.21191C19.329 5.22991 19.47 4.86891 19.552 4.64591L19.663 5.15891L20.038 6.87291H18.69L18.691 6.87391Z"></path>
</svg>