<svg width="77" height="90" viewBox="0 0 77 90" fill="none" xmlns="http://www.w3.org/2000/svg">
<g opacity="0.45">
<path fill-rule="evenodd" clip-rule="evenodd" d="M71.3726 63.0794C67.3069 69.4093 46.9041 68.8324 38.4609 68.8324C30.0188 68.8324 11.4122 68.8325 5.54921 63.0794C0.390942 57.9543 0 40.0086 0 34.4162C0 28.8228 0.390942 10.8771 5.54921 5.82651C11.4122 0 30.0188 0 38.4609 0C46.9041 0 65.5096 0 71.3726 5.82651C76.5319 10.8771 77 28.8218 77 34.4162C77 40.0086 76.5319 57.9543 71.3726 63.0794ZM67.3069 9.86696C63.7884 6.37042 49.5614 5.74986 38.4609 5.74986C27.3604 5.74986 13.1324 6.37042 9.69315 9.86696C6.95659 12.5854 5.70664 25.1709 5.70664 34.4162C5.70664 43.6605 6.95764 56.247 9.69315 58.9655C13.1324 62.4599 27.3604 63.1592 38.4609 63.1592C49.5614 63.1592 63.7884 62.4599 67.3069 58.9655C70.0434 56.246 71.2152 43.6605 71.2152 34.4162C71.2162 25.1709 70.0434 12.5854 67.3069 9.86696ZM61.3656 41.8734H15.5562L12.7414 19.8106L26.7349 29.4434L38.4609 17.7137L50.2651 29.4444L64.2586 19.8116L61.3656 41.8734ZM60.2721 50.4971H16.729L16.0253 45.6807H60.8976L60.2721 50.4971ZM49.797 35.1932L38.4609 24.0064L27.1269 35.1932L18.5273 29.1336L19.5427 37.1358H57.3791L58.4727 29.1336L49.797 35.1932Z" fill="#CFCCC7"/>
<path d="M22.2171 84.8175C22.2171 85.1977 22.2699 85.5345 22.3755 85.8279C22.4907 86.1104 22.6396 86.3494 22.822 86.545C23.014 86.7297 23.2301 86.8709 23.4702 86.9687C23.7102 87.0665 23.9599 87.1154 24.2191 87.1154C24.5552 87.1154 24.8433 87.0882 25.0833 87.0339C25.333 86.9796 25.5538 86.9035 25.7459 86.8057C25.8515 86.7514 25.9667 86.6862 26.0915 86.6102C26.226 86.5341 26.3604 86.4852 26.4948 86.4635C26.7541 86.4092 26.9893 86.4309 27.2006 86.5287C27.4118 86.6265 27.5895 86.8112 27.7335 87.0828C27.916 87.4196 27.9592 87.7564 27.8631 88.0932C27.7767 88.43 27.6087 88.7125 27.359 88.9407C26.9557 89.3101 26.4708 89.5763 25.9043 89.7392C25.3378 89.9131 24.776 90 24.2191 90C23.595 90 22.9852 89.9076 22.3899 89.7229C21.7946 89.5382 21.2617 89.2449 20.7911 88.8429C20.3302 88.43 19.9558 87.9085 19.6677 87.2783C19.3892 86.6373 19.25 85.8659 19.25 84.9641V81.5743C19.25 80.6725 19.3892 79.9066 19.6677 79.2764C19.9558 78.6354 20.3302 78.1139 20.7911 77.7119C21.2617 77.299 21.7946 77.0002 22.3899 76.8155C22.9852 76.6308 23.595 76.5385 24.2191 76.5385C24.8625 76.5385 25.4242 76.6145 25.9043 76.7666C26.394 76.9187 26.7781 77.1089 27.0566 77.337C27.3542 77.576 27.5607 77.8748 27.6759 78.2334C27.7911 78.581 27.7623 78.9287 27.5895 79.2764C27.4454 79.5589 27.2534 79.7599 27.0134 79.8794C26.7733 79.9989 26.5284 80.0315 26.2788 79.9772C26.1155 79.9446 25.9667 79.8957 25.8323 79.8305C25.7075 79.7544 25.5922 79.6893 25.4866 79.6349C25.3138 79.5589 25.1313 79.5046 24.9393 79.472C24.7568 79.4394 24.5168 79.4231 24.2191 79.4231C23.9599 79.4231 23.7102 79.472 23.4702 79.5697C23.2301 79.6675 23.014 79.8142 22.822 80.0098C22.6396 80.1945 22.4907 80.4335 22.3755 80.7268C22.2699 81.0093 22.2171 81.3407 22.2171 81.721V84.8175Z" fill="#CFCCC7"/>
<path d="M31.9958 77.8911C32.1398 77.4348 32.3846 77.098 32.7303 76.8807C33.0856 76.6525 33.4601 76.5385 33.8538 76.5385C34.2187 76.5385 34.5691 76.6525 34.9052 76.8807C35.2509 77.1089 35.4909 77.4457 35.6254 77.8911L39.3846 89.7229H36.2159L35.6542 87.7021H31.9525L31.4052 89.7229H28.2941L31.9958 77.8911ZM32.7015 84.9478H34.9052L33.8106 80.8898L32.7015 84.9478Z" fill="#CFCCC7"/>
<path d="M40.1556 89.7229V79.1786C40.1556 78.7114 40.1892 78.3149 40.2565 77.9889C40.3333 77.663 40.4581 77.3968 40.6309 77.1903C40.8038 76.9839 41.0342 76.8372 41.3223 76.7503C41.6104 76.6525 41.9705 76.6036 42.4025 76.6036H47.1988C47.4101 76.6036 47.5877 76.6471 47.7318 76.734C47.8758 76.8209 47.9958 76.935 48.0918 77.0763C48.1879 77.2175 48.2551 77.375 48.2935 77.5489C48.3415 77.7227 48.3655 77.8911 48.3655 78.0541C48.3655 78.2171 48.3415 78.3855 48.2935 78.5593C48.2551 78.7223 48.1879 78.8744 48.0918 79.0156C48.0054 79.146 47.8854 79.2547 47.7318 79.3416C47.5877 79.4176 47.4101 79.4557 47.1988 79.4557H43.5404C43.3772 79.4557 43.2667 79.4883 43.2091 79.5534C43.1515 79.6078 43.1227 79.7327 43.1227 79.9283V81.9817H46.8243C47.0356 81.9817 47.2132 82.0252 47.3573 82.1121C47.5013 82.199 47.6213 82.3131 47.7173 82.4544C47.8134 82.5956 47.8806 82.7531 47.919 82.927C47.967 83.1008 47.991 83.2692 47.991 83.4322C47.991 83.5952 47.967 83.7636 47.919 83.9374C47.8806 84.1004 47.8134 84.2525 47.7173 84.3937C47.6309 84.5241 47.5109 84.6328 47.3573 84.7197C47.2132 84.7957 47.0356 84.8338 46.8243 84.8338H43.1227V89.7229H40.1556Z" fill="#CFCCC7"/>
<path d="M52.3776 81.6721H56.3097C56.5209 81.6721 56.6986 81.7155 56.8426 81.8025C56.9866 81.8894 57.1067 82.0035 57.2027 82.1447C57.2987 82.286 57.3659 82.4435 57.4043 82.6173C57.4523 82.7803 57.4763 82.9433 57.4763 83.1063C57.4763 83.2692 57.4523 83.4322 57.4043 83.5952C57.3659 83.7581 57.2987 83.9102 57.2027 84.0515C57.1163 84.1819 56.9962 84.2905 56.8426 84.3774C56.6986 84.4535 56.5209 84.4915 56.3097 84.4915H52.3776V86.3983C52.3776 86.5939 52.4064 86.7242 52.464 86.7894C52.5216 86.8438 52.632 86.8709 52.7953 86.8709H56.5833C56.7946 86.8709 56.9722 86.9144 57.1163 87.0013C57.2699 87.0773 57.3899 87.186 57.4763 87.3272C57.5724 87.4576 57.6396 87.6097 57.678 87.7836C57.726 87.9465 57.75 88.1095 57.75 88.2725C57.75 88.4355 57.726 88.6039 57.678 88.7777C57.6396 88.9515 57.5724 89.1091 57.4763 89.2503C57.3803 89.3916 57.2603 89.5056 57.1163 89.5926C56.9722 89.6795 56.7946 89.7229 56.5833 89.7229H51.6718C51.2397 89.7229 50.8797 89.6795 50.5916 89.5926C50.3035 89.4948 50.0731 89.3427 49.9002 89.1362C49.7274 88.9298 49.6026 88.6636 49.5257 88.3377C49.4585 88.0117 49.4249 87.6152 49.4249 87.148V79.1786C49.4249 78.7114 49.4585 78.3149 49.5257 77.9889C49.6026 77.663 49.7274 77.3968 49.9002 77.1903C50.0731 76.9839 50.3035 76.8372 50.5916 76.7503C50.8797 76.6525 51.2397 76.6036 51.6718 76.6036H56.4393C56.6506 76.6036 56.8282 76.6471 56.9722 76.734C57.1163 76.8209 57.2363 76.935 57.3323 77.0763C57.4283 77.2175 57.4955 77.375 57.534 77.5489C57.582 77.7227 57.606 77.8911 57.606 78.0541C57.606 78.2171 57.582 78.3855 57.534 78.5593C57.4955 78.7223 57.4283 78.8744 57.3323 79.0156C57.2459 79.146 57.1259 79.2547 56.9722 79.3416C56.8282 79.4176 56.6506 79.4557 56.4393 79.4557H52.7953C52.632 79.4557 52.5216 79.4883 52.464 79.5534C52.4064 79.6078 52.3776 79.7327 52.3776 79.9283V81.6721Z" fill="#CFCCC7"/>
</g>
</svg>
