<svg width="103" height="40" viewBox="0 0 103 40" fill="none" xmlns="http://www.w3.org/2000/svg">
<path fill-rule="evenodd" clip-rule="evenodd" d="M39.4433 36.4459C37.1964 40.1031 25.921 39.7699 21.255 39.7699C16.5895 39.7699 6.30684 39.7699 3.06671 36.4459C0.21605 33.4847 0 23.1161 0 19.8849C0 16.6532 0.21605 6.28453 3.06671 3.36643C6.30684 0 16.5895 0 21.255 0C25.921 0 36.2031 0 39.4433 3.36643C42.2945 6.28453 42.5532 16.6526 42.5532 19.8849C42.5532 23.1161 42.2945 33.4847 39.4433 36.4459ZM37.1964 5.70091C35.252 3.68069 27.3896 3.32214 21.255 3.32214C15.1204 3.32214 7.25745 3.68069 5.35681 5.70091C3.84448 7.27159 3.15371 14.5432 3.15371 19.8849C3.15371 25.2261 3.84507 32.4983 5.35681 34.0689C7.25745 36.088 15.1204 36.492 21.255 36.492C27.3896 36.492 35.252 36.088 37.1964 34.0689C38.7087 32.4977 39.3563 25.2261 39.3563 19.8849C39.3569 14.5432 38.7087 7.27159 37.1964 5.70091ZM33.913 24.1935H8.59694L7.0414 11.4461L14.7747 17.0117L21.255 10.2346L27.7785 17.0123L35.5118 11.4467L33.913 24.1935ZM33.3087 29.1761H9.24508L8.8562 26.3933H33.6544L33.3087 29.1761ZM27.5198 20.3339L21.255 13.8704L14.9914 20.3339L10.2389 16.8328L10.8 21.4562H31.7099L32.3143 16.8328L27.5198 20.3339Z" fill="#FFFCF9"/>
<path d="M49.8783 21.1771C49.8783 24.1701 51.3986 25.9042 54.0274 25.9042C55.2863 25.9042 56.3078 25.5083 57.0362 24.7798C57.5747 24.2335 57.923 23.5367 57.923 23.0379C57.923 22.7291 57.7409 22.5311 57.4163 22.5311C57.1629 22.5311 57.0204 22.6578 56.8541 23.0062C56.3394 24.2493 55.3576 24.8907 54.0669 24.8907C52.1033 24.8907 50.9868 23.5525 50.9868 21.185V19.356C50.9868 16.9964 52.0953 15.6424 54.0432 15.6424C55.3101 15.6424 56.2603 16.3075 56.8066 17.5585C56.9808 17.9307 57.1471 18.0495 57.4084 18.0495C57.7013 18.0495 57.8993 17.8594 57.8993 17.5269C57.8993 17.0597 57.5588 16.3471 57.0204 15.8007C56.284 15.0327 55.2784 14.6368 54.0115 14.6368C51.3986 14.6368 49.8783 16.3867 49.8783 19.3639V21.1771ZM59.768 25.7696C60.0688 25.7696 60.251 25.6271 60.3697 25.2549L61.3912 22.2619H65.5798L66.6013 25.2549C66.7279 25.6271 66.9021 25.7696 67.203 25.7696C67.5198 25.7696 67.7335 25.5796 67.7335 25.2866C67.7335 25.1599 67.7019 25.0332 67.6544 24.8986L64.2575 15.4127C64.0991 14.9931 63.8774 14.7872 63.4895 14.7872C63.0936 14.7872 62.8798 14.9931 62.7214 15.4127L59.3166 24.8986C59.2691 25.0332 59.2454 25.1599 59.2454 25.2866C59.2454 25.5875 59.4512 25.7696 59.768 25.7696ZM61.7079 21.3513L63.4657 16.2283H63.5132L65.2631 21.3513H61.7079ZM70.109 25.7458C70.4494 25.7458 70.6712 25.5083 70.6712 25.1361V20.8445H74.8598C75.224 20.8445 75.4537 20.6545 75.4537 20.3457C75.4537 20.029 75.224 19.831 74.8598 19.831H70.6712V15.8799H75.2795C75.6437 15.8799 75.8733 15.6899 75.8733 15.3811C75.8733 15.0644 75.6437 14.8664 75.2795 14.8664H70.6474C69.8714 14.8664 69.5626 15.1594 69.5626 15.872V25.1361C69.5626 25.5083 69.7685 25.7458 70.109 25.7458ZM77.7024 24.669C77.7024 25.3816 78.0112 25.6667 78.7872 25.6667H83.5143C83.8785 25.6667 84.1081 25.4766 84.1081 25.1678C84.1081 24.8511 83.8785 24.6531 83.5143 24.6531H78.8109V20.6466H83.2371C83.6014 20.6466 83.831 20.4566 83.831 20.1478C83.831 19.839 83.6014 19.641 83.2371 19.641H78.8109V15.8799H83.5222C83.8864 15.8799 84.116 15.6899 84.116 15.3811C84.116 15.0644 83.8864 14.8664 83.5222 14.8664H78.7872C78.0112 14.8664 77.7024 15.1594 77.7024 15.872V24.669ZM90.4505 24.2335C90.7672 25.3658 91.4244 25.7379 92.3429 25.7379C93.2535 25.7379 93.9107 25.1995 94.1641 24.2335L95.431 19.451H95.5418L96.785 24.1385C97.0779 25.2628 97.7193 25.7379 98.7091 25.7379C99.6434 25.7379 100.229 25.247 100.514 24.2335L102.494 17.0518C102.557 16.838 102.605 16.4579 102.605 16.1887C102.605 15.3573 101.995 14.7793 101.116 14.7793C100.277 14.7793 99.7622 15.3098 99.5404 16.45L98.4715 21.6284H98.3211L97.0621 16.3867C96.7929 15.2623 96.3178 14.7793 95.4785 14.7793C94.6392 14.7793 94.1957 15.2386 93.9107 16.3867L92.6596 21.6284H92.5171L91.369 16.45C91.1156 15.2861 90.6405 14.7793 89.8091 14.7793C88.9144 14.7793 88.3047 15.3652 88.3047 16.2204C88.3047 16.4817 88.3601 16.8776 88.471 17.2656L90.4505 24.2335Z" fill="#FFFCF9"/>
</svg>
