<svg width="110" height="40" viewBox="0 0 110 40" fill="none" xmlns="http://www.w3.org/2000/svg">
<g clip-path="url(#clip0_1_3)">
<path d="M0 0H22.4884L26 6.64864H7.98218V15.8919H22.005L24.0024 19.2432L22.005 22.5946H7.98218V33.2972H26L23.0816 40H0V0Z" fill="#699AFE"/>
<path d="M47.0522 40C44.683 40 42.575 39.664 40.7282 38.992C38.8816 38.2848 37.2962 37.1884 35.9722 35.703C34.683 34.2176 33.6898 32.3076 32.993 29.9734C32.331 27.6392 32 24.8452 32 21.5916V0L39.7352 2.9079V22.2812C39.7352 24.3324 39.892 26.0654 40.2056 27.4802C40.554 28.8594 41.0418 29.9734 41.669 30.8222C42.2962 31.671 43.0628 32.29 43.9686 32.679C44.8746 33.0328 45.9024 33.2096 47.0522 33.2096C48.202 33.2096 49.23 33.0328 50.1358 32.679C51.0766 32.29 51.878 31.671 52.54 30.8222C53.202 29.9734 53.7074 28.8594 54.0558 27.4802C54.4042 26.0654 54.5784 24.3324 54.5784 22.2812V2.9079L62 0V21.5916C62 24.8452 61.669 27.6392 61.007 29.9734C60.345 32.3076 59.3694 34.2176 58.0802 35.703C56.791 37.1884 55.223 38.2848 53.3764 38.992C51.5296 39.664 49.4216 40 47.0522 40Z" fill="white"/>
<path d="M66 0L74 2.002V37.998L66 40V0Z" fill="white"/>
<path d="M78 2.002L83.3612 0H89.4166C92.6034 0 95.4528 0.396396 97.9648 1.18919C100.514 1.98198 102.67 3.2072 104.432 4.86486C106.232 6.48648 107.6 8.54054 108.538 11.027C109.513 13.5135 110 16.4505 110 19.8378C110 23.1892 109.513 26.1262 108.538 28.6486C107.6 31.1712 106.251 33.2792 104.489 34.973C102.764 36.6306 100.664 37.8918 98.1898 38.7568C95.7152 39.5856 92.9408 40 89.8664 40H83.9332L78 37.998V2.002ZM88.9104 33.5676C90.86 33.5676 92.6034 33.3154 94.1406 32.8108C95.7152 32.2702 97.0462 31.4594 98.1336 30.3784C99.2208 29.2612 100.046 27.8378 100.608 26.1082C101.208 24.3784 101.508 22.2882 101.508 19.8378C101.508 17.3874 101.208 15.3153 100.608 13.6216C100.046 11.8919 99.2208 10.5045 98.1336 9.45946C97.0462 8.37838 95.7152 7.6036 94.1406 7.13514C92.6034 6.63062 90.86 6.37838 88.9104 6.37838H86.3234V33.5676H88.9104Z" fill="white"/>
</g>
<defs>
<clipPath id="clip0_1_3">
<rect width="110" height="40" fill="white"/>
</clipPath>
</defs>
</svg>
