<svg xmlns="http://www.w3.org/2000/svg">
	<style>
		:root svg:not(:target) {
			display: none
		}
	</style>
	<svg fill="currentColor" id="arrow" viewBox="0 0 367.136 367.136">
		<path
			d="M367.136,149.7V36.335l-39.14,38.953c-13.024-17.561-29.148-32.731-47.732-44.706 c-29.33-18.898-63.352-28.888-98.391-28.888C81.588,1.694,0,83.282,0,183.568s81.588,181.874,181.874,181.874 c34.777,0,68.584-9.851,97.768-28.488c28.394-18.133,51.175-43.703,65.881-73.944l-26.979-13.119 c-25.66,52.77-78.029,85.551-136.669,85.551C98.13,335.442,30,267.312,30,183.568S98.13,31.694,181.874,31.694 c49.847,0,96.439,24.9,124.571,65.042L253.226,149.7H367.136z">
		</path>
	</svg>
	<svg fill="currentColor" id="circle" viewBox="0 0 26.349 26.35">
		<g>
			<g>
				<circle cx="13.792" cy="3.082" r="3.082"></circle>
				<circle cx="13.792" cy="24.501" r="1.849"></circle>
				<circle cx="6.219" cy="6.218" r="2.774"></circle>
				<circle cx="21.365" cy="21.363" r="1.541"></circle>
				<circle cx="3.082" cy="13.792" r="2.465"></circle>
				<circle cx="24.501" cy="13.791" r="1.232"></circle>
				<path
					d="M4.694,19.84c-0.843,0.843-0.843,2.207,0,3.05c0.842,0.843,2.208,0.843,3.05,0c0.843-0.843,0.843-2.207,0-3.05 C6.902,18.996,5.537,18.988,4.694,19.84z">
				</path>
				<circle cx="21.364" cy="6.218" r="0.924"></circle>
			</g>
		</g>
	</svg>
	<svg fill="currentColor" id="round" viewBox="0 0 330 330">
		<g>
			<path
				d="M307.5,150h-60c-8.284,0-15,6.716-15,15s6.716,15,15,15h60c8.284,0,15-6.716,15-15S315.784,150,307.5,150z" />
			<path
				d="M52.5,150h-30c-8.284,0-15,6.716-15,15s6.716,15,15,15h30c8.284,0,15-6.716,15-15S60.784,150,52.5,150z" />
			<path
				d="M157.5,240c-8.284,0-15,6.716-15,15v60c0,8.284,6.716,15,15,15c8.284,0,15-6.716,15-15v-60 C172.5,246.716,165.784,240,157.5,240z" />
			<path
				d="M157.5,0c-8.284,0-15,6.716-15,15v60c0,8.284,6.716,15,15,15c8.284,0,15-6.716,15-15V15 C172.5,6.716,165.784,0,157.5,0z" />
			<path
				d="M231.746,218.033c-5.857-5.858-15.355-5.858-21.213,0c-5.858,5.858-5.858,15.355,0,21.213l42.427,42.427 c2.929,2.929,6.767,4.393,10.606,4.393s7.678-1.464,10.607-4.393c5.858-5.858,5.858-15.355,0-21.213L231.746,218.033z" />
			<path
				d="M62.04,48.328c-5.857-5.857-15.355-5.858-21.213,0c-5.858,5.858-5.858,15.356,0,21.213l42.427,42.426 c2.929,2.929,6.768,4.393,10.606,4.393c3.839,0,7.678-1.464,10.607-4.394c5.857-5.858,5.857-15.355,0-21.213L62.04,48.328z" />
			<path
				d="M221.14,116.36c3.838,0,7.678-1.465,10.607-4.393l42.427-42.426c5.858-5.858,5.858-15.355,0-21.213 c-5.859-5.858-15.355-5.857-21.213,0l-42.427,42.426c-5.858,5.858-5.858,15.355,0,21.213 C213.462,114.896,217.3,116.36,221.14,116.36z" />
		</g>
	</svg>
	<svg id="rectangle" viewBox="0 0 512 512">
		<g>
			<rect x="248.163" style="fill:#1D1D1B;" width="15.673" height="143.997" />
			<rect x="248.163" y="368.003" style="fill:#1D1D1B;" width="15.673"
				height="143.997" />

			<rect x="53.892" y="118.051"
				transform="matrix(-0.7071 -0.7071 0.7071 -0.7071 125.8917 303.9215)"
				style="fill:#1D1D1B;" width="143.996" height="15.673" />

			<rect x="314.109" y="378.265"
				transform="matrix(-0.7071 -0.7071 0.7071 -0.7071 386.1105 932.136)"
				style="fill:#1D1D1B;" width="143.996" height="15.673" />
			<rect y="248.163" style="fill:#1D1D1B;" width="143.997" height="15.673" />
			<rect x="368.003" y="248.163" style="fill:#1D1D1B;" width="143.997"
				height="15.673" />

			<rect x="118.039" y="314.097"
				transform="matrix(-0.7071 -0.7071 0.7071 -0.7071 -58.1268 748.114)"
				style="fill:#1D1D1B;" width="15.673" height="143.996" />

			<rect x="378.269" y="53.892"
				transform="matrix(-0.7071 -0.7071 0.7071 -0.7071 570.1053 487.9248)"
				style="fill:#1D1D1B;" width="15.673" height="143.996" />
		</g>
		<rect x="247.996" y="248.163" style="fill:#CBBBA0;" width="16.001"
			height="15.673" />
		<g>
			<rect x="216.001" y="248.163" style="fill:#D5C9B3;" width="16.001"
				height="15.673" />
			<rect x="280.001" y="248.163" style="fill:#D5C9B3;" width="16.001"
				height="15.673" />
		</g>
	</svg>
</svg>