<svg xmlns="http://www.w3.org/2000/svg" width="134" height="22" viewBox="0 0 134 22" fill="none">
  <path d="M107.536 0.288574L101.235 21.7118H107.956L111.737 9.73998L113.627 18.3513H117.408L124.339 9.73998L120.978 21.5017H127.699L134 0.288574H126.649L118.458 10.16H117.408L115.097 0.288574H107.536Z" fill="#303033" />
  <path fill-rule="evenodd" clip-rule="evenodd" d="M73.931 21.5017L74.7712 18.3512L88.0031 0.498535H96.8244L99.3448 18.3512L98.2947 21.5017H92.2038L91.9937 18.3512H82.9624L80.8621 21.5017H73.931ZM86.7429 12.8904H91.5737L91.1536 6.37941L86.7429 12.8904Z" fill="#303033" />
  <path d="M51.4577 21.5017L57.7586 0.498535H77.5016L76.4514 4.06907L73.9311 5.95935H62.7994L62.1693 8.05966H75.1912L73.511 13.7305H60.4891L59.859 15.8308H72.8809L70.9906 21.5017H51.4577Z" fill="#303033" />
  <path
        fill-rule="evenodd"
        clip-rule="evenodd"
        d="M31.7147 0.288574L25.6238 21.7118H32.3448L34.6552 13.9406H37.8057L42.2163 21.7118H47.6771L48.9373 18.3513L45.9969 13.9406C47.3271 14.0106 50.1975 13.3525 51.0376 10.16L52.2978 5.53936C52.5779 3.7891 52.4658 0.288574 49.7774 0.288574H31.7147ZM36.9655 5.95942L36.1254 8.68983H44.5267L45.3668 5.95942H36.9655Z"
        fill="#303033" />
  <path d="M0 21.7118L6.51097 0.288574H13.232L10.9216 7.8497H15.5423L22.4734 0.288574H28.9843L28.1442 3.43904L21.0031 10.5801L23.5235 18.3513L22.4734 21.7118H17.0125L14.7022 13.7306H9.03135L6.93103 21.7118H0Z" fill="#303033" />
</svg>