<svg xmlns="http://www.w3.org/2000/svg" width="30" height="30" viewBox="0 0 30 30">
    <g fill="none" fill-rule="evenodd">
        <path d="M0 0H30V30H0z"/>
        <path fill="#6FAFF3" fill-rule="nonzero" d="M15.044 4c.38 0 .694.282.744.648l.006.102v2.689l1.72-1.72c.266-.266.683-.29.977-.072l.084.073c.266.266.29.683.072.976l-.072.084-2.78 2.78-.001 4.39 3.802-2.194 1.018-3.798c.107-.4.519-.638.919-.53.363.097.593.446.55.809l-.02.109-.63 2.35 2.33-1.346c.358-.207.817-.084 1.024.275.19.329.103.742-.19.968l-.084.057-2.328 1.344 2.348.63c.363.097.593.446.55.809l-.02.11c-.097.363-.446.592-.81.55l-.108-.02-3.798-1.018-3.803 2.194 3.802 2.196 3.799-1.018c.4-.107.81.13.918.53.098.365-.09.737-.425.883l-.105.036-2.35.63 2.33 1.344c.358.208.481.666.274 1.025-.19.329-.59.46-.933.32l-.091-.045-2.328-1.344.628 2.348c.098.364-.09.737-.425.882l-.105.037c-.364.097-.737-.09-.882-.426l-.037-.105-1.017-3.797-3.803-2.197v4.391l2.78 2.78c.294.294.294.768 0 1.061-.266.267-.682.29-.976.073l-.084-.073-1.72-1.72v2.69c0 .414-.335.75-.75.75-.38 0-.693-.282-.743-.648l-.007-.102v-2.688l-1.72 1.718c-.266.267-.682.29-.976.073l-.084-.073c-.266-.266-.29-.683-.073-.976l.073-.084 2.78-2.78v-4.391l-3.801 2.195-1.018 3.798c-.108.4-.519.638-.919.53-.364-.097-.593-.446-.551-.809l.02-.109.63-2.35-2.329 1.346c-.359.207-.817.084-1.024-.275-.19-.329-.103-.742.19-.968l.084-.057 2.328-1.344-2.348-.63c-.364-.097-.593-.446-.551-.809l.02-.11c.098-.363.447-.592.81-.55l.11.02 3.797 1.018 3.802-2.195-3.801-2.195-3.799 1.018c-.4.107-.811-.13-.918-.53-.098-.365.09-.737.425-.883l.105-.036 2.35-.63-2.33-1.344c-.359-.208-.481-.666-.274-1.025.19-.329.59-.46.933-.32l.091.045 2.328 1.344-.628-2.348c-.098-.364.09-.737.425-.882l.105-.037c.364-.097.737.09.882.426l.037.105 1.017 3.797 3.802 2.196v-4.39l-2.78-2.78c-.293-.294-.293-.768 0-1.061.266-.267.683-.29.977-.073l.084.073 1.72 1.719V4.75c0-.414.335-.75.75-.75z"/>
    </g>
</svg>
