<svg width="300" height="29" viewBox="0 0 300 29" fill="none" xmlns="http://www.w3.org/2000/svg">
<path d="M277.216 28.2327V0.714111H299.456V7.30599H286.158V10.9616H297.415V17.2924H286.158V21.5502H300V28.2327H277.216Z" fill="#FEFEFE"/>
<path d="M250.264 28.2327V0.714111H272.504V7.30599H259.194V10.9616H270.441V17.2924H259.194V21.5502H273.042V28.2327H250.264Z" fill="#FEFEFE"/>
<path d="M225.832 28.2327V0.714111H246.871V7.64171H234.757V11.9049H244.398V18.5553H234.757V28.238H225.832V28.2327Z" fill="#FEFEFE"/>
<path d="M201.379 28.2327V0.714111H222.423V7.64171H210.32V11.9049H219.945V18.5553H210.32V28.238H201.379V28.2327Z" fill="#FEFEFE"/>
<path d="M168.405 14.4947C168.405 10.0184 169.686 6.46931 172.277 3.88479C174.879 1.2896 178.401 0 182.872 0C187.332 0 190.849 1.2896 193.434 3.88479C196.025 6.46931 197.301 10.0184 197.301 14.4947C197.301 18.971 196.025 22.5094 193.434 25.1046C190.849 27.6997 187.332 28.9947 182.872 28.9947C178.401 28.9947 174.879 27.6997 172.277 25.1046C169.686 22.5147 168.405 18.971 168.405 14.4947ZM177.421 14.4947C177.421 17.0952 177.857 19.0136 178.735 20.2339C179.619 21.4542 180.997 22.0617 182.866 22.0617C184.735 22.0617 186.109 21.4542 186.976 20.2393C187.838 19.0296 188.274 17.1112 188.274 14.4947C188.274 11.8728 187.843 9.9491 186.976 8.72878C186.109 7.52977 184.735 6.91694 182.866 6.91694C180.997 6.91694 179.613 7.52977 178.735 8.75009C177.857 9.97042 177.421 11.8835 177.421 14.4947Z" fill="#FEFEFE"/>
<path d="M157.379 17.5696H165.835C165.593 21.1933 164.3 24.0176 161.963 26.0106C159.625 28.0037 156.485 29.0002 152.499 29.0002C148.039 29.0002 144.544 27.7212 141.985 25.1367C139.422 22.5468 138.145 19.0031 138.145 14.5002C138.145 10.0239 139.422 6.47481 141.948 3.89028C144.468 1.29509 147.926 0.00549316 152.289 0.00549316C156.318 0.00549316 159.485 0.964699 161.801 2.88311C164.112 4.81218 165.41 7.56724 165.685 11.1483H157.121C156.997 9.73611 156.533 8.67032 155.731 7.94559C154.95 7.23684 153.819 6.88513 152.391 6.88513C150.652 6.88513 149.332 7.51928 148.454 8.7769C147.576 10.0399 147.151 11.9529 147.151 14.5055C147.151 17.0154 147.625 18.9125 148.546 20.1915C149.483 21.4757 150.851 22.1205 152.645 22.1205C154.04 22.1205 155.128 21.7315 155.946 20.9322C156.76 20.1488 157.244 19.0298 157.379 17.5696Z" fill="#FEFEFE"/>
<path d="M95.438 28.2327L105.225 0.714111H114.268L124.049 28.2327H115.189L114.155 24.5877H105.3L104.217 28.2327H95.438ZM106.921 18.8111H112.534L109.754 9.28835L106.921 18.8111Z" fill="#FEFEFE"/>
<path d="M80.7875 28.2327V18.0438L70.543 0.714111H80.4482L85.2419 10.0877L90.0787 0.714111H99.7092L89.7124 18.0438V28.2327H80.7875Z" fill="#FEFEFE"/>
<path d="M57.433 28.2327V0.714111H66.541V28.2327H57.433Z" fill="#FEFEFE"/>
<path d="M26.9525 28.2327V0.714111H37.7572C40.4934 0.714111 42.5401 0.831348 43.8759 1.07115C45.2225 1.31095 46.3913 1.72661 47.3823 2.27549C49.3106 3.39989 50.7595 4.97725 51.7236 7.00224C52.6931 9.02723 53.1779 11.5265 53.1779 14.4894C53.1779 17.6068 52.5854 20.2286 51.3735 22.3549C50.1831 24.4758 48.3949 26.0531 46.0627 27.087C45.1578 27.5026 44.0214 27.785 42.6533 27.9609C41.2852 28.1421 39.0984 28.2273 36.0929 28.2273H26.9525V28.2327ZM35.8828 21.2624H38.3012C40.5203 21.2624 42.0554 20.7722 42.9333 19.781C43.7951 18.8005 44.2206 17.0366 44.2206 14.4894C44.2206 12.0061 43.779 10.2529 42.901 9.21907C42.0231 8.18526 40.5257 7.67901 38.4143 7.67901H35.8882V21.2624H35.8828Z" fill="#FEFEFE"/>
<path d="M0 28.2327V0.714111H22.2288V7.30599H8.94108V10.9616H20.1713V17.2924H8.94108V21.5502H22.7782V28.2327H0Z" fill="#FEFEFE"/>
</svg>
