<svg width="161" height="16" viewBox="0 0 161 16" fill="none" xmlns="http://www.w3.org/2000/svg">
<path d="M148.349 15.5767V0.394043H160.21V4.03094H153.117V6.04785H159.121V9.54068H153.117V11.8898H160.5V15.5767H148.349Z" fill="#878787"/>
<path d="M133.974 15.5767V0.394043H145.835V4.03094H138.737V6.04785H144.735V9.54068H138.737V11.8898H146.123V15.5767H133.974Z" fill="#878787"/>
<path d="M120.944 15.5767V0.394043H132.164V4.21617H125.704V6.56824H130.846V10.2375H125.704V15.5796H120.944V15.5767Z" fill="#878787"/>
<path d="M107.902 15.5767V0.394043H119.125V4.21617H112.671V6.56824H117.804V10.2375H112.671V15.5796H107.902V15.5767Z" fill="#878787"/>
<path d="M90.3157 7.99706C90.3157 5.52738 90.9994 3.56928 92.3812 2.14333C93.7687 0.711503 95.6474 0 98.0316 0C100.41 0 102.286 0.711503 103.665 2.14333C105.047 3.56928 105.727 5.52738 105.727 7.99706C105.727 10.4667 105.047 12.419 103.665 13.8508C102.286 15.2826 100.41 15.9971 98.0316 15.9971C95.6474 15.9971 93.7687 15.2826 92.3812 13.8508C90.9994 12.4219 90.3157 10.4667 90.3157 7.99706ZM95.1245 7.99706C95.1245 9.43183 95.3572 10.4903 95.8255 11.1635C96.2966 11.8368 97.032 12.172 98.0288 12.172C99.0256 12.172 99.7581 11.8368 100.221 11.1665C100.68 10.4991 100.913 9.44065 100.913 7.99706C100.913 6.55053 100.683 5.48916 100.221 4.81588C99.7581 4.15436 99.0256 3.81624 98.0288 3.81624C97.032 3.81624 96.2937 4.15436 95.8255 4.82764C95.3572 5.50092 95.1245 6.55641 95.1245 7.99706Z" fill="#878787"/>
<path d="M84.4355 9.69349H88.9456C88.8163 11.6928 88.1269 13.251 86.8801 14.3506C85.6334 15.4502 83.9587 16 81.8329 16C79.4544 16 77.59 15.2944 76.2255 13.8684C74.8581 12.4395 74.1773 10.4844 74.1773 7.99999C74.1773 5.53031 74.8582 3.57221 76.2054 2.14626C77.5498 0.714433 79.394 0.00292969 81.7209 0.00292969C83.8696 0.00292969 85.5587 0.532147 86.794 1.59058C88.0263 2.6549 88.7186 4.17493 88.8651 6.15067H84.2976C84.2316 5.37154 83.9845 4.78352 83.5565 4.38367C83.14 3.99264 82.5367 3.79859 81.7755 3.79859C80.8476 3.79859 80.1438 4.14846 79.6756 4.84233C79.2073 5.53913 78.9804 6.59462 78.9804 8.00293C78.9804 9.38771 79.2332 10.4344 79.7244 11.14C80.2242 11.8486 80.9539 12.2043 81.9105 12.2043C82.6545 12.2043 83.2348 11.9897 83.6714 11.5487C84.1052 11.1165 84.3637 10.4991 84.4355 9.69349Z" fill="#878787"/>
<path d="M51.4003 15.5767L56.6198 0.394043H61.443L66.6597 15.5767H61.9342L61.3827 13.5657H56.6601L56.0827 15.5767H51.4003ZM57.5247 10.3786H60.518L59.0357 5.12466L57.5247 10.3786Z" fill="#878787"/>
<path d="M43.5867 15.5767V9.95524L38.1229 0.394043H43.4057L45.9623 5.56567L48.542 0.394043H53.6782L48.3466 9.95524V15.5767H43.5867Z" fill="#878787"/>
<path d="M31.1309 15.5767V0.394043H35.9886V15.5767H31.1309Z" fill="#878787"/>
<path d="M14.8747 15.5767V0.394043H20.6372C22.0965 0.394043 23.1881 0.458725 23.9005 0.591029C24.6187 0.723334 25.242 0.952661 25.7706 1.25549C26.799 1.87585 27.5717 2.74612 28.0859 3.86336C28.603 4.98059 28.8615 6.3595 28.8615 7.99419C28.8615 9.71415 28.5455 11.1607 27.8992 12.3338C27.2643 13.5039 26.3106 14.3742 25.0668 14.9446C24.5842 15.1739 23.9781 15.3297 23.2484 15.4268C22.5188 15.5267 21.3525 15.5738 19.7495 15.5738H14.8747V15.5767ZM19.6375 11.7311H20.9273C22.1108 11.7311 22.9295 11.4606 23.3978 10.9137C23.8574 10.3727 24.0843 9.39956 24.0843 7.99419C24.0843 6.62411 23.8488 5.65681 23.3805 5.08644C22.9123 4.51606 22.1137 4.23675 20.9876 4.23675H19.6404V11.7311H19.6375Z" fill="#878787"/>
<path d="M0.5 15.5767V0.394043H12.3554V4.03094H5.26857V6.04785H11.258V9.54068H5.26857V11.8898H12.6484V15.5767H0.5Z" fill="#878787"/>
</svg>
