<svg width="16" height="16" viewBox="0 0 16 16" fill="none" xmlns="http://www.w3.org/2000/svg">
<path fill-rule="evenodd" clip-rule="evenodd" d="M14.4728 0.149294C14.6637 -0.0502529 14.9732 -0.0502529 15.1641 0.149294C15.355 0.348841 15.355 0.67237 15.1641 0.871917L8.69123 7.63862L15.8553 15.128C16.0462 15.3275 16.0462 15.6511 15.8553 15.8506C15.6645 16.0501 15.355 16.0501 15.1641 15.8506L7.99999 8.36124L0.835868 15.8506C0.644987 16.0501 0.335507 16.0501 0.144626 15.8506C-0.0462555 15.6511 -0.0462554 15.3275 0.144626 15.128L7.30874 7.63862L0.835901 0.871917C0.64502 0.67237 0.64502 0.348841 0.835901 0.149294C1.02678 -0.0502529 1.33626 -0.0502529 1.52714 0.149294L7.99998 6.91599L14.4728 0.149294Z" fill="#F5F5F5"/>
</svg>
