<svg width="16" height="16" viewBox="0 0 16 16" fill="none" xmlns="http://www.w3.org/2000/svg">
<path fill-rule="evenodd" clip-rule="evenodd" d="M6.98701 14.5908C7.31901 14.6415 7.65967 14.6668 7.99967 14.6668C11.6757 14.6668 14.6663 11.6762 14.6663 8.00016C14.6663 4.32416 11.6757 1.3335 7.99967 1.3335C4.32367 1.33349 1.33301 4.32416 1.33301 8.00016C1.33301 10.0855 2.28167 12.0115 3.93434 13.2848C4.14634 13.4482 4.45167 13.4082 4.61434 13.1968C4.77834 12.9848 4.73767 12.6808 4.52634 12.5162C3.11234 11.4288 2.30234 9.78216 2.30234 8.00016C2.30234 4.85883 4.85767 2.30283 7.99967 2.30283C11.141 2.30283 13.6963 4.85883 13.6963 8.00016C13.6963 11.1415 11.141 13.6975 7.99967 13.6975C7.70834 13.6975 7.41701 13.6755 7.13367 13.6322C6.86967 13.5922 6.62234 13.7735 6.58167 14.0382C6.53767 14.3042 6.72234 14.5502 6.98701 14.5908ZM9.86246 7.99962C9.86246 7.86695 9.80979 7.73962 9.71513 7.64562L7.39113 5.33162C7.19513 5.13629 6.87846 5.13695 6.6838 5.33295C6.48913 5.52895 6.48913 5.84495 6.68513 6.03962L8.6538 7.99962L6.68513 9.95962C6.48913 10.1543 6.48913 10.471 6.6838 10.667C6.87846 10.8623 7.19513 10.863 7.39113 10.6683L9.71513 8.35362C9.80979 8.26029 9.86246 8.13295 9.86246 7.99962Z" fill="#919BC6"/>
</svg>
