<svg width="16" height="16" viewBox="0 0 16 16" fill="none" xmlns="http://www.w3.org/2000/svg">
<path fill-rule="evenodd" clip-rule="evenodd" d="M14.591 6.9875C14.6417 7.3195 14.667 7.66016 14.667 8.00016C14.667 11.6762 11.6763 14.6668 8.00033 14.6668C4.32433 14.6668 1.33366 11.6762 1.33366 8.00016C1.33366 4.32416 4.32433 1.3335 8.00033 1.3335C10.0857 1.3335 12.0117 2.28216 13.285 3.93483C13.4483 4.14683 13.4083 4.45216 13.197 4.61483C12.985 4.77883 12.681 4.73816 12.5163 4.52683C11.429 3.11283 9.78233 2.30283 8.00033 2.30283C4.85899 2.30283 2.30299 4.85816 2.30299 8.00016C2.30299 11.1415 4.85899 13.6968 8.00033 13.6968C11.1417 13.6968 13.6977 11.1415 13.6977 8.00016C13.6977 7.70883 13.6757 7.4175 13.6323 7.13416C13.5923 6.87016 13.7737 6.62283 14.0383 6.58216C14.3043 6.53816 14.5503 6.72283 14.591 6.9875ZM6.13752 7.99963C6.13752 7.86696 6.19019 7.73963 6.28485 7.64563L8.60885 5.33163C8.80485 5.1363 9.12152 5.13696 9.31619 5.33296C9.51085 5.52896 9.51085 5.84496 9.31485 6.03963L7.34619 7.99963L9.31485 9.95963C9.51085 10.1543 9.51085 10.471 9.31619 10.667C9.12152 10.8623 8.80485 10.863 8.60885 10.6683L6.28485 8.35363C6.19019 8.26029 6.13752 8.13296 6.13752 7.99963Z" fill="#919BC6"/>
</svg>
