<svg width="20" height="20" viewBox="0 0 20 20" fill="none" xmlns="http://www.w3.org/2000/svg">
<g clip-path="url(#clip0)">
<path d="M1.59997 6.01563L5.12797 8.05263C5.2118 8.09943 5.30413 8.12906 5.39954 8.13977C5.49496 8.15048 5.59155 8.14207 5.68368 8.11502C5.7758 8.08798 5.86162 8.04284 5.9361 7.98225C6.01058 7.92165 6.07224 7.84682 6.11747 7.76213L6.12497 7.74913C6.17449 7.66761 6.2074 7.57709 6.22179 7.4828C6.23617 7.3885 6.23176 7.29229 6.2088 7.19971C6.18584 7.10713 6.14479 7.02001 6.08801 6.94336C6.03123 6.86672 5.95984 6.80206 5.87797 6.75313L2.34997 4.71663C2.17758 4.61717 1.97274 4.59027 1.78051 4.64184C1.58829 4.69342 1.42442 4.81924 1.32497 4.99163C1.22551 5.16402 1.19861 5.36886 1.25018 5.56108C1.30175 5.75331 1.42758 5.91717 1.59997 6.01663V6.01563Z" fill="#C8CDE2"/>
<path d="M13.912 7.75008C13.9574 7.83435 14.0191 7.90875 14.0935 7.96894C14.168 8.02913 14.2536 8.07391 14.3455 8.10067C14.4375 8.12743 14.5338 8.13563 14.6289 8.1248C14.724 8.11397 14.816 8.08432 14.8995 8.03758L18.3995 6.01608C18.5719 5.91662 18.6977 5.75276 18.7493 5.56053C18.8009 5.36831 18.774 5.16347 18.6745 4.99108C18.5751 4.81869 18.4112 4.69287 18.219 4.6413C18.0267 4.58972 17.8219 4.61662 17.6495 4.71608L14.1495 6.73758C14.0672 6.78659 13.9954 6.85149 13.9384 6.92851C13.8814 7.00552 13.8402 7.09311 13.8174 7.18617C13.7945 7.27924 13.7904 7.37592 13.8053 7.47058C13.8202 7.56525 13.8537 7.65601 13.904 7.73758L13.912 7.75008Z" fill="#919BC6"/>
<path d="M7.74997 6.11597L7.76297 6.10847C7.84704 6.06294 7.92124 6.00116 7.98125 5.92672C8.04125 5.85229 8.08588 5.76668 8.11253 5.67485C8.13919 5.58303 8.14734 5.48683 8.13651 5.39183C8.12569 5.29684 8.0961 5.20494 8.04947 5.12147L6.01547 1.59997C5.96622 1.51461 5.90065 1.43978 5.82249 1.37977C5.74432 1.31975 5.6551 1.27572 5.55992 1.25018C5.3677 1.19861 5.16286 1.22551 4.99047 1.32497C4.81808 1.42442 4.69226 1.58829 4.64069 1.78051C4.58911 1.97274 4.61601 2.17758 4.71547 2.34997L6.74997 5.87097C6.79907 5.95322 6.86403 6.0249 6.94106 6.08183C7.0181 6.13876 7.10569 6.17982 7.19873 6.20262C7.29177 6.22541 7.38841 6.22949 7.48305 6.21462C7.57768 6.19974 7.66841 6.16621 7.74997 6.11597Z" fill="#C8CDE2"/>
<path d="M10.0175 5.50007H10.025C10.1182 5.50341 10.2112 5.48808 10.2984 5.455C10.3856 5.42191 10.4653 5.37173 10.5328 5.3074C10.6004 5.24308 10.6544 5.1659 10.6917 5.08041C10.729 4.99492 10.7488 4.90283 10.75 4.80957V0.731567C10.75 0.532655 10.671 0.34189 10.5303 0.201237C10.3897 0.060585 10.1989 -0.0184326 10 -0.0184326C9.80109 -0.0184326 9.61032 0.060585 9.46967 0.201237C9.32902 0.34189 9.25 0.532655 9.25 0.731567V4.81007C9.25063 4.90258 9.26972 4.99403 9.30616 5.07907C9.34259 5.16411 9.39564 5.24101 9.46219 5.30528C9.52874 5.36954 9.60745 5.41988 9.6937 5.45332C9.77996 5.48677 9.87202 5.50267 9.9645 5.50007H10.0175Z" fill="#C8CDE2"/>
<path d="M5.51751 10V9.9645C5.5199 9.87208 5.50387 9.7801 5.47034 9.69394C5.43682 9.60777 5.38648 9.52914 5.32225 9.46264C5.25803 9.39613 5.1812 9.34308 5.09626 9.30657C5.01132 9.27006 4.91996 9.25083 4.82751 9.25H0.731506C0.532594 9.25 0.341829 9.32902 0.201176 9.46967C0.060524 9.61032 -0.0184937 9.80109 -0.0184937 10C-0.0184937 10.1989 0.060524 10.3897 0.201176 10.5303C0.341829 10.671 0.532594 10.75 0.731506 10.75H4.82751C4.92 10.7492 5.01142 10.7301 5.09642 10.6936C5.18142 10.6571 5.2583 10.6041 5.32258 10.5375C5.38686 10.471 5.43724 10.3924 5.4708 10.3062C5.50435 10.22 5.5204 10.128 5.51801 10.0355L5.51751 10Z" fill="#C8CDE2"/>
<path d="M12.264 6.10297C12.3455 6.15238 12.436 6.18518 12.5302 6.19949C12.6244 6.21379 12.7205 6.20931 12.813 6.1863C12.9055 6.1633 12.9925 6.12222 13.0691 6.06544C13.1456 6.00866 13.2102 5.9373 13.259 5.85547L15.2835 2.34997C15.3328 2.26461 15.3647 2.17038 15.3775 2.07268C15.3904 1.97497 15.3838 1.87569 15.3583 1.78051C15.3328 1.68533 15.2887 1.59611 15.2287 1.51795C15.1687 1.43979 15.0939 1.37421 15.0085 1.32497C14.8361 1.22551 14.6313 1.19861 14.4391 1.25018C14.2468 1.30175 14.083 1.42758 13.9835 1.59997L11.9585 5.10747C11.9117 5.19135 11.8821 5.28373 11.8714 5.3792C11.8607 5.47467 11.8692 5.57132 11.8963 5.66347C11.9235 5.75562 11.9688 5.84143 12.0295 5.91587C12.0902 5.99031 12.1652 6.05187 12.25 6.09697L12.264 6.10297Z" fill="#919BC6"/>
<path d="M12.264 13.8971L12.251 13.9046C12.1661 13.9497 12.0912 14.0112 12.0304 14.0857C11.9697 14.1601 11.9244 14.2459 11.8973 14.3381C11.8701 14.4302 11.8617 14.5269 11.8723 14.6223C11.883 14.7178 11.9126 14.8102 11.9595 14.8941L13.9845 18.4016C14.0839 18.574 14.2478 18.6998 14.44 18.7514C14.6322 18.8029 14.8371 18.776 15.0095 18.6766C15.1819 18.5771 15.3077 18.4133 15.3592 18.221C15.4108 18.0288 15.3839 17.824 15.2845 17.6516L13.26 14.1446C13.2111 14.0626 13.1465 13.9911 13.0699 13.9343C12.9933 13.8774 12.9061 13.8363 12.8135 13.8133C12.7209 13.7902 12.6247 13.7858 12.5304 13.8002C12.436 13.8146 12.3455 13.8475 12.264 13.8971V13.8971Z" fill="#24388D"/>
<path d="M6.10547 12.219C6.06174 12.1367 6.00201 12.0639 5.92979 12.005C5.85757 11.946 5.7743 11.9021 5.68488 11.8758C5.59546 11.8495 5.50168 11.8413 5.40906 11.8517C5.31643 11.8621 5.22681 11.891 5.14547 11.9365L1.59997 13.9845C1.42758 14.0839 1.30175 14.2478 1.25018 14.44C1.19861 14.6322 1.22551 14.8371 1.32497 15.0095C1.42442 15.1819 1.58829 15.3077 1.78051 15.3593C1.97274 15.4108 2.17758 15.3839 2.34997 15.2845L5.89647 13.237C5.976 13.1896 6.04535 13.127 6.1005 13.0526C6.15566 12.9783 6.19553 12.8938 6.2178 12.804C6.24008 12.7141 6.24431 12.6208 6.23026 12.5293C6.21622 12.4378 6.18417 12.35 6.13597 12.271C6.12447 12.253 6.11497 12.236 6.10547 12.219Z" fill="#C8CDE2"/>
<path d="M19.2685 9.25H15.236C15.1399 9.25103 15.045 9.27112 14.9567 9.3091C14.8684 9.34708 14.7885 9.40219 14.7217 9.47125C14.6549 9.54031 14.6024 9.62194 14.5674 9.71141C14.5323 9.80089 14.5154 9.89643 14.5175 9.9925V10.0075C14.5154 10.1036 14.5323 10.1991 14.5674 10.2886C14.6024 10.3781 14.6549 10.4597 14.7217 10.5287C14.7885 10.5978 14.8684 10.6529 14.9567 10.6909C15.045 10.7289 15.1399 10.749 15.236 10.75H19.2685C19.4674 10.75 19.6582 10.671 19.7988 10.5303C19.9395 10.3897 20.0185 10.1989 20.0185 10C20.0185 9.80109 19.9395 9.61032 19.7988 9.46967C19.6582 9.32902 19.4674 9.25 19.2685 9.25Z" fill="#5B6AA9"/>
<path d="M18.4 13.9846L14.9 11.9626C14.8164 11.9159 14.7244 11.8864 14.6293 11.8756C14.5342 11.8648 14.4379 11.8731 14.346 11.8999C14.2541 11.9267 14.1684 11.9715 14.094 12.0317C14.0196 12.0919 13.9579 12.1663 13.9125 12.2506L13.905 12.2636C13.8547 12.3452 13.8211 12.4359 13.8063 12.5306C13.7914 12.6252 13.7955 12.7219 13.8184 12.815C13.8412 12.9081 13.8823 12.9956 13.9394 13.0727C13.9964 13.1497 14.0681 13.2146 14.1505 13.2636L17.6505 15.2851C17.8229 15.3845 18.0277 15.4114 18.2199 15.3599C18.3151 15.3343 18.4043 15.2903 18.4825 15.2303C18.5607 15.1703 18.6262 15.0954 18.6755 15.0101C18.7247 14.9247 18.7567 14.8305 18.7695 14.7328C18.7824 14.6351 18.7758 14.5358 18.7503 14.4406C18.7247 14.3455 18.6807 14.2562 18.6207 14.1781C18.5607 14.0999 18.4859 14.0343 18.4005 13.9851L18.4 13.9846Z" fill="#5B6AA9"/>
<path d="M10.0175 14.5H9.9645C9.87202 14.4974 9.77996 14.5133 9.6937 14.5468C9.60745 14.5802 9.52874 14.6305 9.46219 14.6948C9.39564 14.7591 9.34259 14.836 9.30616 14.921C9.26972 15.0061 9.25063 15.0975 9.25 15.19V19.2685C9.25 19.4674 9.32902 19.6582 9.46967 19.7989C9.61032 19.9395 9.80109 20.0185 10 20.0185C10.1989 20.0185 10.3897 19.9395 10.5303 19.7989C10.671 19.6582 10.75 19.4674 10.75 19.2685V15.1905C10.7488 15.0973 10.729 15.0052 10.6917 14.9197C10.6544 14.8342 10.6004 14.757 10.5328 14.6927C10.4653 14.6284 10.3856 14.5782 10.2984 14.5451C10.2112 14.512 10.1182 14.4967 10.025 14.5H10.0175Z" fill="#24388D"/>
<path d="M7.73101 13.8731C7.65198 13.8241 7.564 13.7914 7.4722 13.7768C7.3804 13.7623 7.28661 13.7661 7.19632 13.7882C7.10602 13.8103 7.02103 13.8501 6.94629 13.9053C6.87155 13.9606 6.80856 14.0302 6.76101 14.1101L4.71651 17.6501C4.61705 17.8225 4.59015 18.0273 4.64172 18.2195C4.6933 18.4117 4.81912 18.5756 4.99151 18.6751C5.1639 18.7745 5.36874 18.8014 5.56096 18.7498C5.75319 18.6983 5.91705 18.5725 6.01651 18.4001L8.06001 14.8601C8.10536 14.779 8.13414 14.6898 8.14467 14.5976C8.15521 14.5053 8.14728 14.4119 8.12136 14.3227C8.09545 14.2336 8.05205 14.1505 7.9937 14.0783C7.93536 14.006 7.86322 13.9461 7.78151 13.9021L7.73101 13.8731Z" fill="#C8CDE2"/>
</g>
<defs>
<clipPath id="clip0">
<rect width="20" height="20" fill="white"/>
</clipPath>
</defs>
</svg>
