<svg width="16" height="16" viewBox="0 0 16 16" fill="none" xmlns="http://www.w3.org/2000/svg">
<g clip-path="url(#clip0)">
<mask id="mask0" mask-type="alpha" maskUnits="userSpaceOnUse" x="0" y="0" width="17" height="17">
<path fill-rule="evenodd" clip-rule="evenodd" d="M0.000366211 6.30999C0.000366211 2.82877 2.8996 0 6.46754 0C10.0355 0 12.9347 2.82877 12.9347 6.30999C12.9347 7.87734 12.3492 9.31129 11.3774 10.4161L15.7754 14.7175C16.0756 15.0112 16.0753 15.4945 15.7747 15.7878C15.4844 16.0711 15.0212 16.0714 14.7305 15.7884L10.248 11.4253C9.18398 12.1763 7.87926 12.62 6.46754 12.62C2.8996 12.62 0.000366211 9.79121 0.000366211 6.30999ZM6.45752 11.7756C9.54822 11.7756 12.0537 9.33187 12.0537 6.31737C12.0537 3.30287 9.54822 0.859136 6.45752 0.859136C3.36682 0.859136 0.861316 3.30287 0.861316 6.31737C0.861316 9.33187 3.36682 11.7756 6.45752 11.7756Z" fill="black"/>
</mask>
<g mask="url(#mask0)">
<rect width="16.0006" height="16.0006" fill="#0F0F0F"/>
</g>
</g>
<defs>
<clipPath id="clip0">
<rect width="16" height="16.0005" fill="white" transform="translate(0.000366211)"/>
</clipPath>
</defs>
</svg>
