<svg width="16" height="16" viewBox="0 0 16 16" fill="none" xmlns="http://www.w3.org/2000/svg">
<path d="M7.99999 4.66667C9.83999 4.66667 11.3333 6.16 11.3333 8C11.3333 8.43 11.2467 8.84 11.0967 9.21667L13.0467 11.1667C14.0533 10.3267 14.8467 9.24 15.3367 8C14.18 5.07333 11.3367 3 7.99999 3C7.06666 3 6.17332 3.16667 5.34332 3.46667L6.78332 4.90333C7.15999 4.75667 7.56999 4.66667 7.99999 4.66667V4.66667ZM1.33332 2.85L2.85332 4.37L3.15666 4.67333C2.05666 5.53333 1.18666 6.67667 0.666656 8C1.81999 10.9267 4.66666 13 7.99999 13C9.03332 13 10.02 12.8 10.9233 12.4367L11.2067 12.72L13.15 14.6667L14 13.82L2.18332 2L1.33332 2.85ZM5.01999 6.53333L6.04999 7.56333C6.01999 7.70667 5.99999 7.85 5.99999 8C5.99999 9.10333 6.89666 10 7.99999 10C8.14999 10 8.29332 9.98 8.43332 9.95L9.46332 10.98C9.01999 11.2 8.52666 11.3333 7.99999 11.3333C6.15999 11.3333 4.66666 9.84 4.66666 8C4.66666 7.47333 4.79999 6.98 5.01999 6.53333ZM7.88999 6.01L9.98999 8.11L9.99999 8C9.99999 6.89667 9.10332 6 7.99999 6L7.88999 6.01Z" fill="#FEFEFE"/>
</svg>
