<svg width="241" height="162" viewBox="0 0 241 162" fill="none" xmlns="http://www.w3.org/2000/svg">
<path d="M222.697 159.391V137.566H240.563V142.794H229.88V145.694H238.923V150.715H229.88V154.092H241V159.391H222.697Z" fill="#FEFEFE"/>
<path d="M201.045 159.391V137.566H218.911V142.794H208.219V145.694H217.254V150.715H208.219V154.092H219.344V159.391H201.045Z" fill="#FEFEFE"/>
<path d="M181.418 159.391V137.566H198.319V143.061H188.588V146.442H196.333V151.716H188.588V159.396H181.418V159.391Z" fill="#FEFEFE"/>
<path d="M161.774 159.391V137.566H178.68V143.061H168.957V146.442H176.689V151.716H168.957V159.396H161.774V159.391Z" fill="#FEFEFE"/>
<path d="M135.285 148.496C135.285 144.946 136.315 142.131 138.396 140.081C140.486 138.023 143.316 137 146.907 137C150.49 137 153.315 138.023 155.392 140.081C157.473 142.131 158.499 144.946 158.499 148.496C158.499 152.046 157.473 154.852 155.392 156.911C153.315 158.969 150.49 159.996 146.907 159.996C143.316 159.996 140.486 158.969 138.396 156.911C136.315 154.856 135.285 152.046 135.285 148.496ZM142.528 148.496C142.528 150.558 142.879 152.08 143.584 153.048C144.294 154.015 145.401 154.497 146.903 154.497C148.404 154.497 149.507 154.015 150.204 153.052C150.896 152.092 151.247 150.571 151.247 148.496C151.247 146.416 150.901 144.891 150.204 143.923C149.507 142.972 148.404 142.486 146.903 142.486C145.401 142.486 144.289 142.972 143.584 143.94C142.879 144.908 142.528 146.425 142.528 148.496Z" fill="#FEFEFE"/>
<path d="M126.428 150.935H133.221C133.026 153.808 131.988 156.048 130.11 157.629C128.232 159.21 125.71 160 122.508 160C118.925 160 116.117 158.986 114.062 156.936C112.002 154.882 110.976 152.071 110.976 148.5C110.976 144.95 112.002 142.135 114.031 140.085C116.056 138.027 118.834 137.004 122.339 137.004C125.575 137.004 128.12 137.765 129.98 139.287C131.836 140.817 132.879 143.002 133.1 145.842H126.22C126.121 144.722 125.748 143.876 125.104 143.302C124.476 142.74 123.568 142.461 122.421 142.461C121.024 142.461 119.963 142.964 119.258 143.961C118.553 144.963 118.211 146.48 118.211 148.504C118.211 150.495 118.592 152 119.332 153.014C120.085 154.032 121.184 154.544 122.624 154.544C123.745 154.544 124.619 154.235 125.277 153.601C125.93 152.98 126.32 152.093 126.428 150.935Z" fill="#FEFEFE"/>
<path d="M76.6685 159.391L84.5304 137.566H91.7953L99.653 159.391H92.5352L91.7045 156.501H84.591L83.7213 159.391H76.6685ZM85.8934 151.919H90.4021L88.1694 144.367L85.8934 151.919Z" fill="#FEFEFE"/>
<path d="M64.8995 159.391V151.311L56.6697 137.566H64.6269L68.4778 145.001L72.3634 137.566H80.0999L72.0691 151.311V159.391H64.8995Z" fill="#FEFEFE"/>
<path d="M46.1379 159.391V137.566H53.4547V159.391H46.1379Z" fill="#FEFEFE"/>
<path d="M21.6519 159.391V137.566H30.3316C32.5297 137.566 34.1739 137.659 35.247 137.85C36.3287 138.04 37.2677 138.369 38.0638 138.805C39.6128 139.696 40.7768 140.947 41.5513 142.553C42.3301 144.16 42.7196 146.142 42.7196 148.492C42.7196 150.964 42.2436 153.043 41.27 154.73C40.3138 156.412 38.8773 157.663 37.0037 158.483C36.2768 158.812 35.3638 159.036 34.2648 159.176C33.1658 159.32 31.409 159.387 28.9946 159.387H21.6519V159.391ZM28.8259 153.863H30.7686C32.5513 153.863 33.7845 153.474 34.4898 152.688C35.1821 151.911 35.5239 150.512 35.5239 148.492C35.5239 146.522 35.1691 145.132 34.4638 144.312C33.7585 143.492 32.5557 143.09 30.8595 143.09H28.8302V153.863H28.8259Z" fill="#FEFEFE"/>
<path d="M0 159.391V137.566H17.8571V142.794H7.18266V145.694H16.2043V150.715H7.18266V154.092H18.2985V159.391H0Z" fill="#FEFEFE"/>
<path d="M116.673 122.038L118.686 118.841L114.939 118.692L116.673 122.038Z" fill="#FEFEFE"/>
<path d="M121.573 122.023L123.321 118.685L119.582 118.841L121.573 122.023Z" fill="#FEFEFE"/>
<path d="M112.192 121.687L114.425 118.647L110.701 118.221L112.192 121.687Z" fill="#FEFEFE"/>
<path d="M126.032 121.665L127.53 118.199L123.813 118.647L126.032 121.665Z" fill="#FEFEFE"/>
<path d="M176.056 60.7241L179.2 58.6999L175.931 56.9148L176.056 60.7241Z" fill="#FEFEFE"/>
<path d="M175.887 56.4219L178.884 54.1662L175.476 52.635L175.887 56.4219Z" fill="#FEFEFE"/>
<path d="M175.042 60.8585C175.05 29.4956 150.052 4.13787 119.215 4.20509C88.3772 4.28725 63.3723 29.7719 63.3723 61.1423C63.365 92.5127 88.3625 117.878 119.207 117.803C150.037 117.721 175.042 92.2214 175.042 60.8585ZM168.497 48.9228C168.497 48.9228 168.24 49.8714 168.696 49.9984C168.997 50.088 169.313 50.1776 169.386 50.439C169.459 50.7079 169.291 50.9619 169.092 51.0142C168.857 51.0889 165.934 51.9105 165.934 51.9105C165.934 51.9105 165.485 52.0449 165.383 51.6266C165.28 51.2607 165.779 51.0216 165.779 51.0216C168.093 49.5726 167.638 47.3543 167.638 47.3543L168.483 47.1078C168.475 47.1153 168.696 47.907 168.497 48.9228ZM164.347 37.4353C164.347 37.4353 164.31 38.4137 164.788 38.4287C165.103 38.4436 165.434 38.4585 165.559 38.6976C165.698 38.9366 165.588 39.2279 165.412 39.3324C165.206 39.4519 162.554 40.9607 162.554 40.9607C162.554 40.9607 162.136 41.1923 161.945 40.8188C161.776 40.4827 162.195 40.1391 162.195 40.1391C164.112 38.1747 163.142 36.1282 163.142 36.1282L163.913 35.695C163.906 35.6875 164.303 36.4045 164.347 37.4353ZM159.102 28.0615L157.133 30.0035C157.133 30.0035 156.81 30.3919 156.568 30.25C156.23 30.0558 156.413 29.7122 156.413 29.7122C156.413 29.7122 156.671 28.9727 156.7 27.8897C156.722 26.8067 156.017 26.0075 156.017 26.0075L156.582 25.4398L159.102 28.0615ZM152.454 22.5642C152.454 22.5642 152.131 22.0937 152.454 21.78C152.836 21.4065 153.321 22.0264 153.321 22.0264L156.112 24.9394L147.797 33.1704L144.8 30.0334C144.646 29.8765 144.344 29.4657 144.697 29.1221C144.954 28.8756 145.402 29.1221 145.402 29.1221C145.858 29.3387 146.232 29.04 146.232 29.04L152.248 23.0796C152.586 22.751 152.454 22.5642 152.454 22.5642ZM154.224 40.4453L153.453 40.8785C153.453 40.8785 152.998 40.1466 152.968 39.1308C152.968 39.1308 152.983 38.4735 152.535 38.2868C152.248 38.1523 151.933 38.115 151.8 37.8685C151.653 37.622 151.771 37.3382 151.94 37.2411C152.16 37.1141 154.533 35.7547 154.533 35.7547C154.533 35.7547 154.856 35.5829 155.077 35.9639C155.268 36.3149 154.841 36.6809 154.841 36.6809C153.042 38.7648 154.224 40.4453 154.224 40.4453ZM150.801 36.2776L148.289 33.6484L148.862 33.0808C148.862 33.0808 149.619 33.8202 150.698 33.8277C151.771 33.8277 152.491 33.5961 152.491 33.5961C152.491 33.5961 152.836 33.4094 153.02 33.753C153.152 33.9995 152.763 34.3206 152.763 34.3206L150.801 36.2776ZM152.623 32.1919C152.469 32.3339 151.727 32.3637 152.212 31.4226C152.689 30.4815 152.395 29.6076 152.395 29.6076L152.939 29.0624C152.939 29.0624 153.784 29.3985 154.724 28.9279C155.657 28.4648 155.605 29.2267 155.458 29.3686L152.623 32.1919ZM144.815 15.9167L146.151 16.701C146.151 16.701 149.538 18.3442 147.731 21.5484C146.533 23.6697 144.77 23.4605 143.713 23.0796C143.713 23.0796 144.058 23.1842 144.036 23.9385L143.984 27.2698C143.94 27.7478 144.109 27.9196 144.109 27.9196C144.109 27.9196 144.381 28.1661 144.161 28.5769C143.889 29.04 143.118 28.5022 143.118 28.5022L140.87 27.1951C140.87 27.1951 140.157 26.8739 140.429 26.3959C140.62 26.0374 141.171 26.2166 141.171 26.2166C141.171 26.2166 141.553 26.2988 141.604 25.888C141.604 25.888 141.671 22.4074 141.678 22.1833C141.693 21.9742 141.472 21.8547 141.472 21.8547L141.898 21.0779C141.898 21.0779 142.75 21.5932 143.235 20.7193L144.756 18.0379C145.255 17.164 144.388 16.686 144.388 16.686L144.815 15.9167ZM139.827 13.5564C140.099 13.0859 140.738 13.534 140.738 13.534L144.22 15.5731L139.291 24.2971C139.291 24.2971 139.1 24.7377 139.423 25.1336C139.423 25.1336 139.775 25.522 139.599 25.8282C139.349 26.2689 138.894 26.0747 138.696 25.9552L134.699 23.6323C134.501 23.5203 134.104 23.2066 134.362 22.7734C134.53 22.4597 135.045 22.5792 135.045 22.5792C135.537 22.6613 135.816 22.2655 135.816 22.2655L140.003 14.8561C140.223 14.4602 140.054 14.3108 140.054 14.3108C140.054 14.3108 139.614 13.9523 139.827 13.5564ZM132.892 11.8311L133.127 10.9721L134.619 11.3829C134.619 11.3829 138.299 12.1224 137.337 15.6852C136.36 19.2479 132.826 17.9856 132.826 17.9856L131.335 17.5674L131.57 16.6935C131.57 16.6935 132.518 16.9997 132.775 16.0287L133.583 13.0336C133.84 12.0626 132.892 11.8311 132.892 11.8311ZM124.673 20.2563C124.761 19.8977 125.275 19.8903 125.275 19.8903C125.782 19.8455 125.951 19.4048 125.951 19.4048L128.184 11.1663C128.309 10.7182 128.11 10.6211 128.11 10.6211C128.11 10.6211 127.589 10.3821 127.714 9.94885C127.853 9.43348 128.588 9.71731 128.588 9.71731L132.459 10.7854L129.822 20.4803C129.822 20.4803 129.741 20.9584 130.152 21.2571C130.152 21.2571 130.586 21.541 130.49 21.8845C130.365 22.37 129.866 22.2953 129.653 22.2356L125.209 21.0032C125.003 20.9285 124.533 20.7343 124.673 20.2563ZM119.993 9.03015C119.993 9.03015 120.787 9.03015 121.697 9.50818C121.697 9.50818 122.513 10.031 122.77 9.61274C122.939 9.33639 123.115 9.05256 123.38 9.06003C123.666 9.06003 123.85 9.29904 123.842 9.51564C123.842 9.75466 123.813 12.8469 123.813 12.8469C123.813 12.8469 123.813 13.3249 123.372 13.31C122.998 13.3025 122.91 12.7498 122.91 12.7498C122.204 10.0758 119.979 9.93392 119.979 9.93392L119.993 9.03015ZM116.247 10.0086C116.982 9.35879 118.149 9.01521 119.317 9.00774L119.303 9.92645C118.678 9.92645 117.951 10.0758 117.525 10.3447C117.121 10.6136 116.93 10.9572 116.915 11.3904C116.915 11.7564 117.07 12.0029 117.371 12.1523C117.687 12.2942 118.076 12.4062 118.517 12.4809L119.905 12.7498C121.147 13.0187 122.035 13.4818 122.667 13.9897C123.505 14.6544 124.386 15.7524 124.371 16.9026C124.364 17.3657 124.32 17.8064 124.158 18.2247C123.842 19.0612 123.24 19.6886 122.483 20.1517C121.712 20.6073 120.706 20.8239 119.854 20.8164L119.861 19.8977C120.316 19.8679 120.691 19.7484 121.191 19.4496C121.734 19.1284 121.999 18.6952 122.021 18.1052C121.999 17.3358 121.411 16.813 120.214 16.5068L118.899 16.2005C118.399 16.1109 117.944 15.9764 117.554 15.8495C117.004 15.6852 116.533 15.4312 116.159 15.11C115.792 14.7963 115.512 14.4303 115.329 13.9971C115.145 13.5714 115.064 13.1083 115.072 12.6377C115.086 11.5771 115.476 10.7032 116.247 10.0086ZM119.193 19.9276L119.178 20.8239C119.178 20.8239 118.326 20.8613 117.452 20.3832C117.452 20.3832 116.893 20.0471 116.504 20.3384C116.254 20.5326 116.056 20.794 115.777 20.794C115.505 20.7866 115.314 20.555 115.321 20.3459C115.321 20.0994 115.351 17.3284 115.351 17.3284C115.351 17.3284 115.358 16.9549 115.792 16.9624C116.196 16.9624 116.291 17.5151 116.291 17.5151C117.18 20.1293 119.193 19.9276 119.193 19.9276ZM113.015 17.6719C113.294 17.6719 113.382 18.1798 113.382 18.1798L114.058 20.8687L110.561 21.78L110.363 20.9882C110.363 20.9882 111.377 20.6895 111.92 19.7484C112.457 18.8073 112.611 18.0529 112.611 18.0529C112.611 18.0529 112.625 17.657 113.015 17.6719ZM109.166 16.1706L108.982 15.4163C108.982 15.4163 109.687 14.8337 109.761 13.7805C109.834 12.7199 110.458 13.1531 110.51 13.3473L111.48 17.2462C111.531 17.4479 111.186 18.1201 110.627 17.2313C110.054 16.335 109.166 16.1706 109.166 16.1706ZM111.208 9.4783L111.884 12.1747C111.884 12.1747 112.045 12.6452 111.81 12.7871C111.465 12.9963 111.267 12.6527 111.267 12.6527C111.267 12.6527 110.774 12.0626 109.856 11.5099C108.953 10.9422 107.91 11.1738 107.91 11.1738L107.719 10.3821L111.208 9.4783ZM103.164 11.5697L107.05 10.5613L109.9 21.9816L105.735 23.0647C105.515 23.1169 105.023 23.1916 104.905 22.6987C104.81 22.3551 105.258 22.0787 105.258 22.0787C105.669 21.7874 105.603 21.3094 105.603 21.3094L103.539 13.0411C103.421 12.5929 103.201 12.6079 103.201 12.6079C103.201 12.6079 102.643 12.6602 102.532 12.2195C102.386 11.6966 103.164 11.5697 103.164 11.5697ZM90.1402 18.2097L98.4115 24.4539C98.4115 24.4539 98.7347 24.805 99.2122 24.678C99.2122 24.678 99.697 24.4987 99.91 24.79C100.204 25.1859 99.8366 25.5444 99.6603 25.6714L95.9874 28.4723C95.8111 28.6142 95.3924 28.8532 95.0912 28.4499C94.8782 28.1735 95.1794 27.7403 95.1794 27.7403C95.6421 27.2026 95.2087 26.9038 95.2087 26.9038L94.1142 26.0747L91.984 27.6955L91.433 26.9486L93.3356 25.4996L87.5178 21.0928L87.2754 20.3982L90.1402 18.2097ZM90.8307 30.2425L87.9144 22.1609L89.3983 23.2813L91.6754 29.5927C91.6754 29.5927 91.8517 30.0782 92.4761 29.8018C92.4761 29.8018 92.961 29.6375 93.174 29.9139C93.4605 30.3172 93.1079 30.6682 92.9316 30.8027L91.6093 31.8035C91.4404 31.9455 91.007 32.1919 90.7132 31.7886C90.5001 31.4973 90.8013 31.0716 90.8013 31.0716C91.0658 30.6384 90.8307 30.2425 90.8307 30.2425ZM82.2288 25.1859L82.9487 24.2896C82.9487 24.2896 83.3895 23.6323 83.8008 23.9908C84.1093 24.2448 83.9477 24.6556 83.9477 24.6556C83.9477 24.6556 83.8963 24.8274 84.102 25.2606L85.909 29.9512L84.697 29.6823L83.3748 26.1494C83.1838 25.7834 82.8532 26.0075 82.8532 26.0075C82.8532 26.0075 82.4051 26.3585 82.0966 26.0971C81.6779 25.7535 82.2288 25.1859 82.2288 25.1859ZM76.9987 31.6168L79.555 28.4798C79.555 28.4798 79.9884 27.83 80.3997 28.1735C80.7009 28.4275 80.4585 28.9503 80.4585 28.9503C80.4585 28.9503 80.3042 29.3238 80.7009 29.4358L86.9521 30.8027L89.0457 32.5579C89.0457 32.5579 89.435 32.8193 89.8684 32.5729C89.8684 32.5729 90.2945 32.2816 90.5736 32.5131C90.9556 32.8343 90.6911 33.26 90.5442 33.4243L87.6206 37.0245C87.481 37.2037 87.1211 37.5473 86.7465 37.2261C86.4747 37.0021 86.6657 36.5166 86.6657 36.5166C86.8346 36.0385 86.504 35.7099 86.504 35.7099L84.4032 33.9323L78.1593 32.5803C77.7185 32.4459 77.5496 32.5281 77.5496 32.5281C77.5496 32.5281 77.1823 32.7745 76.8811 32.5131C76.4551 32.1845 76.9987 31.6168 76.9987 31.6168ZM68.2058 56.2874L70.9458 56.2799C70.9458 56.2799 71.4379 56.2276 71.5187 56.504C71.6216 56.8924 71.2469 57.0044 71.2469 57.0044C71.2469 57.0044 70.5638 57.348 69.8072 58.1098C69.0506 58.8792 69.0065 59.9473 69.0065 59.9473H68.2132V56.2874H68.2058ZM71.7171 57.9156L75.6691 57.9007C75.8748 57.9007 76.4257 58.4086 75.434 58.7447C74.457 59.0808 74.0751 59.9174 74.0751 59.9174H73.3184C73.3184 59.9174 72.9365 59.0808 71.9448 58.7522C70.9531 58.431 71.5187 57.9156 71.7171 57.9156ZM79.79 64.9889C79.79 65.2279 79.7239 65.7209 79.2391 65.7284C78.8865 65.7284 78.7323 65.2279 78.7323 65.2279C78.556 64.7499 78.0785 64.7051 78.0785 64.7051L69.6823 64.7275C69.2269 64.7275 69.1901 64.9516 69.1901 64.9516C69.1901 64.9516 69.102 65.5118 68.6539 65.5192C68.1177 65.5192 68.1985 64.7275 68.1985 64.7275V60.6493L79.7827 60.6195L79.79 64.9889ZM79.8047 59.9248H78.9967C78.9967 59.9248 78.96 58.8493 78.2034 58.0949C77.4394 57.3405 76.7636 56.9969 76.7636 56.9969C76.7636 56.9969 76.389 56.8849 76.4918 56.4965C76.5726 56.2351 77.0648 56.2724 77.0648 56.2724H79.8047V59.9248ZM80.0545 54.4425C79.9957 54.6516 79.7974 55.1222 79.3199 54.9803C78.982 54.8832 78.9747 54.3529 78.9747 54.3529C78.9379 53.845 78.5045 53.6657 78.5045 53.6657L70.4463 51.3055C70.0055 51.1785 69.91 51.3727 69.91 51.3727C69.91 51.3727 69.6676 51.8955 69.2416 51.7685C68.7347 51.6192 69.0212 50.8797 69.0212 50.8797L70.1377 46.9584L81.2592 50.2299L80.0545 54.4425ZM81.4502 49.5801L80.6054 49.3336C80.6054 49.3336 80.9139 48.3776 79.9516 48.0863L72.3562 45.853C71.4086 45.5766 71.1661 46.5551 71.1661 46.5551L70.3214 46.3011C70.3214 46.3011 71.6289 41.0578 77.3733 42.7384C83.1103 44.4264 81.4502 49.5801 81.4502 49.5801ZM82.6696 44.2247C82.3611 44.0604 82.4639 43.545 82.4639 43.545C82.5373 43.0371 82.1407 42.7682 82.1407 42.7682L74.7729 38.6976C74.3762 38.481 74.2367 38.6602 74.2367 38.6602C74.2367 38.6602 73.8914 39.1158 73.5021 38.8918C73.0393 38.6303 73.4654 37.9805 73.4654 37.9805L75.3973 34.3879C75.3973 34.3879 75.6985 33.6484 76.1686 33.9098C76.5653 34.119 76.3669 34.6568 76.3669 34.6568C76.3669 34.6568 76.2935 34.8659 76.6975 35.09L84.0726 39.1681C84.0726 39.1681 84.506 39.3548 84.888 39.0187C84.888 39.0187 85.2553 38.6527 85.5638 38.8245C86.0045 39.0635 85.8209 39.5341 85.7034 39.7283L83.4996 43.8438C83.3968 44.0604 83.1103 44.4563 82.6696 44.2247ZM94.5109 103.455C92.1382 104.799 90.1843 103.35 90.1843 103.35L90.6764 102.663C90.6764 102.663 92.2851 103.724 94.0702 102.745C94.0702 102.745 94.555 102.439 94.768 102.857C94.9443 103.186 94.5109 103.455 94.5109 103.455ZM95.6789 94.5742C95.6789 94.5742 94.9296 93.9841 94.3787 94.7609L89.9419 100.96C89.3909 101.737 90.1622 102.282 90.1622 102.282L89.6701 102.969C89.6701 102.969 85.4683 100.086 88.8253 95.3958C92.1823 90.7201 96.1784 93.8795 96.1784 93.8795L95.6789 94.5742ZM96.8248 99.7204C96.5383 99.5113 96.7734 99.0332 96.7734 99.0332C97.6696 96.5535 96.2004 94.9476 96.2004 94.9476L96.6999 94.253C96.6999 94.253 97.3023 94.7086 97.7577 95.59C97.7577 95.59 98.1177 96.4489 98.5364 96.2697C98.8082 96.1576 99.102 96.0306 99.3077 96.1875C99.528 96.3444 99.5427 96.6357 99.4252 96.8C99.3003 96.9867 97.4272 99.6009 97.4272 99.6009C97.4272 99.6009 97.148 99.9743 96.8248 99.7204ZM100.358 108.9C100.358 108.9 95.6054 107.204 97.6843 101.804C99.7705 96.4116 104.398 98.4357 104.398 98.4357L104.09 99.2349C104.09 99.2349 103.223 98.8689 102.885 99.7577L100.13 106.891C99.7851 107.787 100.659 108.101 100.659 108.101L100.358 108.9ZM100.968 109.146L101.276 108.347C101.276 108.347 102.128 108.713 102.481 107.832L105.243 100.699C105.588 99.8026 104.714 99.4889 104.714 99.4889L105.015 98.6897C105.015 98.6897 109.768 100.385 107.689 105.785C105.603 111.163 100.968 109.146 100.968 109.146ZM112.758 112.142L108.409 111.537C108.196 111.499 107.733 111.38 107.807 110.909C107.851 110.558 108.343 110.483 108.343 110.483C108.798 110.379 108.916 109.938 108.916 109.938L110.04 101.879C110.106 101.438 109.893 101.371 109.893 101.371C109.893 101.371 109.386 101.214 109.43 100.788C109.511 100.273 110.231 100.452 110.231 100.452L114.029 100.99L112.692 110.468C112.692 110.468 112.677 110.932 113.103 111.156C113.103 111.156 113.544 111.38 113.5 111.716C113.441 112.186 112.963 112.179 112.758 112.142ZM116.071 104.717L115.542 108.512C115.512 108.706 114.969 109.176 114.785 108.175C114.609 107.19 113.889 106.712 113.889 106.712L113.984 105.98C113.984 105.98 114.815 105.733 115.263 104.822C115.703 103.926 116.1 104.516 116.071 104.717ZM117.701 104.187C117.701 104.187 117.672 104.672 117.422 104.71C117.048 104.762 116.989 104.381 116.989 104.381C116.989 104.381 116.768 103.687 116.151 102.85C115.542 102.013 114.565 101.849 114.565 101.849L114.668 101.072L118.069 101.55L117.701 104.187ZM124.981 112.216L120.603 112.672C120.397 112.694 119.92 112.687 119.876 112.216C119.832 111.873 120.294 111.678 120.294 111.678C120.728 111.462 120.72 110.999 120.72 110.999L119.92 102.91C119.876 102.469 119.663 102.454 119.663 102.454C119.663 102.454 119.119 102.424 119.082 101.998C119.031 101.483 119.78 101.483 119.78 101.483L123.585 101.08L124.518 110.603C124.518 110.603 124.614 111.051 125.077 111.171C125.077 111.171 125.569 111.268 125.598 111.611C125.657 112.074 125.194 112.179 124.981 112.216ZM126.024 107.862C125.62 106.943 124.797 106.659 124.797 106.659L124.731 105.927C124.731 105.927 125.473 105.479 125.686 104.493C125.899 103.515 126.435 104 126.45 104.194L126.832 108.004C126.854 108.198 126.435 108.78 126.024 107.862ZM127.758 103.851C127.412 103.993 127.266 103.649 127.266 103.649C127.266 103.649 126.884 103.022 126.098 102.364C125.312 101.707 124.313 101.774 124.313 101.774L124.239 100.998L127.655 100.639L127.912 103.283C127.912 103.283 128 103.754 127.758 103.851ZM132.834 110.775C132.635 110.842 132.173 110.954 132.011 110.498C131.893 110.185 132.29 109.886 132.29 109.886C132.657 109.565 132.547 109.124 132.547 109.124L129.837 101.476C129.69 101.057 129.484 101.102 129.484 101.102C129.484 101.102 128.955 101.207 128.815 100.803C128.647 100.318 129.366 100.131 129.366 100.131L132.959 98.8166L136.683 109.356L132.834 110.775ZM133.568 98.5702L136.793 97.3826L137.682 99.8773C137.682 99.8773 137.873 100.31 137.66 100.475C137.359 100.691 137.131 100.393 137.131 100.393C137.131 100.393 136.602 99.8773 135.691 99.4366C134.773 98.9959 133.818 99.3021 133.818 99.3021L133.568 98.5702ZM135.478 103.918L135.228 103.223C135.228 103.223 135.853 102.611 135.823 101.595C135.787 100.594 136.411 100.93 136.484 101.117L137.755 104.71C137.821 104.897 137.557 105.569 136.94 104.784C136.338 103.985 135.478 103.918 135.478 103.918ZM137.315 109.132L137.057 108.407C137.057 108.407 137.99 108.019 138.409 107.085C138.835 106.151 138.909 105.412 138.909 105.412C138.909 105.412 138.894 105.031 139.276 105.001C139.533 104.979 139.658 105.442 139.658 105.442L140.547 107.944L137.315 109.132ZM144.161 105.994C143.977 106.114 143.558 106.331 143.301 105.935C143.118 105.651 143.434 105.262 143.434 105.262C143.705 104.859 143.492 104.456 143.492 104.456L139.063 97.6963C138.828 97.3303 138.629 97.4124 138.629 97.4124C138.629 97.4124 138.145 97.6365 137.91 97.2855C137.623 96.8523 138.284 96.4937 138.284 96.4937L141.472 94.3426L147.569 103.679L144.161 105.994ZM144.903 96.3593C144.646 95.3958 145.336 95.5601 145.439 95.7244L147.518 98.9137C147.628 99.078 147.518 99.8026 146.746 99.1752C145.968 98.5552 145.108 98.6971 145.108 98.6971L144.712 98.0847C144.712 98.0772 145.16 97.3377 144.903 96.3593ZM146.438 94.8206C146.196 95.1119 145.909 94.8804 145.909 94.8804C145.909 94.8804 145.285 94.4995 144.293 94.2903C143.294 94.0887 142.435 94.619 142.435 94.619L142.008 93.9766L144.873 92.0347L146.313 94.253C146.313 94.2455 146.607 94.6115 146.438 94.8206ZM148.12 103.328L147.694 102.678C147.694 102.678 148.517 102.081 148.708 101.05C148.906 100.042 148.811 99.3171 148.811 99.3171C148.811 99.3171 148.708 98.9585 149.068 98.839C149.31 98.7569 149.53 99.1677 149.53 99.1677L150.985 101.379L148.12 103.328ZM119.2 97.4348C99.4105 97.4871 83.3821 81.2194 83.3821 61.09C83.3821 40.9682 99.4179 24.6108 119.2 24.5585C138.989 24.5137 155.025 40.7889 155.025 60.9108C155.032 81.0401 138.989 97.39 119.2 97.4348ZM153.784 41.4761L154.57 41.0205C154.827 41.4163 155.113 41.6777 155.62 41.969C156.142 42.2827 156.656 42.3126 157.163 42.0288C157.809 41.6329 157.963 40.8487 157.626 39.6387L157.236 38.3316C157.082 37.8386 156.957 37.383 156.876 36.9647C156.759 36.3971 156.729 35.8518 156.817 35.3738C156.891 34.8958 157.082 34.4626 157.354 34.0816C157.625 33.7082 157.971 33.4019 158.389 33.1779C159.308 32.6476 160.241 32.543 161.21 32.8716C162.143 33.2003 163.01 34.0667 163.59 35.075L162.797 35.5306C162.488 34.9854 162.004 34.4103 161.555 34.1787C161.129 33.9472 160.74 33.9547 160.365 34.1563C160.05 34.3431 159.91 34.6045 159.947 34.9406C159.976 35.2991 160.072 35.6875 160.226 36.1207L160.681 37.4726C161.071 38.705 161.115 39.7208 161.005 40.5424C160.843 41.5956 160.343 42.9326 159.366 43.5002C158.962 43.7318 158.566 43.911 158.125 43.9708C157.266 44.1127 156.428 43.9035 155.657 43.4629C154.886 43.0297 154.202 42.2379 153.784 41.4761ZM157.045 47.8248C157.045 47.8248 157.214 47.19 156.839 46.8912C156.59 46.697 156.281 46.585 156.215 46.3161C156.134 46.0472 156.311 45.8007 156.509 45.741C156.744 45.6663 159.366 44.9268 159.366 44.9268C159.366 44.9268 159.712 44.8223 159.837 45.2555C159.932 45.6439 159.433 45.8978 159.433 45.8978C157.221 47.4962 157.963 49.4083 157.963 49.4083L157.111 49.6548C157.111 49.6473 156.847 48.8257 157.045 47.8248ZM157.302 50.3121L158.169 50.0656C158.323 50.4988 158.544 50.8349 158.962 51.2382C159.403 51.6714 159.895 51.8134 160.454 51.664C161.173 51.4399 161.511 50.7079 161.46 49.4531L161.387 48.0937C161.335 47.5709 161.328 47.0854 161.35 46.6746C161.357 46.0771 161.467 45.5542 161.666 45.1061C161.849 44.6579 162.128 44.2845 162.481 43.9857C162.841 43.6869 163.252 43.4703 163.7 43.3583C164.699 43.0521 165.647 43.1865 166.499 43.7467C167.322 44.277 167.968 45.3227 168.299 46.458L167.432 46.7119C167.248 46.092 166.918 45.4347 166.536 45.0911C166.176 44.7774 165.794 44.6729 165.383 44.7924C165.037 44.8895 164.839 45.1135 164.788 45.4497C164.744 45.8007 164.744 46.204 164.788 46.6671L164.92 48.0863C165.008 49.3859 164.817 50.3793 164.516 51.1411C164.119 52.142 163.333 53.3147 162.239 53.6209C161.791 53.7404 161.372 53.83 160.931 53.7927C160.064 53.7105 159.293 53.3072 158.647 52.6873C158.015 52.0748 157.53 51.1486 157.302 50.3121ZM164.362 54.1437C170.334 54.0018 170.26 59.3871 170.26 59.3871L169.379 59.402C169.379 59.402 169.386 58.4086 168.394 58.431L160.49 58.6177C159.506 58.6402 159.543 59.6485 159.543 59.6485L158.661 59.6634C158.669 59.6634 158.382 54.2856 164.362 54.1437ZM158.691 60.3655L159.565 60.3506C159.565 60.3506 159.565 61.3514 160.549 61.3216L168.453 61.1348C169.445 61.1124 169.393 60.1116 169.393 60.1116L170.268 60.0966C170.268 60.0966 170.569 65.4669 164.589 65.6089C158.617 65.7508 158.691 60.3655 158.691 60.3655Z" fill="#FEFEFE"/>
<path d="M107.741 121L110.187 118.147L106.507 117.43L107.741 121Z" fill="#FEFEFE"/>
<path d="M130.454 120.985L131.695 117.415L128.015 118.124L130.454 120.985Z" fill="#FEFEFE"/>
<path d="M103.341 119.969L106 117.31L102.386 116.309L103.341 119.969Z" fill="#FEFEFE"/>
<path d="M134.817 119.954L135.787 116.302L132.172 117.295L134.817 119.954Z" fill="#FEFEFE"/>
<path d="M99.0727 118.61L101.915 116.167L98.3895 114.905L99.0727 118.61Z" fill="#FEFEFE"/>
<path d="M139.092 118.595L139.79 114.883L136.257 116.145L139.092 118.595Z" fill="#FEFEFE"/>
<path d="M94.9222 116.944L97.9267 114.718L94.5035 113.18L94.9222 116.944Z" fill="#FEFEFE"/>
<path d="M143.25 116.922L143.683 113.15L140.253 114.696L143.25 116.922Z" fill="#FEFEFE"/>
<path d="M90.8969 114.957L94.0629 112.971L90.7646 111.178L90.8969 114.957Z" fill="#FEFEFE"/>
<path d="M147.275 114.928L147.422 111.148L144.124 112.941L147.275 114.928Z" fill="#FEFEFE"/>
<path d="M87.0403 112.672L90.3312 110.924L87.1725 108.878L87.0403 112.672Z" fill="#FEFEFE"/>
<path d="M147.856 110.894L151.154 112.635L151.022 108.855L147.856 110.894Z" fill="#FEFEFE"/>
<path d="M154.82 106.002L158.346 107.219L157.662 103.507L154.82 106.002Z" fill="#FEFEFE"/>
<path d="M151.426 108.579L154.849 110.065L154.445 106.308L151.426 108.579Z" fill="#FEFEFE"/>
<path d="M77.557 100.497L76.6021 104.15L80.2015 103.193L77.557 100.497Z" fill="#FEFEFE"/>
<path d="M80.5613 103.537L79.8708 107.264L83.3895 106.024L80.5613 103.537Z" fill="#FEFEFE"/>
<path d="M83.3528 110.102L86.7685 108.609L83.7715 106.338L83.3528 110.102Z" fill="#FEFEFE"/>
<path d="M158.022 103.164L161.622 104.12L160.674 100.46L158.022 103.164Z" fill="#FEFEFE"/>
<path d="M74.8024 97.2481L73.5684 100.818L77.2339 100.139L74.8024 97.2481Z" fill="#FEFEFE"/>
<path d="M163.767 96.815L167.462 97.2183L165.992 93.7452L163.767 96.815Z" fill="#FEFEFE"/>
<path d="M161.005 100.086L164.663 100.781L163.451 97.2033L161.005 100.086Z" fill="#FEFEFE"/>
<path d="M72.268 93.79L70.7842 97.2706L74.4864 96.8598L72.268 93.79Z" fill="#FEFEFE"/>
<path d="M70.0129 90.16L68.2793 93.4987L71.9962 93.3792L70.0129 90.16Z" fill="#FEFEFE"/>
<path d="M166.272 93.3343L169.989 93.4538L168.284 90.1076L166.272 93.3343Z" fill="#FEFEFE"/>
<path d="M68.0148 86.3582L66.0461 89.5699L69.7704 89.7193L68.0148 86.3582Z" fill="#FEFEFE"/>
<path d="M168.519 89.6745L172.236 89.5176L170.282 86.3059L168.519 89.6745Z" fill="#FEFEFE"/>
<path d="M66.3109 82.4144L64.1218 85.4693L67.802 85.91L66.3109 82.4144Z" fill="#FEFEFE"/>
<path d="M170.495 85.8504L174.183 85.4172L171.994 82.3698L170.495 85.8504Z" fill="#FEFEFE"/>
<path d="M64.9004 78.3587L62.4763 81.2418L66.1345 81.9588L64.9004 78.3587Z" fill="#FEFEFE"/>
<path d="M172.185 81.9064L175.828 81.1894L173.426 78.2988L172.185 81.9064Z" fill="#FEFEFE"/>
<path d="M63.7985 74.2058L61.1687 76.8872L64.7608 77.8881L63.7985 74.2058Z" fill="#FEFEFE"/>
<path d="M173.573 77.8283L177.158 76.8349L174.55 74.1461L173.573 77.8283Z" fill="#FEFEFE"/>
<path d="M63.0051 69.9709L60.1917 72.4581L63.6809 73.7129L63.0051 69.9709Z" fill="#FEFEFE"/>
<path d="M174.675 73.6307L178.172 72.361L175.373 69.8812L174.675 73.6307Z" fill="#FEFEFE"/>
<path d="M62.5129 65.691L59.5232 67.9542L62.9316 69.4854L62.5129 65.691Z" fill="#FEFEFE"/>
<path d="M175.446 69.3658L178.855 67.8271L175.88 65.5715L175.446 69.3658Z" fill="#FEFEFE"/>
<path d="M62.3366 61.3888L59.2 63.4204L62.4762 65.1906L62.3366 61.3888Z" fill="#FEFEFE"/>
<path d="M175.909 65.0487L179.193 63.2636L176.056 61.2394L175.909 65.0487Z" fill="#FEFEFE"/>
<path d="M62.4835 57.0567L59.2073 58.8493L62.3366 60.8734L62.4835 57.0567Z" fill="#FEFEFE"/>
<path d="M62.9463 52.7546L59.5378 54.2858L62.5202 56.534L62.9463 52.7546Z" fill="#FEFEFE"/>
<path d="M63.7178 48.4822L60.2065 49.752L63.0273 52.2243L63.7178 48.4822Z" fill="#FEFEFE"/>
<path d="M175.417 52.1495L178.238 49.6623L174.726 48.3925L175.417 52.1495Z" fill="#FEFEFE"/>
<path d="M64.805 44.2695L61.2129 45.2779L63.828 47.9518L64.805 44.2695Z" fill="#FEFEFE"/>
<path d="M174.624 47.9144L177.254 45.233L173.669 44.2396L174.624 47.9144Z" fill="#FEFEFE"/>
<path d="M66.1857 40.2064L62.5349 40.9235L64.9517 43.7916L66.1857 40.2064Z" fill="#FEFEFE"/>
<path d="M173.529 43.7542L175.953 40.8785L172.31 40.1615L173.529 43.7542Z" fill="#FEFEFE"/>
<path d="M67.868 36.2552L64.1804 36.6884L66.3694 39.7358L67.868 36.2552Z" fill="#FEFEFE"/>
<path d="M172.133 39.691L174.33 36.6436L170.635 36.2104L172.133 39.691Z" fill="#FEFEFE"/>
<path d="M69.8368 32.4161L66.1199 32.5804L68.0812 35.7921L69.8368 32.4161Z" fill="#FEFEFE"/>
<path d="M170.429 35.7547L172.405 32.543L168.681 32.3862L170.429 35.7547Z" fill="#FEFEFE"/>
<path d="M119.149 30.3994C102.562 30.4367 89.0459 44.1949 89.0532 61.0751C89.0459 77.9479 102.555 91.6538 119.141 91.609C135.735 91.5716 149.237 77.7985 149.244 60.9258C149.244 44.053 135.743 30.3546 119.149 30.3994ZM119.2 89.6521C103.642 89.6969 91.0292 76.8948 91.0366 61.0677C91.0439 45.248 103.657 32.3862 119.215 32.3488C134.773 32.3115 147.386 45.1061 147.386 60.9258C147.378 76.7529 134.766 89.6147 119.2 89.6521Z" fill="#FEFEFE"/>
<path d="M72.077 28.7711L68.3674 28.6367L70.079 31.9903L72.077 28.7711Z" fill="#FEFEFE"/>
<path d="M168.446 31.953L170.179 28.5994L166.462 28.7189L168.446 31.953Z" fill="#FEFEFE"/>
<path d="M119.207 26.5304C100.483 26.5827 85.3215 42.0512 85.3215 61.0826C85.3215 80.1214 100.483 95.5153 119.2 95.463C137.917 95.4182 153.093 79.9496 153.101 60.9183C153.093 41.8794 137.924 26.4856 119.207 26.5304ZM119.149 93.9991C101.262 94.0439 86.7099 79.2699 86.7172 61.0826C86.7172 42.8952 101.262 28.0615 119.156 28.0167C137.043 27.9719 151.595 42.7309 151.595 60.9183C151.587 79.1056 137.036 93.9543 119.149 93.9991Z" fill="#FEFEFE"/>
<path d="M116.533 85.9921C115.601 84.9016 116.063 82.1754 113.977 82.1754C113.522 83.729 112.258 85.0884 112.677 86.7465C114.278 88.3524 117.004 88.2254 119.134 88.0536C120.559 86.6569 120.089 84.3415 119.788 82.6983C117.863 82.5414 118.076 85.1481 116.533 85.9921ZM114.322 86.1789C114.058 86.0743 113.896 85.9025 113.874 85.6112C114.029 84.9539 114.976 85.1556 114.932 85.7531C114.815 86.0295 114.594 86.1639 114.322 86.1789ZM118.355 86.7166C118.017 86.627 117.9 86.2834 118.01 85.9996C118.194 85.5066 119.053 85.7307 118.965 86.2909C118.803 86.4478 118.671 86.9855 118.355 86.7166Z" fill="#FEFEFE"/>
<path d="M139.004 69.1269C138.541 69.6497 138.46 70.2846 138.218 70.8747C138.989 71.8755 140.216 72.615 140.716 73.8324C138.953 74.3852 136.411 72.6448 135.53 75.0873C136.249 76.1777 137.821 76.6707 138.732 77.679C139.709 78.045 140.943 77.4848 141.436 76.4989C142.008 74.542 144.741 72.6971 143.176 70.7103L139.004 69.1269ZM139.79 76.0358C139.599 76.3271 139.349 76.7155 138.989 76.5437C138.46 76.2002 138.593 75.5877 139.041 75.4084C139.327 75.386 139.893 75.5578 139.79 76.0358ZM142.31 72.615C141.979 73.0183 141.715 72.6971 141.384 72.4805C141.112 72.1668 141.48 71.5917 141.906 71.6589C142.332 71.7336 142.368 72.3087 142.31 72.615Z" fill="#FEFEFE"/>
<path d="M134.391 76.2524C132.635 77.425 134.45 79.6583 134.604 80.9953C133.186 81.0177 131.982 79.4044 130.513 79.5986C130.153 79.8376 129.69 80.3679 129.866 80.8235C130.961 82.1605 130.821 85.2303 133.311 84.6104C134.957 83.2958 136.587 82.0186 137.88 80.2036C138.02 78.2915 135.934 77.3354 134.391 76.2524ZM132.702 83.236C132.378 83.1091 132.276 82.758 132.378 82.4816C132.562 81.9812 133.399 82.2576 133.304 82.8252C133.238 83.0418 132.988 83.2211 132.702 83.236ZM136.727 79.7778C136.587 80.1065 136.242 80.211 135.985 80.1139C135.64 79.8152 135.926 79.255 136.323 79.1653C136.477 79.3446 136.94 79.4417 136.727 79.7778Z" fill="#FEFEFE"/>
<path d="M125.965 85.4693L125.576 85.5589C124.452 84.3339 123.718 81.5928 121.499 82.5264C121.117 84.0725 121.198 85.9697 121.617 87.4112C123.659 89.3831 126.751 87.5083 129.124 86.866C131.79 85.1182 128.639 82.7654 128.301 80.7562C126.083 81.0774 126.582 83.8858 125.965 85.4693ZM123.571 86.3655C123.343 86.2983 122.865 86.5224 122.843 86.0369C122.792 85.5888 123.306 85.3124 123.673 85.4693C123.931 85.7157 123.85 86.1489 123.571 86.3655ZM128.566 85.2078C128.389 85.1556 128.272 85.3497 128.206 85.4468C127.861 85.5664 127.53 85.1406 127.67 84.8194C127.919 84.0202 128.904 84.5879 128.566 85.2078Z" fill="#FEFEFE"/>
<path d="M95.1207 69.1268C95.8627 68.1782 96.9866 67.6778 97.8166 66.9234C97.6917 66.1466 97.42 65.4146 97.4714 64.7051L94.0556 65.3997C93.4312 65.9524 93.1521 66.3931 92.9464 67.1475C93.8573 69.1194 94.276 71.39 95.466 73.1378C97.2143 74.0863 98.3822 72.1668 99.7853 71.6514C99.7779 68.6936 96.4209 70.4713 95.1207 69.1268ZM94.4817 66.8487C94.5919 66.169 95.5835 66.4006 95.4586 67.0131C95.3485 67.2969 95.1869 67.4537 94.9004 67.4687C94.6359 67.3641 94.5037 67.14 94.4817 66.8487ZM96.5164 71.6962L96.0904 71.4124L96.5458 70.6804C96.7809 70.8373 97.1041 70.9866 97.06 71.3601C97.038 71.629 96.7515 71.6439 96.5164 71.6962Z" fill="#FEFEFE"/>
<path d="M100.351 77.8359C100.086 77.7313 99.5576 77.933 99.6457 77.3653L101.166 74.2507C100.814 73.1228 99.8661 72.7046 98.992 73.6457C98.0884 74.4225 96.7001 74.8109 96.9939 76.2375C98.4117 77.9255 99.8441 79.9048 101.614 81.1447C103.216 80.7563 103.774 78.9338 104.891 77.8135C103.774 75.7669 101.783 77.8209 100.351 77.8359ZM99.3593 75.8117C99.3005 76.118 99.0507 76.0881 98.8083 76.1329C98.5512 75.9014 98.1913 75.3113 98.8083 75.1843C99.1609 75.0648 99.4915 75.498 99.3593 75.8117ZM102.489 79.0459C102.459 79.3073 102.129 79.2923 101.945 79.3745C101.695 79.2027 101.541 79.0384 101.526 78.7546C101.622 78.0599 102.841 78.3811 102.489 79.0459Z" fill="#FEFEFE"/>
<path d="M107.263 83.4975C106.8 82.4368 107.52 81.197 107.682 79.9944L105.728 78.7023L103.774 81.548C103.348 84.222 107.116 84.9763 108.791 86.3656L109.775 86.3208C111.854 85.9025 111.693 83.5273 112.523 82.0111C110.561 80.4426 109.078 83.1838 107.263 83.4975ZM105.177 82.1231C105.126 81.8767 105.405 81.4434 105.75 81.5331C106.014 81.6526 106.147 81.8692 106.169 82.153C105.934 82.4144 105.361 82.7879 105.177 82.1231ZM109.974 84.3191C109.849 84.5133 109.665 84.8046 109.43 84.6328C109.188 84.4834 109.033 84.3116 109.011 84.0278C109.276 83.5199 110.172 83.6991 109.974 84.3191Z" fill="#FEFEFE"/>
<path d="M98.5879 64.9591C100.513 65.3325 103.039 64.862 105.074 64.623L104.773 61.6129C102.709 61.1424 100.402 61.471 98.3602 61.5083L98.5879 64.9591Z" fill="#FEFEFE"/>
<path d="M140.473 59.7904C140.76 60.3954 140.378 60.8958 140.495 61.4485C141.663 62.1581 143.184 62.6062 144.007 63.5623C142.626 64.0254 141.362 64.6378 139.864 64.959C139.731 65.9076 139.041 66.8861 139.401 67.8122C140.995 68.1707 142.405 69.2388 144.139 68.9401C145.63 68.0736 145.586 66.2586 145.953 64.847C146.041 63.3158 146.041 61.5382 145.74 60.0966C144.491 58.2517 142.075 59.6036 140.473 59.7904ZM143.713 66.8636L143.441 67.3043C142.993 67.3566 142.435 66.8487 142.831 66.4304C142.993 65.9823 144.087 66.1615 143.713 66.8636ZM144.69 61.5456C144.557 62.0759 144.146 61.8668 143.845 61.807C143.492 61.5083 143.58 60.739 144.198 60.724C144.477 60.9107 144.859 61.1722 144.69 61.5456Z" fill="#FEFEFE"/>
<path d="M98.5439 59.9697C100.586 60.3506 102.547 59.9324 104.619 59.8577L104.575 56.87C102.812 56.4667 100.909 56.7879 99.1829 56.4219C98.7275 57.5572 98.2647 58.8269 98.5439 59.9697Z" fill="#FEFEFE"/>
<path d="M130.938 38.0925C131.144 38.9216 130.887 39.6461 130.63 40.3632C129.903 41.9466 130.674 43.1492 132.283 43.5898L134.868 39.8627C135.243 38.115 133.311 37.7415 132.261 36.8452C130.74 36.3821 129.315 35.0302 127.64 35.4335C126.112 36.3597 125.973 38.4735 125.356 40.0569C127.486 41.5956 129.014 38.466 130.938 38.0925ZM133.208 39.93C133.083 40.3333 132.841 40.1764 132.562 40.1914C132.29 40.0868 132.327 39.8254 132.239 39.6387C132.4 38.8544 133.7 39.3698 133.208 39.93ZM127.941 37.2859C128.044 36.5987 129.036 36.8303 128.911 37.4427C128.757 37.8983 128.419 38.0179 128.052 37.8461C128.066 37.6369 127.846 37.4353 127.941 37.2859Z" fill="#FEFEFE"/>
<path d="M133.568 44.4264C134.795 46.4132 136.94 44.1127 138.505 43.7766L138.842 43.9932C138.747 45.8456 135.412 47.7726 137.807 49.4308C139.158 48.2506 141.972 48.3851 141.928 46.0174C140.943 43.8588 139.078 42.35 137.373 40.6844C135.302 40.55 134.332 43.0222 133.568 44.4264ZM140.268 45.5468C140.598 45.7784 140.627 46.0622 140.525 46.4132C140.216 46.6896 139.577 46.7419 139.504 46.2265C139.423 45.8157 139.974 45.4945 140.268 45.5468ZM137.454 42.8803C137.351 43.1492 137.124 43.2837 136.852 43.2986C136.609 43.1417 136.352 42.9027 136.492 42.5816C136.587 42.2305 136.977 42.1484 137.197 42.223C137.256 42.4621 137.697 42.6114 137.454 42.8803Z" fill="#FEFEFE"/>
<path d="M138.666 51.6491C138.967 53.7031 141.502 52.2839 142.919 52.5976C142.611 54.2483 140.841 54.7936 140.011 56.1081C140.334 56.855 139.981 57.7364 140.554 58.3115L144.168 57.7364C146.842 56.0633 144.352 52.7769 144.256 50.5063C143.867 48.6763 141.722 48.7734 140.393 49.4681C139.673 49.976 137.822 50.1254 138.666 51.6491ZM143.404 55.8691C143.257 56.1903 142.964 56.5488 142.611 56.3696C142.56 56.1305 142.376 55.8766 142.354 55.7197C142.479 55.3986 142.824 55.2865 143.096 55.3836C143.346 55.4135 143.316 55.6749 143.404 55.8691ZM141.436 50.7901C141.649 50.5884 141.729 50.2299 142.053 50.3718C142.295 50.5212 142.449 50.7005 142.464 50.9918C142.317 51.4399 141.965 51.552 141.605 51.3876C141.414 51.2607 141.318 50.9843 141.436 50.7901Z" fill="#FEFEFE"/>
<path d="M111.289 37.1664C112.383 37.8984 113.11 39.183 114.146 40.0793C114.668 40.0121 115.02 39.7582 115.395 39.6013C115.086 37.7415 115.843 35.09 113.793 34.0742C111.237 34.5895 108.056 35.2468 106.8 37.8461C106.69 39.7059 108.027 40.9906 108.938 42.4246C112.229 42.2529 110.223 38.7274 111.289 37.1664ZM112.626 36.1356C112.868 35.5306 113.896 35.9414 113.522 36.5091C113.287 36.5688 113.169 36.763 112.883 36.778C112.442 36.6286 112.596 36.3896 112.626 36.1356ZM108.468 38.6154C108.453 38.3241 108.688 37.6593 109.055 37.9058C109.533 38.0179 109.408 38.4137 109.357 38.7274C109.041 38.7872 108.666 38.944 108.468 38.6154Z" fill="#FEFEFE"/>
<path d="M102.606 47.8024C104.773 46.6223 102.107 44.4488 102.32 42.6636C104.178 42.5964 106.264 45.3376 107.711 43.2686L105.353 39.3847C102.702 38.2419 101.012 41.7449 99.1903 43.433C99.1536 45.6065 101.086 46.5924 102.606 47.8024ZM104.78 41.3267C104.56 41.6703 104.281 41.6927 103.928 41.5956C103.759 41.5507 103.789 41.3043 103.759 41.1399C104.016 40.6246 104.802 40.6619 104.78 41.3267ZM100.571 44.1201C100.696 43.5151 101.71 43.7019 101.504 44.4562C101.262 44.5085 101.093 44.882 100.843 44.6504C100.704 44.5459 100.336 44.389 100.571 44.1201Z" fill="#FEFEFE"/>
<path d="M98.1912 55.1371C100.292 53.0158 96.6192 52.1121 96.4135 50.3269C98.2279 49.595 100.99 52.239 101.658 48.9825C100.263 47.9891 99.058 45.5392 96.9939 46.4505C95.6496 48.243 94.6359 50.4614 94.0482 52.5527C94.6285 54.3752 96.7882 54.4873 98.1912 55.1371ZM98.2867 47.9069C98.4777 48.243 98.4924 48.3327 98.4557 48.7136L97.6991 48.8256C97.4126 48.4298 97.8166 47.8098 98.2867 47.9069ZM95.4733 52.3137C95.7524 51.8731 96.5017 52.381 96.3401 52.7469C96.2299 53.0233 96.0095 53.1577 95.7304 53.1727C95.4072 52.9561 95.3778 52.6648 95.4733 52.3137Z" fill="#FEFEFE"/>
<path d="M96.2518 63.5474C97.0378 63.5848 97.3904 62.7184 97.2729 61.949C96.0021 60.7764 94.4595 60.6419 93.3062 59.8129C94.4154 58.8269 95.9874 58.5655 97.1848 57.7663C98.6833 55.7347 95.2896 55.9737 94.3787 55.0849C93.6368 55.0849 92.8728 55.5405 92.5496 56.3621C92.2778 58.5879 91.8591 60.9332 92.4174 63.2188C93.2915 64.6155 95.0618 63.7342 96.2518 63.5474ZM94.386 56.5414C94.6284 56.6982 94.7754 56.8775 94.7974 57.1613C94.5109 57.3107 94.3199 58.0128 93.9086 57.602C93.6588 57.1688 93.8645 56.5339 94.386 56.5414ZM94.0922 61.8519C94.3346 62.0088 94.8708 62.2254 94.4521 62.5764C94.342 62.9798 94.0922 62.8155 93.8424 62.7931C93.4898 62.4868 93.5706 61.8445 94.0922 61.8519Z" fill="#FEFEFE"/>
<path d="M123.159 41.6927C118.216 42.3649 114.271 44.8447 110.863 47.9518L111.098 48.1087C115.351 46.6522 119.56 47.0256 123.277 44.7998C123.394 43.7766 123.49 42.6786 123.159 41.6927Z" fill="#FEFEFE"/>
<path d="M116.423 68.0364C118.23 68.8878 122.902 70.2323 124.445 69.7244C124.445 69.7244 124.533 64.608 124.746 62.1955C127.67 62.0536 128.228 62.1581 131.012 61.5905C131.805 61.4934 132.275 60.9482 131.945 59.9249C130.211 56.1828 127.934 54.0317 125.121 52.0599C122.535 51.0441 123.468 48.4299 123.13 46.8315L121.294 47.3991L121.521 47.5635C122.623 48.1535 122.682 49.9685 122.542 51.0366C122.528 52.5379 120.184 52.7172 121.161 54.2483C120.985 54.6143 120.669 54.816 120.265 54.8235C116.798 52.5379 112.912 51.7611 109.364 49.9088C107.564 51.679 106.095 54.4873 105.801 56.9746C105.86 62.5914 106.374 68.9775 110.062 73.332C113.147 77.9031 118.855 81.1223 124.21 80.8758C124.599 76.2524 123.916 75.9014 124.474 71.3228C120.192 70.8448 118.348 70.7402 115.167 68.7907C114.932 68.4248 114.602 68.1409 115.057 67.7451C115.388 67.4239 116.107 67.9019 116.423 68.0364ZM118.737 63.525C118.436 63.6744 118.223 64.0105 117.944 63.8312C117.613 63.6819 117.275 63.3831 117.444 63.0096C117.819 62.4345 119.296 62.6586 118.737 63.525ZM119.67 61.71C119.376 61.8519 119.156 62.1955 118.877 62.0013C118.561 61.8669 118.216 61.5681 118.385 61.1946C118.752 60.612 120.236 60.8361 119.67 61.71ZM119.031 59.7979C119.009 59.5141 119.229 58.9614 119.692 59.0659C119.935 59.2228 120.25 59.3647 120.206 59.7456C119.971 60.2236 119.259 60.5075 119.031 59.7979ZM120.14 58.0576C120.052 58.4012 119.707 58.5281 119.442 58.4161C119.09 58.3265 119.097 57.7812 119.178 57.5572C119.45 56.9148 120.515 57.475 120.14 58.0576ZM119.325 55.8617C119.641 56.2052 119.523 56.8177 119.06 57.0044L118.348 56.5264C118.377 56.0708 118.869 55.5106 119.325 55.8617ZM117.459 54.9728C117.547 54.6218 117.885 54.5098 118.157 54.6218C118.51 54.7114 118.524 55.2044 118.451 55.4285C118.37 55.787 117.826 55.772 117.613 55.6973C117.555 55.4583 117.099 55.2193 117.459 54.9728ZM117.158 63.9956C117.503 64.0927 117.621 64.4437 117.51 64.7126C117.342 65.2877 116.879 65.1906 116.482 65.0562C116.203 64.5333 116.614 63.9134 117.158 63.9956ZM116.269 53.9944C116.702 54.1512 116.886 54.5994 116.769 55.0027C116.526 55.4733 115.77 55.182 115.645 54.7562C115.468 54.2931 116.078 54.2707 116.269 53.9944ZM109.482 56.8028C109.834 56.7654 110.356 57.109 110.128 57.5796C110.04 57.9306 109.68 57.7588 109.379 57.9157C108.953 57.6244 108.894 56.9671 109.482 56.8028ZM108.394 58.6999C108.901 57.7962 109.952 59.1033 108.989 59.5738C108.688 59.2975 107.976 59.2527 108.394 58.6999ZM107.91 60.7166C107.998 59.9548 109.129 60.0817 109.026 60.7764C108.938 61.1274 108.571 61.1648 108.328 61.3515C108.093 61.1872 107.932 61.0079 107.91 60.7166ZM108.666 63.3383C108.314 63.2486 108.306 62.7557 108.409 62.4943L108.828 62.1432L109.43 62.681C109.349 63.1142 109.151 63.3308 108.666 63.3383ZM109.606 64.9367C108.997 64.7275 109.269 64.2943 109.379 63.8163C109.746 63.5698 110.312 63.9507 110.282 64.4138C110.121 64.6528 109.988 64.974 109.606 64.9367ZM110.606 56.5115C110.341 56.4741 110.37 56.2277 110.297 56.0335C110.473 55.1148 111.656 55.4882 111.311 56.1455C111.215 56.504 110.87 56.6235 110.606 56.5115ZM112.067 65.9375C111.825 65.9823 111.715 66.1765 111.414 66.1243C110.987 66.0421 110.965 65.5491 111.024 65.2429C111.443 64.481 112.582 65.2429 112.067 65.9375ZM111.972 55.6301C111.781 55.5032 111.847 55.2044 111.759 55.0102C111.891 54.2782 113.456 54.4799 112.817 55.3687C112.728 55.7123 112.192 55.7123 111.972 55.6301ZM113.985 65.8927C113.83 66.1392 113.742 66.4902 113.36 66.4529C113.074 66.2512 112.897 65.9973 112.861 65.6388C113.052 64.7275 114.374 65.1831 113.985 65.8927ZM114.205 53.9346C114.624 54.0019 114.807 54.2558 114.859 54.7039C114.741 55.1073 114.359 55.055 114.065 55.2119C113.463 54.8907 113.713 54.1662 114.205 53.9346ZM114.594 65.467C114.815 64.5781 115.968 64.9964 115.74 65.6761C115.645 65.945 115.468 66.1093 115.189 66.1317C114.903 65.945 114.55 65.8554 114.594 65.467Z" fill="#FEFEFE"/>
<path d="M112.942 80.5247C115.02 81.279 117.217 81.4284 119.398 81.4956C117.239 81.294 115.241 78.7321 112.942 80.5247Z" fill="#FEFEFE"/>
<path d="M125.591 78.4185C125.606 78.7396 125.62 79.0758 125.635 79.4119C126.281 79.5538 126.906 79.733 127.515 79.7853C128.647 79.2849 129.697 78.6575 130.674 77.918C128.992 77.7313 126.891 76.9993 125.591 78.4185Z" fill="#FEFEFE"/>
<path d="M113.757 78.9339C112.486 76.1703 109.614 77.9255 107.616 77.9778L108.953 78.8592C110.312 80.5173 112.009 79.2252 113.757 78.9339Z" fill="#FEFEFE"/>
<path d="M133.745 74.9602C131.431 74.7137 126.994 74.3627 125.767 74.9303C125.701 74.9602 125.635 74.9976 125.576 75.0424C125.561 75.5802 125.554 76.1329 125.561 76.708C127.273 76.7603 129.932 77.1636 132.018 76.7976C132.635 76.2225 133.201 75.6026 133.745 74.9602Z" fill="#FEFEFE"/>
<path d="M110.716 76.3869C110.385 73.0034 106.264 74.8184 104.031 75.1395C105.559 78.1347 108.453 76.1329 110.716 76.3869Z" fill="#FEFEFE"/>
<path d="M136.448 70.8372L125.752 70.5684C125.701 71.5319 125.657 72.4655 125.628 73.429C128.735 73.5411 132.716 73.5859 134.714 73.6905C135.361 72.7867 135.934 71.8306 136.448 70.8372Z" fill="#FEFEFE"/>
<path d="M103.106 73.8324C104.979 73.5635 106.911 73.5934 108.446 73.1004L106.845 70.5311L100.909 70.9493C101.607 71.9577 101.871 73.2349 103.106 73.8324Z" fill="#FEFEFE"/>
<path d="M138.255 66.3185C135.037 66.0421 128.595 66.1467 125.885 66.0421C125.877 67.2222 125.848 68.3202 125.804 69.3733L137.043 69.5899C137.52 68.5219 137.924 67.4239 138.255 66.3185Z" fill="#FEFEFE"/>
<path d="M100.564 69.6946L106.308 69.3585C105.853 68.3651 105.794 66.8862 105.001 66.0272C103.01 66.2961 100.696 66.0048 98.9183 66.6845C99.6015 67.6181 99.7117 69.1269 100.564 69.6946Z" fill="#FEFEFE"/>
<path d="M138.968 63.3009L139.048 61.3664C137.638 61.344 135.537 61.2992 133.377 61.2842C133.267 61.7921 132.981 62.2104 132.459 62.3224C129.528 63.6295 128.948 63.0395 125.848 63.3457C125.863 63.7939 125.877 64.2271 125.877 64.6528C128.713 64.847 135.339 65.0785 138.608 64.974C138.747 64.4138 138.865 63.8611 138.968 63.3009Z" fill="#FEFEFE"/>
<path d="M139.195 58.2966C139.18 57.6393 139.114 57.0194 139.034 56.4069C137.425 56.5115 134.442 56.5264 131.666 56.5488C132.239 57.3928 132.76 58.3116 133.23 59.3274C133.289 59.5365 133.348 59.7606 133.392 60.007C135.537 60.0519 137.667 60.0444 139.114 59.9921L139.195 58.2966Z" fill="#FEFEFE"/>
<path d="M99.6016 55.2343L104.832 55.3911C105.177 54.3156 105.676 53.1205 105.963 52.1495L101.724 51.6939C100.88 52.7172 99.9688 53.8301 99.6016 55.2343Z" fill="#FEFEFE"/>
<path d="M127.126 51.9777C128.456 52.9338 129.646 54.0019 130.689 55.2492L138.813 55.1297C138.534 53.8749 138.115 52.6948 137.572 51.5818L127.126 51.9777Z" fill="#FEFEFE"/>
<path d="M111.546 49.4382L115.814 51.2159C115.424 50.1403 115.836 49.1768 116.548 48.2656L111.546 49.4382Z" fill="#FEFEFE"/>
<path d="M117.04 50.0357C116.849 51.074 117.591 51.7014 118.465 52.1346C119.45 52.3811 120.544 52.1346 121.058 51.0291C121.455 49.7818 120.735 48.273 119.435 48.3029C118.179 47.8249 117.599 49.1544 117.04 50.0357Z" fill="#FEFEFE"/>
<path d="M102.474 50.5437L106.962 50.82C107.484 49.7893 108.27 49.0722 108.953 48.2133C107.623 47.8921 106.183 47.9071 104.817 47.6232C104.024 48.5345 102.701 49.4532 102.474 50.5437Z" fill="#FEFEFE"/>
<path d="M124.474 47.9219C124.349 48.9825 124.276 50.0133 125.187 50.693L136.94 50.4241C136.33 49.3859 135.603 48.4074 134.795 47.5261C133.326 47.7203 127.824 47.78 124.474 47.9219Z" fill="#FEFEFE"/>
<path d="M106.044 46.4207C108.424 46.6223 110.958 47.19 112.596 44.8297C111.164 44.643 109.842 44.1874 108.409 44.1949L106.044 46.4207Z" fill="#FEFEFE"/>
<path d="M124.592 44.7551C124.548 45.0389 124.504 45.3227 124.438 45.5991C124.577 45.98 124.599 46.3759 124.585 46.7867C126.7 46.936 132.018 46.4655 133.612 46.331C132.738 45.5169 131.783 44.7775 130.777 44.1202C129.396 44.2098 126.715 44.5086 124.592 44.7551Z" fill="#FEFEFE"/>
<path d="M110.473 43.1044C112.486 43.1193 114.682 44.2248 116.394 42.3874C114.477 41.6853 112.126 41.5732 110.473 43.1044Z" fill="#FEFEFE"/>
<path d="M128.867 42.9998C128.022 42.5516 127.156 42.1632 126.274 41.8197C125.745 41.7674 125.194 41.7972 124.658 41.8794C124.665 42.3276 124.687 42.7832 124.68 43.2537C126.002 43.56 127.471 43.0521 128.867 42.9998Z" fill="#FEFEFE"/>
<path d="M121.551 40.6395C119.714 40.6545 117.466 40.1466 116.071 40.8711L118.245 41.4761L121.551 40.6395Z" fill="#FEFEFE"/>
<path d="M120.669 35.6651L121.257 35.4933C121.294 36.2776 121.962 37.1291 121.646 37.9507C121.382 39.6312 123.012 39.6014 124.011 39.6387C124.239 37.7938 126.524 35.7996 124.812 34.0518C122.498 33.3497 120.104 33.0808 117.599 33.4169C115.887 34.8361 116.475 37.2859 116.879 39.4072C119.075 39.7582 119.296 36.6735 120.669 35.6651ZM122.623 35.9116C122.895 35.4784 123.806 35.5232 123.784 36.1954C123.63 36.4344 123.461 36.6062 123.174 36.6212C122.895 36.427 122.572 36.3 122.623 35.9116ZM119.171 35.2842C118.943 35.6278 118.671 35.6427 118.326 35.5531C118.157 35.5008 118.179 35.2543 118.142 35.09C118.216 34.246 119.229 34.7763 119.171 35.2842Z" fill="#FEFEFE"/>
<path d="M166.183 28.3155L167.682 24.8423L163.965 25.2457L166.183 28.3155Z" fill="#FEFEFE"/>
<path d="M155.135 11.9804L151.705 13.4668L154.695 15.7523L155.135 11.9804Z" fill="#FEFEFE"/>
<path d="M157.905 18.5458L158.61 14.8337L155.084 16.0586L157.905 18.5458Z" fill="#FEFEFE"/>
<path d="M160.909 21.5933L161.879 17.9409L158.272 18.8894L160.909 21.5933Z" fill="#FEFEFE"/>
<path d="M163.656 24.8498L164.898 21.2721L161.232 21.9593L163.656 24.8498Z" fill="#FEFEFE"/>
<path d="M80.3189 18.9193L76.7122 17.9708L77.6671 21.6232L80.3189 18.9193Z" fill="#FEFEFE"/>
<path d="M77.3293 21.9965L73.6711 21.3094L74.8905 24.8871L77.3293 21.9965Z" fill="#FEFEFE"/>
<path d="M74.5821 25.2756L70.8872 24.8723L72.3564 28.3529L74.5821 25.2756Z" fill="#FEFEFE"/>
<path d="M86.9009 13.4968L83.4851 12.0104L83.9038 15.7749L86.9009 13.4968Z" fill="#FEFEFE"/>
<path d="M83.5071 16.0812L79.9885 14.8712L80.6717 18.5833L83.5071 16.0812Z" fill="#FEFEFE"/>
<path d="M90.4782 11.1738L87.1726 9.42603L87.3048 13.2129L90.4782 11.1738Z" fill="#FEFEFE"/>
<path d="M151.44 9.41107L148.142 11.1439L151.294 13.1905L151.44 9.41107Z" fill="#FEFEFE"/>
<path d="M91.0439 7.1405L90.897 10.9124L94.1952 9.12729L91.0439 7.1405Z" fill="#FEFEFE"/>
<path d="M147.591 7.1181L144.425 9.10489L147.716 10.8975L147.591 7.1181Z" fill="#FEFEFE"/>
<path d="M95.0693 5.13873L94.6359 8.90318L98.081 7.3496L95.0693 5.13873Z" fill="#FEFEFE"/>
<path d="M143.581 5.11646L140.561 7.34973L143.985 8.8809L143.581 5.11646Z" fill="#FEFEFE"/>
<path d="M99.2269 3.45074L98.5291 7.17784L102.062 5.89315L99.2269 3.45074Z" fill="#FEFEFE"/>
<path d="M139.423 3.43585L136.58 5.88573L140.106 7.16295L139.423 3.43585Z" fill="#FEFEFE"/>
<path d="M103.495 2.09882L102.533 5.74375L106.147 4.74289L103.495 2.09882Z" fill="#FEFEFE"/>
<path d="M135.155 2.08392L132.496 4.73547L136.102 5.72886L135.155 2.08392Z" fill="#FEFEFE"/>
<path d="M107.858 1.06812L106.624 4.63836L110.297 3.90639L107.858 1.06812Z" fill="#FEFEFE"/>
<path d="M130.762 1.04565L128.309 3.89886L131.989 4.62337L130.762 1.04565Z" fill="#FEFEFE"/>
<path d="M112.28 0.365967L110.789 3.83165L114.513 3.39097L112.28 0.365967Z" fill="#FEFEFE"/>
<path d="M126.311 0.343567L124.078 3.39097L127.794 3.81672L126.311 0.343567Z" fill="#FEFEFE"/>
<path d="M121.83 0L119.824 3.18932L123.556 3.33123L121.83 0Z" fill="#FEFEFE"/>
<path d="M116.746 0L114.991 3.3387L118.744 3.18932L116.746 0Z" fill="#FEFEFE"/>
</svg>
