 <svg xmlns="http://www.w3.org/2000/svg" width="150" height="152" viewBox="0 0 150 152" fill="none">
  <style>
    .brand{
      fill: #31287C;
    }

    @media (prefers-color-scheme: dark){
      .brand{
        fill: #fff;
      }
    }
  </style>
  <path d="M71.8413 151.287L74.3573 147.324L69.6743 147.139L71.8413 151.287Z" class="brand"/>
  <path d="M77.9659 151.269L80.1512 147.13L75.4775 147.324L77.9659 151.269Z" class="brand"/>
  <path d="M66.2402 150.852L69.0315 147.083L64.3762 146.556L66.2402 150.852Z" class="brand"/>
  <path d="M83.5394 150.824L85.4126 146.528L80.7664 147.083L83.5394 150.824Z" class="brand"/>
  <path d="M146.07 75.2778L150 72.7685L145.914 70.5556L146.07 75.2778Z" class="brand"/>
  <path d="M145.859 69.9444L149.605 67.1481L145.345 65.25L145.859 69.9444Z" class="brand"/>
  <path d="M144.803 75.4445C144.812 36.5648 113.565 5.12966 75.0184 5.21299C36.4716 5.31485 5.21549 36.9074 5.21549 75.7963C5.2063 114.685 36.4532 146.13 75.0092 146.037C113.547 145.935 144.803 114.324 144.803 75.4445ZM136.622 60.6482C136.622 60.6482 136.3 61.8241 136.87 61.9815C137.246 62.0926 137.641 62.2037 137.733 62.5278C137.824 62.8611 137.613 63.176 137.365 63.2408C137.072 63.3334 133.417 64.3519 133.417 64.3519C133.417 64.3519 132.857 64.5186 132.728 64C132.6 63.5463 133.224 63.25 133.224 63.25C136.117 61.4537 135.547 58.7037 135.547 58.7037L136.603 58.3982C136.594 58.4074 136.87 59.3889 136.622 60.6482ZM131.434 46.4074C131.434 46.4074 131.388 47.6204 131.985 47.6389C132.379 47.6574 132.793 47.676 132.949 47.9723C133.123 48.2686 132.985 48.6297 132.765 48.7593C132.508 48.9074 129.193 50.7778 129.193 50.7778C129.193 50.7778 128.67 51.0648 128.431 50.6019C128.22 50.1852 128.743 49.7593 128.743 49.7593C131.14 47.3241 129.928 44.7871 129.928 44.7871L130.892 44.25C130.883 44.2408 131.379 45.1297 131.434 46.4074ZM124.878 34.7871L122.417 37.1945C122.417 37.1945 122.013 37.676 121.71 37.5C121.287 37.2593 121.517 36.8334 121.517 36.8334C121.517 36.8334 121.838 35.9167 121.875 34.5741C121.903 33.2315 121.021 32.2408 121.021 32.2408L121.728 31.5371L124.878 34.7871ZM116.568 27.9723C116.568 27.9723 116.164 27.3889 116.568 27C117.045 26.5371 117.651 27.3056 117.651 27.3056L121.14 30.9167L110.746 41.1204L107 37.2315C106.807 37.0371 106.431 36.5278 106.871 36.1019C107.193 35.7963 107.753 36.1019 107.753 36.1019C108.322 36.3704 108.79 36 108.79 36L116.311 28.6111C116.733 28.2037 116.568 27.9723 116.568 27.9723ZM118.781 50.1389L117.816 50.676C117.816 50.676 117.247 49.7685 117.21 48.5093C117.21 48.5093 117.229 47.6945 116.669 47.463C116.311 47.2963 115.916 47.25 115.751 46.9445C115.567 46.6389 115.714 46.2871 115.925 46.1667C116.2 46.0093 119.166 44.3241 119.166 44.3241C119.166 44.3241 119.57 44.1111 119.846 44.5834C120.085 45.0186 119.552 45.4723 119.552 45.4723C117.302 48.0556 118.781 50.1389 118.781 50.1389ZM114.502 44.9723L111.361 41.713L112.078 41.0093C112.078 41.0093 113.023 41.926 114.373 41.9352C115.714 41.9352 116.614 41.6482 116.614 41.6482C116.614 41.6482 117.045 41.4167 117.275 41.8426C117.44 42.1482 116.953 42.5463 116.953 42.5463L114.502 44.9723ZM116.779 39.9074C116.586 40.0834 115.659 40.1204 116.265 38.9537C116.862 37.7871 116.494 36.7037 116.494 36.7037L117.174 36.0278C117.174 36.0278 118.23 36.4445 119.405 35.8611C120.571 35.2871 120.507 36.2315 120.323 36.4074L116.779 39.9074ZM107.018 19.7315L108.689 20.7037C108.689 20.7037 112.922 22.7408 110.664 26.713C109.167 29.3426 106.963 29.0834 105.641 28.6111C105.641 28.6111 106.072 28.7408 106.045 29.676L105.981 33.8056C105.926 34.3982 106.137 34.6111 106.137 34.6111C106.137 34.6111 106.477 34.9167 106.201 35.426C105.861 36 104.897 35.3334 104.897 35.3334L102.087 33.713C102.087 33.713 101.197 33.3148 101.537 32.7223C101.775 32.2778 102.464 32.5 102.464 32.5C102.464 32.5 102.941 32.6019 103.006 32.0926C103.006 32.0926 103.088 27.7778 103.097 27.5C103.116 27.2408 102.84 27.0926 102.84 27.0926L103.373 26.1297C103.373 26.1297 104.438 26.7685 105.044 25.6852L106.945 22.3611C107.569 21.2778 106.486 20.6852 106.486 20.6852L107.018 19.7315ZM100.784 16.8056C101.123 16.2223 101.922 16.7778 101.922 16.7778L106.275 19.3056L100.113 30.1204C100.113 30.1204 99.8745 30.6667 100.279 31.1574C100.279 31.1574 100.719 31.6389 100.499 32.0186C100.187 32.5648 99.6174 32.3241 99.3695 32.176L94.3744 29.2963C94.1265 29.1574 93.6307 28.7685 93.952 28.2315C94.1632 27.8426 94.806 27.9908 94.806 27.9908C95.4212 28.0926 95.7701 27.6019 95.7701 27.6019L101.004 18.4167C101.279 17.926 101.068 17.7408 101.068 17.7408C101.068 17.7408 100.517 17.2963 100.784 16.8056ZM92.1156 14.6667L92.4094 13.6019L94.2734 14.1111C94.2734 14.1111 98.8737 15.0278 97.6708 19.4445C96.4496 23.8611 92.033 22.2963 92.033 22.2963L90.169 21.7778L90.4628 20.6945C90.4628 20.6945 91.6473 21.0741 91.9687 19.8704L92.9787 16.1574C93.3001 14.9537 92.1156 14.6667 92.1156 14.6667ZM81.8407 25.1111C81.9509 24.6667 82.5937 24.6574 82.5937 24.6574C83.2272 24.6019 83.4384 24.0556 83.4384 24.0556L86.2298 13.8426C86.3859 13.2871 86.138 13.1667 86.138 13.1667C86.138 13.1667 85.4861 12.8704 85.6422 12.3334C85.8166 11.6945 86.7348 12.0463 86.7348 12.0463L91.5738 13.3704L88.2774 25.3889C88.2774 25.3889 88.1764 25.9815 88.6906 26.3519C88.6906 26.3519 89.2324 26.7037 89.113 27.1297C88.9569 27.7315 88.3325 27.6389 88.0663 27.5648L82.511 26.0371C82.2539 25.9445 81.6663 25.7037 81.8407 25.1111ZM75.9917 11.1945C75.9917 11.1945 76.9834 11.1945 78.122 11.7871C78.122 11.7871 79.1412 12.4352 79.4626 11.9167C79.6737 11.5741 79.8941 11.2223 80.2247 11.2315C80.5828 11.2315 80.8123 11.5278 80.8032 11.7963C80.8032 12.0926 80.7664 15.926 80.7664 15.926C80.7664 15.926 80.7664 16.5185 80.2155 16.5C79.7472 16.4908 79.637 15.8056 79.637 15.8056C78.7555 12.4908 75.9733 12.3148 75.9733 12.3148L75.9917 11.1945ZM71.3088 12.4074C72.227 11.6019 73.687 11.176 75.1469 11.1667L75.1286 12.3056C74.3481 12.3056 73.439 12.4908 72.9065 12.8241C72.4015 13.1574 72.1627 13.5834 72.1444 14.1204C72.1444 14.5741 72.3372 14.8797 72.7137 15.0648C73.1085 15.2408 73.5951 15.3797 74.1461 15.4723L75.8815 15.8056C77.4333 16.1389 78.5443 16.713 79.334 17.3426C80.3808 18.1667 81.4826 19.5278 81.4643 20.9537C81.4551 21.5278 81.4 22.0741 81.198 22.5926C80.8032 23.6297 80.0502 24.4074 79.1045 24.9815C78.1403 25.5463 76.8824 25.8148 75.8172 25.8056L75.8264 24.6667C76.3957 24.6297 76.864 24.4815 77.4884 24.1111C78.1679 23.713 78.4984 23.176 78.526 22.4445C78.4984 21.4908 77.7638 20.8426 76.2672 20.463L74.6235 20.0834C73.9992 19.9723 73.4299 19.8056 72.9432 19.6482C72.2545 19.4445 71.6669 19.1297 71.1986 18.7315C70.7395 18.3426 70.3906 17.8889 70.161 17.3519C69.9315 16.8241 69.8305 16.25 69.8396 15.6667C69.858 14.3519 70.3447 13.2685 71.3088 12.4074ZM74.9908 24.7037L74.9725 25.8148C74.9725 25.8148 73.9073 25.8611 72.8147 25.2686C72.8147 25.2686 72.1168 24.8519 71.6302 25.213C71.318 25.4537 71.07 25.7778 70.7211 25.7778C70.3814 25.7686 70.1426 25.4815 70.1518 25.2223C70.1518 24.9167 70.1886 21.4815 70.1886 21.4815C70.1886 21.4815 70.1977 21.0185 70.7395 21.0278C71.2445 21.0278 71.3639 21.713 71.3639 21.713C72.4749 24.9537 74.9908 24.7037 74.9908 24.7037ZM67.2686 21.9074C67.6175 21.9074 67.7277 22.5371 67.7277 22.5371L68.5725 25.8704L64.2018 27L63.9539 26.0186C63.9539 26.0186 65.221 25.6482 65.9005 24.4815C66.5708 23.3148 66.7636 22.3797 66.7636 22.3797C66.7636 22.3797 66.782 21.8889 67.2686 21.9074ZM62.4572 20.0463L62.2276 19.1111C62.2276 19.1111 63.1091 18.3889 63.2009 17.0834C63.2927 15.7686 64.0732 16.3056 64.1375 16.5463L65.3495 21.3797C65.4138 21.6297 64.9823 22.463 64.2844 21.3611C63.5682 20.25 62.4572 20.0463 62.4572 20.0463ZM65.0098 11.75L65.8546 15.0926C65.8546 15.0926 66.0566 15.676 65.7628 15.8519C65.3312 16.1111 65.0833 15.6852 65.0833 15.6852C65.0833 15.6852 64.4681 14.9537 63.3203 14.2685C62.1909 13.5648 60.887 13.8519 60.887 13.8519L60.6483 12.8704L65.0098 11.75ZM54.9553 14.3426L59.8127 13.0926L63.3754 27.25L58.1691 28.5926C57.8936 28.6574 57.2784 28.75 57.1315 28.1389C57.0121 27.713 57.5723 27.3704 57.5723 27.3704C58.0865 27.0093 58.0038 26.4167 58.0038 26.4167L55.4236 16.1667C55.2767 15.6111 55.0012 15.6297 55.0012 15.6297C55.0012 15.6297 54.3034 15.6945 54.1657 15.1482C53.982 14.5 54.9553 14.3426 54.9553 14.3426ZM38.6753 22.5741L49.0145 30.3148C49.0145 30.3148 49.4185 30.75 50.0153 30.5926C50.0153 30.5926 50.6213 30.3704 50.8876 30.7315C51.2549 31.2223 50.7958 31.6667 50.5754 31.8241L45.9843 35.2963C45.764 35.4723 45.2406 35.7685 44.8641 35.2685C44.5978 34.926 44.9743 34.3889 44.9743 34.3889C45.5528 33.7223 45.011 33.3519 45.011 33.3519L43.6429 32.3241L40.9801 34.3334L40.2914 33.4074L42.6696 31.6111L35.3973 26.1482L35.0943 25.2871L38.6753 22.5741ZM39.5385 37.4908L35.8931 27.4723L37.7479 28.8611L40.5944 36.6852C40.5944 36.6852 40.8148 37.2871 41.5953 36.9445C41.5953 36.9445 42.2013 36.7408 42.4676 37.0834C42.8257 37.5834 42.3849 38.0186 42.1646 38.1852L40.5118 39.426C40.3006 39.6019 39.7588 39.9074 39.3915 39.4074C39.1253 39.0463 39.5017 38.5185 39.5017 38.5185C39.8323 37.9815 39.5385 37.4908 39.5385 37.4908ZM28.7861 31.2223L29.686 30.1111C29.686 30.1111 30.2369 29.2963 30.7511 29.7408C31.1368 30.0556 30.9348 30.5648 30.9348 30.5648C30.9348 30.5648 30.8705 30.7778 31.1276 31.3148L33.3864 37.1297L31.8713 36.7963L30.2185 32.4167C29.9798 31.963 29.5666 32.2408 29.5666 32.2408C29.5666 32.2408 29.0065 32.676 28.6209 32.3519C28.0975 31.926 28.7861 31.2223 28.7861 31.2223ZM22.2484 39.1945L25.4438 35.3056C25.4438 35.3056 25.9856 34.5 26.4998 34.926C26.8762 35.2408 26.5732 35.8889 26.5732 35.8889C26.5732 35.8889 26.3804 36.3519 26.8762 36.4908L34.6903 38.1852L37.3072 40.3611C37.3072 40.3611 37.7938 40.6852 38.3356 40.3797C38.3356 40.3797 38.8682 40.0185 39.2171 40.3056C39.6946 40.7037 39.364 41.2315 39.1804 41.4352L35.5258 45.8982C35.3514 46.1204 34.9015 46.5463 34.4332 46.1482C34.0934 45.8704 34.3322 45.2685 34.3322 45.2685C34.5434 44.676 34.1302 44.2686 34.1302 44.2686L31.5041 42.0648L23.6992 40.3889C23.1483 40.2223 22.9371 40.3241 22.9371 40.3241C22.9371 40.3241 22.478 40.6297 22.1015 40.3056C21.5689 39.8982 22.2484 39.1945 22.2484 39.1945ZM11.2574 69.7778L14.6823 69.7685C14.6823 69.7685 15.2975 69.7037 15.3985 70.0463C15.5271 70.5278 15.0588 70.6667 15.0588 70.6667C15.0588 70.6667 14.2048 71.0926 13.2591 72.0371C12.3133 72.9908 12.2582 74.3148 12.2582 74.3148H11.2665V69.7778H11.2574ZM15.6464 71.7963L20.5864 71.7778C20.8435 71.7778 21.5322 72.4074 20.2926 72.8241C19.0714 73.2408 18.5939 74.2778 18.5939 74.2778H17.6482C17.6482 74.2778 17.1707 73.2408 15.9311 72.8334C14.6915 72.4352 15.3985 71.7963 15.6464 71.7963ZM25.7376 80.5648C25.7376 80.8611 25.655 81.4723 25.049 81.4815C24.6082 81.4815 24.4154 80.8611 24.4154 80.8611C24.195 80.2685 23.5982 80.213 23.5982 80.213L13.103 80.2408C12.5337 80.2408 12.4878 80.5185 12.4878 80.5185C12.4878 80.5185 12.3776 81.213 11.8175 81.2223C11.1472 81.2223 11.2482 80.2408 11.2482 80.2408V75.1852L25.7285 75.1482L25.7376 80.5648ZM25.756 74.2871H24.746C24.746 74.2871 24.7001 72.9537 23.7543 72.0185C22.7994 71.0834 21.9546 70.6574 21.9546 70.6574C21.9546 70.6574 21.4863 70.5185 21.6149 70.0371C21.7159 69.713 22.3311 69.7593 22.3311 69.7593H25.756V74.2871ZM26.0682 67.4908C25.9947 67.75 25.7468 68.3334 25.15 68.1574C24.7276 68.0371 24.7184 67.3797 24.7184 67.3797C24.6725 66.75 24.1308 66.5278 24.1308 66.5278L14.0579 63.6019C13.507 63.4445 13.3876 63.6852 13.3876 63.6852C13.3876 63.6852 13.0846 64.3334 12.552 64.176C11.9185 63.9908 12.2766 63.0741 12.2766 63.0741L13.6723 58.213L27.5741 62.2686L26.0682 67.4908ZM27.8128 61.463L26.7569 61.1574C26.7569 61.1574 27.1425 59.9723 25.9397 59.6111L16.4453 56.8426C15.2608 56.5 14.9578 57.713 14.9578 57.713L13.9018 57.3982C13.9018 57.3982 15.5363 50.8982 22.7167 52.9815C29.888 55.0741 27.8128 61.463 27.8128 61.463ZM29.3371 54.8241C28.9514 54.6204 29.08 53.9815 29.08 53.9815C29.1718 53.3519 28.6759 53.0185 28.6759 53.0185L19.4662 47.9723C18.9704 47.7037 18.7959 47.926 18.7959 47.926C18.7959 47.926 18.3644 48.4908 17.8777 48.213C17.2992 47.8889 17.8318 47.0834 17.8318 47.0834L20.2467 42.6297C20.2467 42.6297 20.6232 41.713 21.2108 42.0371C21.7067 42.2963 21.4588 42.963 21.4588 42.963C21.4588 42.963 21.3669 43.2223 21.872 43.5L31.0909 48.5556C31.0909 48.5556 31.6326 48.7871 32.1101 48.3704C32.1101 48.3704 32.5692 47.9167 32.9548 48.1297C33.5058 48.426 33.2762 49.0093 33.1293 49.25L30.3746 54.3519C30.2461 54.6204 29.888 55.1111 29.3371 54.8241ZM44.1387 128.25C41.1729 129.917 38.7304 128.12 38.7304 128.12L39.3456 127.269C39.3456 127.269 41.3565 128.583 43.5878 127.37C43.5878 127.37 44.1938 126.991 44.4601 127.509C44.6805 127.917 44.1387 128.25 44.1387 128.25ZM45.5987 117.241C45.5987 117.241 44.6621 116.509 43.9734 117.472L38.4274 125.157C37.7388 126.12 38.7029 126.796 38.7029 126.796L38.0877 127.648C38.0877 127.648 32.8355 124.074 37.0317 118.259C41.228 112.463 46.2231 116.38 46.2231 116.38L45.5987 117.241ZM47.0311 123.62C46.673 123.361 46.9668 122.769 46.9668 122.769C48.0871 119.694 46.2506 117.704 46.2506 117.704L46.875 116.843C46.875 116.843 47.628 117.407 48.1973 118.5C48.1973 118.5 48.6472 119.565 49.1706 119.343C49.5103 119.204 49.8776 119.046 50.1347 119.241C50.4102 119.435 50.4285 119.796 50.2816 120C50.1255 120.232 47.7841 123.472 47.7841 123.472C47.7841 123.472 47.4351 123.935 47.0311 123.62ZM51.4477 135C51.4477 135 45.5069 132.898 48.1054 126.204C50.7132 119.519 56.4979 122.028 56.4979 122.028L56.1123 123.019C56.1123 123.019 55.0288 122.565 54.6064 123.667L51.1631 132.509C50.7315 133.62 51.8242 134.009 51.8242 134.009L51.4477 135ZM52.2099 135.306L52.5955 134.315C52.5955 134.315 53.6606 134.769 54.1014 133.676L57.5539 124.833C57.9855 123.722 56.8928 123.333 56.8928 123.333L57.2692 122.343C57.2692 122.343 63.2101 124.444 60.6116 131.139C58.0038 137.806 52.2099 135.306 52.2099 135.306ZM66.9473 139.019L61.5114 138.269C61.2451 138.222 60.6666 138.074 60.7585 137.491C60.8136 137.056 61.4288 136.963 61.4288 136.963C61.9981 136.833 62.145 136.287 62.145 136.287L63.5498 126.296C63.6325 125.75 63.3662 125.667 63.3662 125.667C63.3662 125.667 62.7326 125.472 62.7877 124.944C62.8887 124.306 63.7886 124.528 63.7886 124.528L68.5358 125.194L66.8646 136.944C66.8646 136.944 66.8462 137.519 67.3788 137.796C67.3788 137.796 67.9297 138.074 67.8746 138.491C67.8012 139.074 67.2044 139.065 66.9473 139.019ZM71.0884 129.815L70.4273 134.519C70.3906 134.759 69.7111 135.343 69.4815 134.102C69.2612 132.88 68.3613 132.287 68.3613 132.287L68.4807 131.38C68.4807 131.38 69.5183 131.074 70.0784 129.944C70.6293 128.833 71.1251 129.565 71.0884 129.815ZM73.1269 129.157C73.1269 129.157 73.0901 129.759 72.7779 129.806C72.3096 129.87 72.2362 129.398 72.2362 129.398C72.2362 129.398 71.9607 128.537 71.1894 127.5C70.4273 126.463 69.2061 126.259 69.2061 126.259L69.3346 125.296L73.586 125.889L73.1269 129.157ZM82.2264 139.111L76.7538 139.676C76.4967 139.704 75.8999 139.694 75.8448 139.111C75.7897 138.685 76.3682 138.444 76.3682 138.444C76.9099 138.176 76.9007 137.602 76.9007 137.602L75.8999 127.574C75.8448 127.028 75.5785 127.009 75.5785 127.009C75.5785 127.009 74.899 126.972 74.8531 126.444C74.7888 125.806 75.7254 125.806 75.7254 125.806L80.4818 125.306L81.6479 137.111C81.6479 137.111 81.7673 137.667 82.3458 137.815C82.3458 137.815 82.961 137.935 82.9977 138.361C83.0712 138.935 82.4927 139.065 82.2264 139.111ZM83.5303 133.713C83.0252 132.574 81.9968 132.222 81.9968 132.222L81.9142 131.315C81.9142 131.315 82.8416 130.759 83.1079 129.537C83.3742 128.324 84.0445 128.926 84.0628 129.167L84.5403 133.889C84.5678 134.13 84.0445 134.852 83.5303 133.713ZM85.6973 128.741C85.2657 128.917 85.082 128.491 85.082 128.491C85.082 128.491 84.6046 127.713 83.6221 126.898C82.6396 126.083 81.3908 126.167 81.3908 126.167L81.299 125.204L85.5687 124.759L85.8901 128.037C85.8901 128.037 86.0003 128.62 85.6973 128.741ZM92.0421 137.324C91.7942 137.407 91.2157 137.546 91.0137 136.982C90.8668 136.593 91.3627 136.222 91.3627 136.222C91.8218 135.824 91.684 135.278 91.684 135.278L88.2958 125.796C88.1122 125.278 87.8551 125.333 87.8551 125.333C87.8551 125.333 87.1939 125.463 87.0195 124.963C86.8083 124.361 87.7081 124.13 87.7081 124.13L92.1982 122.5L96.8536 135.565L92.0421 137.324ZM92.9604 122.194L96.9913 120.722L98.1024 123.815C98.1024 123.815 98.3411 124.352 98.0748 124.556C97.6983 124.824 97.4137 124.454 97.4137 124.454C97.4137 124.454 96.7526 123.815 95.614 123.269C94.4662 122.722 93.2725 123.102 93.2725 123.102L92.9604 122.194ZM95.3477 128.824L95.0355 127.963C95.0355 127.963 95.816 127.204 95.7793 125.944C95.7334 124.704 96.5139 125.12 96.6057 125.352L98.1942 129.806C98.2768 130.037 97.9463 130.87 97.175 129.898C96.422 128.907 95.3477 128.824 95.3477 128.824ZM97.6433 135.287L97.3219 134.389C97.3219 134.389 98.488 133.907 99.0114 132.75C99.544 131.593 99.6358 130.676 99.6358 130.676C99.6358 130.676 99.6174 130.204 100.095 130.167C100.416 130.139 100.572 130.713 100.572 130.713L101.683 133.815L97.6433 135.287ZM106.201 131.398C105.971 131.546 105.448 131.815 105.127 131.324C104.897 130.972 105.292 130.491 105.292 130.491C105.632 129.991 105.365 129.491 105.365 129.491L99.8286 121.111C99.5348 120.657 99.2869 120.759 99.2869 120.759C99.2869 120.759 98.6808 121.037 98.387 120.602C98.0289 120.065 98.8553 119.62 98.8553 119.62L102.84 116.954L110.462 128.528L106.201 131.398ZM107.128 119.454C106.807 118.259 107.67 118.463 107.799 118.667L110.397 122.62C110.535 122.824 110.397 123.722 109.433 122.944C108.46 122.176 107.386 122.352 107.386 122.352L106.89 121.593C106.89 121.583 107.45 120.667 107.128 119.454ZM109.048 117.546C108.745 117.907 108.386 117.62 108.386 117.62C108.386 117.62 107.606 117.148 106.366 116.889C105.118 116.639 104.043 117.296 104.043 117.296L103.511 116.5L107.092 114.093L108.891 116.843C108.891 116.833 109.259 117.287 109.048 117.546ZM111.15 128.093L110.618 127.287C110.618 127.287 111.646 126.546 111.885 125.269C112.133 124.019 112.013 123.12 112.013 123.12C112.013 123.12 111.885 122.676 112.335 122.528C112.638 122.426 112.913 122.935 112.913 122.935L114.731 125.676L111.15 128.093ZM75 120.787C50.2632 120.852 30.2277 100.685 30.2277 75.7315C30.2277 50.7871 50.2724 30.5093 75 30.4445C99.7368 30.3889 119.781 50.5648 119.781 75.5093C119.791 100.463 99.7368 120.732 75 120.787ZM118.23 51.4167L119.212 50.8519C119.534 51.3426 119.892 51.6667 120.525 52.0278C121.177 52.4167 121.82 52.4537 122.453 52.1019C123.262 51.6111 123.454 50.6389 123.032 49.1389L122.545 47.5186C122.353 46.9074 122.196 46.3426 122.095 45.8241C121.948 45.1204 121.912 44.4445 122.022 43.8519C122.114 43.2593 122.352 42.7223 122.692 42.25C123.032 41.7871 123.464 41.4074 123.987 41.1297C125.135 40.4723 126.301 40.3426 127.513 40.75C128.679 41.1574 129.763 42.2315 130.488 43.4815L129.496 44.0463C129.111 43.3704 128.505 42.6574 127.944 42.3704C127.412 42.0834 126.925 42.0926 126.457 42.3426C126.062 42.5741 125.888 42.8982 125.934 43.3148C125.97 43.7593 126.09 44.2408 126.282 44.7778L126.852 46.4537C127.338 47.9815 127.394 49.2408 127.256 50.2593C127.054 51.5648 126.429 53.2223 125.208 53.926C124.703 54.213 124.207 54.4352 123.656 54.5093C122.582 54.6852 121.535 54.426 120.571 53.8797C119.607 53.3426 118.753 52.3611 118.23 51.4167ZM122.307 59.2871C122.307 59.2871 122.518 58.5 122.049 58.1297C121.737 57.8889 121.352 57.75 121.269 57.4167C121.168 57.0834 121.388 56.7778 121.636 56.7037C121.93 56.6111 125.208 55.6945 125.208 55.6945C125.208 55.6945 125.64 55.5648 125.796 56.1019C125.915 56.5834 125.291 56.8982 125.291 56.8982C122.527 58.8797 123.454 61.25 123.454 61.25L122.389 61.5556C122.389 61.5463 122.059 60.5278 122.307 59.2871ZM122.628 62.3704L123.711 62.0648C123.904 62.6019 124.18 63.0185 124.703 63.5185C125.254 64.0556 125.869 64.2315 126.567 64.0463C127.467 63.7685 127.889 62.8611 127.825 61.3056L127.733 59.6204C127.669 58.9723 127.66 58.3704 127.687 57.8611C127.697 57.1204 127.834 56.4723 128.082 55.9167C128.312 55.3611 128.661 54.8982 129.101 54.5278C129.551 54.1574 130.066 53.8889 130.626 53.75C131.874 53.3704 133.059 53.5371 134.124 54.2315C135.152 54.8889 135.96 56.1852 136.374 57.5926L135.29 57.9074C135.061 57.1389 134.647 56.3241 134.17 55.8982C133.72 55.5093 133.243 55.3797 132.728 55.5278C132.297 55.6482 132.049 55.926 131.985 56.3426C131.93 56.7778 131.93 57.2778 131.985 57.8519L132.15 59.6111C132.26 61.2223 132.021 62.4537 131.645 63.3982C131.149 64.6389 130.167 66.0926 128.798 66.4723C128.238 66.6204 127.715 66.7315 127.164 66.6852C126.08 66.5834 125.116 66.0834 124.308 65.3148C123.519 64.5556 122.913 63.4074 122.628 62.3704ZM131.452 67.1204C138.917 66.9445 138.825 73.6204 138.825 73.6204L137.723 73.6389C137.723 73.6389 137.733 72.4074 136.493 72.4352L126.613 72.6667C125.383 72.6945 125.429 73.9445 125.429 73.9445L124.327 73.963C124.336 73.963 123.978 67.2963 131.452 67.1204ZM124.363 74.8334L125.456 74.8148C125.456 74.8148 125.456 76.0556 126.686 76.0185L136.567 75.7871C137.806 75.7593 137.742 74.5186 137.742 74.5186L138.835 74.5C138.835 74.5 139.211 81.1574 131.737 81.3334C124.272 81.5093 124.363 74.8334 124.363 74.8334Z" class="brand"/>
  <path d="M60.6758 150L63.7335 146.463L59.1332 145.574L60.6758 150Z" class="brand"/>
  <path d="M89.0671 149.981L90.6189 145.556L86.0186 146.435L89.0671 149.981Z" class="brand"/>
  <path d="M55.1757 148.722L58.4997 145.426L53.9821 144.185L55.1757 148.722Z" class="brand"/>
  <path d="M94.5213 148.704L95.7334 144.176L91.2157 145.407L94.5213 148.704Z" class="brand"/>
  <path d="M49.8408 147.037L53.3944 144.009L48.9869 142.445L49.8408 147.037Z" class="brand"/>
  <path d="M99.8653 147.019L100.738 142.417L96.321 143.982L99.8653 147.019Z" class="brand"/>
  <path d="M44.6529 144.972L48.4084 142.213L44.1295 140.306L44.6529 144.972Z" class="brand"/>
  <path d="M105.062 144.944L105.604 140.268L101.316 142.185L105.062 144.944Z" class="brand"/>
  <path d="M39.6211 142.509L43.5786 140.046L39.4558 137.824L39.6211 142.509Z" class="brand"/>
  <path d="M110.094 142.472L110.278 137.787L106.155 140.009L110.094 142.472Z" class="brand"/>
  <path d="M34.8004 139.676L38.9141 137.509L34.9657 134.972L34.8004 139.676Z" class="brand"/>
  <path d="M110.82 137.472L114.942 139.63L114.777 134.944L110.82 137.472Z" class="brand"/>
  <path d="M119.524 131.407L123.932 132.917L123.078 128.315L119.524 131.407Z" class="brand"/>
  <path d="M115.282 134.602L119.561 136.444L119.056 131.787L115.282 134.602Z" class="brand"/>
  <path d="M22.9463 124.583L21.7526 129.111L26.2519 127.926L22.9463 124.583Z" class="brand"/>
  <path d="M26.7017 128.352L25.8386 132.972L30.2369 131.435L26.7017 128.352Z" class="brand"/>
  <path d="M30.191 136.491L34.4607 134.639L30.7144 131.824L30.191 136.491Z" class="brand"/>
  <path d="M123.528 127.889L128.027 129.074L126.843 124.537L123.528 127.889Z" class="brand"/>
  <path d="M19.5029 120.556L17.9603 124.981L22.5422 124.139L19.5029 120.556Z" class="brand"/>
  <path d="M130.708 120.019L135.327 120.519L133.49 116.213L130.708 120.019Z" class="brand"/>
  <path d="M127.256 124.074L131.828 124.935L130.313 120.5L127.256 124.074Z" class="brand"/>
  <path d="M16.3351 116.269L14.4803 120.583L19.1081 120.074L16.3351 116.269Z" class="brand"/>
  <path d="M13.5161 111.768L11.3492 115.907L15.9953 115.759L13.5161 111.768Z" class="brand"/>
  <path d="M133.839 115.704L138.486 115.852L136.355 111.704L133.839 115.704Z" class="brand"/>
  <path d="M11.0186 107.056L8.55777 111.037L13.2131 111.222L11.0186 107.056Z" class="brand"/>
  <path d="M136.649 111.167L141.295 110.972L138.853 106.991L136.649 111.167Z" class="brand"/>
  <path d="M8.88836 102.167L6.15207 105.954L10.7523 106.5L8.88836 102.167Z" class="brand"/>
  <path d="M139.119 106.426L143.729 105.889L140.992 102.111L139.119 106.426Z" class="brand"/>
  <path d="M7.12539 97.1389L4.09528 100.713L8.668 101.602L7.12539 97.1389Z" class="brand"/>
  <path d="M141.231 101.537L145.785 100.648L142.783 97.0648L141.231 101.537Z" class="brand"/>
  <path d="M5.74803 91.9907L2.46082 95.3148L6.9509 96.5555L5.74803 91.9907Z" class="brand"/>
  <path d="M142.966 96.4815L147.447 95.25L144.188 91.9167L142.966 96.4815Z" class="brand"/>
  <path d="M4.75637 86.7407L1.23959 89.824L5.60113 91.3796L4.75637 86.7407Z" class="brand"/>
  <path d="M144.344 91.2778L148.715 89.7037L145.216 86.6297L144.344 91.2778Z" class="brand"/>
  <path d="M4.14117 81.4352L0.404022 84.2407L4.66455 86.1389L4.14117 81.4352Z" class="brand"/>
  <path d="M145.308 85.9907L149.568 84.0833L145.85 81.287L145.308 85.9907Z" class="brand"/>
  <path d="M3.92079 76.1018L0 78.6204L4.09525 80.8148L3.92079 76.1018Z" class="brand"/>
  <path d="M145.886 80.6389L149.991 78.426L146.07 75.9167L145.886 80.6389Z" class="brand"/>
  <path d="M4.10453 70.7315L0.00927734 72.9538L3.92088 75.463L4.10453 70.7315Z" class="brand"/>
  <path d="M4.68292 65.3981L0.422394 67.2963L4.15036 70.0833L4.68292 65.3981Z" class="brand"/>
  <path d="M5.64704 60.1019L1.25797 61.676L4.78392 64.7408L5.64704 60.1019Z" class="brand"/>
  <path d="M145.271 64.6481L148.797 61.5648L144.408 59.9908L145.271 64.6481Z" class="brand"/>
  <path d="M7.00601 54.8796L2.51593 56.1296L5.78478 59.4445L7.00601 54.8796Z" class="brand"/>
  <path d="M144.279 59.3982L147.567 56.0741L143.086 54.8427L144.279 59.3982Z" class="brand"/>
  <path d="M8.73224 49.8426L4.1687 50.7315L7.18964 54.287L8.73224 49.8426Z" class="brand"/>
  <path d="M142.911 54.2407L145.942 50.6759L141.387 49.787L142.911 54.2407Z" class="brand"/>
  <path d="M10.835 44.9444L6.22556 45.4815L8.96184 49.2592L10.835 44.9444Z" class="brand"/>
  <path d="M141.167 49.2037L143.912 45.4259L139.294 44.8889L141.167 49.2037Z" class="brand"/>
  <path d="M13.2958 40.1852L8.6496 40.3889L11.1012 44.3703L13.2958 40.1852Z" class="brand"/>
  <path d="M139.037 44.3241L141.507 40.3426L136.851 40.1482L139.037 44.3241Z" class="brand"/>
  <path d="M74.9357 37.6852C54.2024 37.7315 37.3072 54.787 37.3163 75.7129C37.3072 96.6296 54.1932 113.62 74.9265 113.565C95.6691 113.518 112.546 96.4444 112.555 75.5278C112.555 54.6111 95.6782 37.6296 74.9357 37.6852ZM75 111.139C55.5521 111.194 39.7864 95.324 39.7955 75.7037C39.8047 56.0926 55.5705 40.1481 75.0184 40.1018C94.4662 40.0555 110.232 55.9166 110.232 75.5278C110.223 95.1481 94.457 111.093 75 111.139Z" class="brand"/>
  <path d="M16.0964 35.6667L11.4594 35.5L13.5988 39.6574L16.0964 35.6667Z" class="brand"/>
  <path d="M136.557 39.6111L138.724 35.4537L134.078 35.6019L136.557 39.6111Z" class="brand"/>
  <path d="M75.0092 32.8889C51.6038 32.9537 32.6518 52.1296 32.6518 75.7222C32.6518 99.3241 51.6038 118.407 75 118.343C98.3962 118.287 117.367 99.1111 117.376 75.5185C117.367 51.9167 98.4054 32.8333 75.0092 32.8889ZM74.9357 116.528C52.5771 116.583 34.3873 98.2685 34.3964 75.7222C34.3964 53.1759 52.5771 34.787 74.9449 34.7315C97.3035 34.6759 115.493 52.9722 115.493 75.5185C115.484 98.0648 97.2943 116.472 74.9357 116.528Z" class="brand"/>
  <path d="M71.6669 106.602C70.5008 105.25 71.0792 101.87 68.4715 101.87C67.9022 103.796 66.3229 105.481 66.8462 107.537C68.848 109.528 72.2545 109.37 74.9174 109.157C76.6987 107.426 76.1111 104.556 75.7346 102.519C73.3289 102.324 73.5952 105.556 71.6669 106.602ZM68.9031 106.833C68.5725 106.704 68.3705 106.491 68.3429 106.13C68.5358 105.315 69.7203 105.565 69.6652 106.306C69.5183 106.648 69.2428 106.815 68.9031 106.833ZM73.9441 107.5C73.5217 107.389 73.3748 106.963 73.5125 106.611C73.7421 106 74.8164 106.278 74.7062 106.972C74.5042 107.167 74.3389 107.833 73.9441 107.5Z" class="brand"/>
  <path d="M99.7551 85.6945C99.1767 86.3426 99.0757 87.1296 98.7727 87.8611C99.7368 89.1019 101.27 90.0185 101.895 91.5278C99.6909 92.213 96.5138 90.0556 95.412 93.0833C96.3118 94.4352 98.2768 95.0463 99.4154 96.2963C100.637 96.75 102.179 96.0556 102.794 94.8333C103.511 92.4074 106.926 90.1204 104.971 87.6574L99.7551 85.6945ZM100.738 94.2593C100.499 94.6204 100.187 95.1019 99.7368 94.8889C99.0757 94.463 99.2409 93.7037 99.8011 93.4815C100.159 93.4537 100.866 93.6667 100.738 94.2593ZM103.887 90.0185C103.474 90.5185 103.143 90.1204 102.73 89.8519C102.39 89.463 102.85 88.75 103.382 88.8333C103.915 88.9259 103.961 89.6389 103.887 90.0185Z" class="brand"/>
  <path d="M93.9887 94.5277C91.7942 95.9814 94.0622 98.75 94.255 100.407C92.4829 100.435 90.977 98.4351 89.1406 98.6759C88.6906 98.9722 88.1122 99.6296 88.3325 100.194C89.7007 101.852 89.5262 105.657 92.639 104.889C94.6958 103.259 96.7342 101.676 98.3503 99.4259C98.5247 97.0555 95.917 95.8703 93.9887 94.5277ZM91.8768 103.185C91.4728 103.028 91.3443 102.593 91.4728 102.25C91.7024 101.63 92.7492 101.972 92.6298 102.676C92.5471 102.944 92.235 103.167 91.8768 103.185ZM96.9087 98.8981C96.7342 99.3055 96.3027 99.4351 95.9813 99.3148C95.5497 98.9444 95.9078 98.25 96.4037 98.1388C96.5965 98.3611 97.175 98.4814 96.9087 98.8981Z" class="brand"/>
  <path d="M83.4568 105.954L82.9702 106.065C81.5653 104.546 80.6471 101.148 77.8741 102.306C77.3966 104.222 77.4976 106.574 78.021 108.361C80.5736 110.806 84.4393 108.481 87.4051 107.685C90.7383 105.518 86.7991 102.602 86.3767 100.111C83.6037 100.509 84.2281 103.991 83.4568 105.954ZM80.4634 107.065C80.1788 106.981 79.5819 107.259 79.5544 106.657C79.4901 106.102 80.1329 105.759 80.592 105.954C80.9133 106.259 80.8123 106.796 80.4634 107.065ZM86.7073 105.63C86.4869 105.565 86.34 105.806 86.2574 105.926C85.8258 106.074 85.4126 105.546 85.5871 105.148C85.8993 104.157 87.1297 104.861 86.7073 105.63Z" class="brand"/>
  <path d="M44.9008 85.6944C45.8282 84.5185 47.2331 83.8981 48.2707 82.9629C48.1146 82 47.7749 81.0926 47.8391 80.2129L43.5694 81.074C42.7889 81.7592 42.44 82.3055 42.1829 83.2407C43.3215 85.6851 43.8449 88.5 45.3324 90.6666C47.5178 91.8426 48.9777 89.4629 50.7315 88.824C50.7223 85.1574 46.5261 87.3611 44.9008 85.6944ZM44.102 82.8703C44.2397 82.0277 45.4793 82.3148 45.3232 83.074C45.1855 83.4259 44.9835 83.6203 44.6254 83.6389C44.2948 83.5092 44.1295 83.2314 44.102 82.8703ZM46.6455 88.8796L46.1129 88.5277L46.6822 87.6203C46.976 87.8148 47.38 88 47.3249 88.4629C47.2974 88.7963 46.9393 88.8148 46.6455 88.8796Z" class="brand"/>
  <path d="M51.4385 96.4907C51.108 96.3611 50.4469 96.6111 50.5571 95.9074L52.4578 92.0463C52.017 90.6482 50.8325 90.1296 49.7398 91.2963C48.6104 92.2593 46.875 92.7408 47.2423 94.5093C49.0145 96.6019 50.805 99.0556 53.0179 100.593C55.0196 100.111 55.7174 97.8519 57.1131 96.463C55.7174 93.9259 53.2291 96.4722 51.4385 96.4907ZM50.199 93.9815C50.1255 94.3611 49.8133 94.3241 49.5103 94.3796C49.1889 94.0926 48.739 93.3611 49.5103 93.2037C49.951 93.0556 50.3642 93.5926 50.199 93.9815ZM54.1106 97.9907C54.0738 98.3148 53.6606 98.2963 53.4311 98.3981C53.1189 98.1852 52.9261 97.9815 52.9077 97.6296C53.0271 96.7685 54.5513 97.1667 54.1106 97.9907Z" class="brand"/>
  <path d="M60.079 103.509C59.5005 102.194 60.4004 100.657 60.6024 99.1667L58.1599 97.5648L55.7174 101.093C55.1849 104.407 59.8953 105.343 61.9889 107.065L63.2193 107.009C65.8178 106.491 65.6158 103.546 66.6534 101.667C64.2018 99.7222 62.347 103.12 60.079 103.509ZM57.4712 101.806C57.407 101.5 57.7559 100.963 58.1874 101.074C58.518 101.222 58.6833 101.491 58.7108 101.843C58.417 102.167 57.7008 102.63 57.4712 101.806ZM63.4672 104.528C63.3111 104.769 63.0815 105.13 62.7877 104.917C62.4847 104.731 62.2919 104.519 62.2643 104.167C62.5949 103.537 63.7151 103.759 63.4672 104.528Z" class="brand"/>
  <path d="M49.2348 80.5278C51.6405 80.9908 54.7992 80.4074 57.3426 80.1111L56.9662 76.3796C54.386 75.7963 51.5028 76.2037 48.9501 76.25L49.2348 80.5278Z" class="brand"/>
  <path d="M101.592 74.1204C101.95 74.8704 101.472 75.4908 101.619 76.1759C103.079 77.0556 104.98 77.6111 106.008 78.7963C104.282 79.3704 102.703 80.1297 100.829 80.5278C100.664 81.7037 99.8011 82.9167 100.251 84.0648C102.244 84.5093 104.007 85.8334 106.173 85.463C108.037 84.3889 107.982 82.1389 108.441 80.3889C108.552 78.4908 108.552 76.2871 108.175 74.5C106.614 72.213 103.593 73.8889 101.592 74.1204ZM105.641 82.8889L105.301 83.4352C104.741 83.5 104.043 82.8704 104.539 82.3519C104.741 81.7963 106.109 82.0185 105.641 82.8889ZM106.862 76.2963C106.697 76.9537 106.183 76.6945 105.806 76.6204C105.365 76.25 105.476 75.2963 106.247 75.2778C106.596 75.5093 107.073 75.8334 106.862 76.2963Z" class="brand"/>
  <path d="M49.1797 74.3426C51.7324 74.8148 54.184 74.2963 56.7734 74.2037L56.7183 70.5C54.5146 70 52.1364 70.3982 49.9786 69.9445C49.4093 71.3519 48.8308 72.9259 49.1797 74.3426Z" class="brand"/>
  <path d="M89.6732 47.2222C89.9303 48.25 89.6089 49.1481 89.2875 50.037C88.3785 52 89.3426 53.4907 91.3535 54.037L94.5856 49.4167C95.0539 47.25 92.639 46.787 91.3259 45.6759C89.4252 45.1018 87.6439 43.4259 85.5504 43.9259C83.6405 45.0741 83.466 47.6944 82.6947 49.6574C85.3575 51.5648 87.2674 47.6852 89.6732 47.2222ZM92.5104 49.5C92.3544 50 92.0513 49.8055 91.7024 49.8241C91.3627 49.6944 91.4086 49.3704 91.2984 49.1389C91.5004 48.1667 93.1257 48.8055 92.5104 49.5ZM85.9268 46.2222C86.0554 45.3704 87.295 45.6574 87.1389 46.4167C86.9461 46.9815 86.5237 47.1296 86.0646 46.9167C86.0829 46.6574 85.8075 46.4074 85.9268 46.2222Z" class="brand"/>
  <path d="M92.9603 55.0741C94.4937 57.5371 97.1749 54.6852 99.1307 54.2686L99.5531 54.5371C99.4338 56.8334 95.2651 59.2223 98.2584 61.2778C99.948 59.8149 103.465 59.9815 103.41 57.0463C102.179 54.3704 99.847 52.5001 97.7167 50.4352C95.1273 50.2686 93.9153 53.3334 92.9603 55.0741ZM101.334 56.463C101.748 56.7501 101.784 57.1019 101.656 57.5371C101.27 57.8797 100.471 57.9445 100.38 57.3056C100.279 56.7963 100.967 56.3982 101.334 56.463ZM97.8177 53.1575C97.6891 53.4908 97.4045 53.6575 97.0648 53.676C96.7617 53.4815 96.4404 53.1852 96.6148 52.7871C96.7342 52.3519 97.2209 52.2501 97.4963 52.3426C97.5698 52.6389 98.1207 52.8241 97.8177 53.1575Z" class="brand"/>
  <path d="M99.3328 64.0278C99.7092 66.574 102.877 64.8148 104.649 65.2037C104.264 67.25 102.051 67.9259 101.013 69.5555C101.417 70.4815 100.976 71.5741 101.693 72.287L106.21 71.5741C109.552 69.5 106.44 65.4259 106.32 62.6111C105.834 60.3426 103.153 60.4629 101.491 61.324C100.591 61.9537 98.2768 62.1389 99.3328 64.0278ZM105.255 69.2592C105.072 69.6574 104.704 70.1018 104.264 69.8796C104.199 69.5833 103.97 69.2685 103.942 69.074C104.098 68.6759 104.53 68.537 104.87 68.6574C105.182 68.6944 105.145 69.0185 105.255 69.2592ZM102.794 62.9629C103.061 62.7129 103.162 62.2685 103.566 62.4444C103.869 62.6296 104.062 62.8518 104.08 63.2129C103.896 63.7685 103.456 63.9074 103.006 63.7037C102.767 63.5463 102.648 63.2037 102.794 62.9629Z" class="brand"/>
  <path d="M65.1108 46.074C66.4789 46.9814 67.388 48.574 68.6827 49.6851C69.3346 49.6018 69.7753 49.287 70.2436 49.0925C69.858 46.787 70.8037 43.5 68.2419 42.2407C65.0465 42.8796 61.0706 43.6944 59.5005 46.9166C59.3628 49.2222 61.0339 50.8148 62.1725 52.5925C66.2861 52.3796 63.7794 48.0092 65.1108 46.074ZM66.782 44.7962C67.085 44.0462 68.3705 44.5555 67.9022 45.2592C67.6083 45.3333 67.4614 45.574 67.1033 45.5925C66.5524 45.4074 66.7452 45.1111 66.782 44.7962ZM61.5848 47.8703C61.5665 47.5092 61.8603 46.6851 62.3194 46.9907C62.9163 47.1296 62.7602 47.6203 62.6959 48.0092C62.3011 48.0833 61.8328 48.2777 61.5848 47.8703Z" class="brand"/>
  <path d="M54.2575 59.2592C56.9662 57.7963 53.6331 55.1018 53.8994 52.8889C56.2225 52.8055 58.8302 56.2037 60.6391 53.6389L57.6916 48.824C54.3769 47.4074 52.2649 51.75 49.9878 53.8426C49.9419 56.537 52.3568 57.7592 54.2575 59.2592ZM56.9754 51.2315C56.6999 51.6574 56.351 51.6852 55.9103 51.5648C55.6991 51.5092 55.7358 51.2037 55.6991 51C56.0205 50.3611 57.003 50.4074 56.9754 51.2315ZM51.714 54.6944C51.8701 53.9444 53.1373 54.1759 52.8802 55.1111C52.5771 55.1759 52.366 55.6389 52.0538 55.3518C51.8793 55.2222 51.4202 55.0277 51.714 54.6944Z" class="brand"/>
  <path d="M48.739 68.3519C51.3651 65.7223 46.774 64.6019 46.5169 62.3889C48.7849 61.4815 52.2374 64.7593 53.073 60.7223C51.3284 59.4908 49.8225 56.4537 47.2423 57.5834C45.562 59.8056 44.2948 62.5556 43.5602 65.1482C44.2856 67.4075 46.9852 67.5463 48.739 68.3519ZM48.8584 59.3889C49.0971 59.8056 49.1155 59.9167 49.0696 60.3889L48.1238 60.5278C47.7657 60.0371 48.2707 59.2686 48.8584 59.3889ZM45.3416 64.8519C45.6905 64.3056 46.6271 64.9352 46.4251 65.3889C46.2874 65.7315 46.0119 65.8982 45.663 65.9167C45.2589 65.6482 45.2222 65.2871 45.3416 64.8519Z" class="brand"/>
  <path d="M46.3149 78.7778C47.2974 78.8241 47.7381 77.75 47.5912 76.7963C46.0027 75.3426 44.0744 75.176 42.6328 74.1482C44.0194 72.926 45.9843 72.6019 47.481 71.6111C49.3542 69.0926 45.112 69.3889 43.9734 68.2871C43.046 68.2871 42.0911 68.8519 41.6871 69.8704C41.3473 72.6297 40.824 75.5371 41.5218 78.3704C42.6145 80.1019 44.8274 79.0093 46.3149 78.7778ZM43.9826 70.0926C44.2856 70.2871 44.4693 70.5093 44.4968 70.8612C44.1387 71.0463 43.9 71.9167 43.3858 71.4074C43.0736 70.8704 43.3307 70.0834 43.9826 70.0926ZM43.6153 76.676C43.9184 76.8704 44.5887 77.1389 44.0653 77.5741C43.9275 78.0741 43.6153 77.8704 43.3031 77.8426C42.8624 77.463 42.9634 76.6667 43.6153 76.676Z" class="brand"/>
  <path d="M79.9491 51.6852C73.7695 52.5185 68.8387 55.5926 64.5782 59.4444L64.872 59.6389C70.1885 57.8333 75.4499 58.2963 80.0961 55.537C80.243 54.2685 80.3623 52.9074 79.9491 51.6852Z" class="brand"/>
  <path d="M71.5291 84.3425C73.7879 85.3981 79.6278 87.0648 81.5561 86.4351C81.5561 86.4351 81.6662 80.0925 81.9325 77.1018C85.587 76.9259 86.2849 77.0555 89.7649 76.3518C90.7566 76.2314 91.3442 75.5555 90.9311 74.287C88.7641 69.6481 85.9176 66.9814 82.4008 64.537C79.1687 63.2777 80.3348 60.037 79.9124 58.0555L77.6169 58.7592L77.9016 58.9629C79.2789 59.6944 79.3523 61.9444 79.1779 63.2685C79.1595 65.1296 76.2304 65.3518 77.4516 67.25C77.2313 67.7037 76.8364 67.9537 76.3314 67.9629C71.9974 65.1296 67.1401 64.1666 62.7051 61.8703C60.4554 64.0648 58.619 67.5462 58.2517 70.6296C58.3252 77.5925 58.9679 85.5092 63.5774 90.9074C67.4339 96.574 74.5684 100.565 81.2622 100.259C81.7489 94.5277 80.8949 94.0925 81.5928 88.4166C76.2396 87.824 73.9349 87.6944 69.959 85.2777C69.6651 84.824 69.252 84.4722 69.8212 83.9814C70.2344 83.5833 71.1343 84.1759 71.5291 84.3425ZM74.4215 78.75C74.045 78.9351 73.7788 79.3518 73.4298 79.1296C73.0166 78.9444 72.5943 78.574 72.8055 78.1111C73.2737 77.3981 75.1194 77.6759 74.4215 78.75ZM75.5876 76.5C75.2204 76.6759 74.9449 77.1018 74.596 76.8611C74.2011 76.6944 73.7696 76.324 73.9808 75.8611C74.4399 75.1388 76.2947 75.4166 75.5876 76.5ZM74.7888 74.1296C74.7612 73.7777 75.0367 73.0925 75.6152 73.2222C75.9182 73.4166 76.313 73.5925 76.2579 74.0648C75.9641 74.6574 75.0734 75.0092 74.7888 74.1296ZM76.1753 71.9722C76.0651 72.3981 75.6336 72.5555 75.303 72.4166C74.8623 72.3055 74.8714 71.6296 74.9724 71.3518C75.3122 70.5555 76.6436 71.25 76.1753 71.9722ZM75.1561 69.25C75.5509 69.6759 75.404 70.4351 74.8255 70.6666L73.9349 70.074C73.9716 69.5092 74.5868 68.8148 75.1561 69.25ZM72.8238 68.1481C72.934 67.7129 73.3564 67.574 73.6961 67.7129C74.1369 67.824 74.1552 68.4351 74.0634 68.7129C73.9624 69.1574 73.2829 69.1388 73.0166 69.0463C72.9432 68.75 72.3739 68.4537 72.8238 68.1481ZM72.4473 79.3333C72.8789 79.4537 73.0258 79.8888 72.8881 80.2222C72.6769 80.9351 72.0984 80.8148 71.6026 80.6481C71.2537 80 71.7679 79.2314 72.4473 79.3333ZM71.3363 66.9351C71.8781 67.1296 72.1076 67.6851 71.9607 68.1851C71.6577 68.7685 70.7119 68.4074 70.5558 67.8796C70.3354 67.3055 71.0976 67.2777 71.3363 66.9351ZM62.852 70.4166C63.2927 70.3703 63.9447 70.7962 63.66 71.3796C63.5498 71.8148 63.0999 71.6018 62.7234 71.7963C62.1909 71.4351 62.1174 70.6203 62.852 70.4166ZM61.493 72.7685C62.1266 71.6481 63.4396 73.2685 62.2368 73.8518C61.8603 73.5092 60.9696 73.4537 61.493 72.7685ZM60.887 75.2685C60.9972 74.324 62.4112 74.4814 62.2827 75.3425C62.1725 75.7777 61.7134 75.824 61.4104 76.0555C61.1165 75.8518 60.9145 75.6296 60.887 75.2685ZM61.8328 78.5185C61.392 78.4074 61.3828 77.7962 61.5114 77.4722L62.0348 77.037L62.7877 77.7037C62.6867 78.2407 62.4388 78.5092 61.8328 78.5185ZM63.0081 80.5C62.246 80.2407 62.5857 79.7037 62.7234 79.1111C63.1825 78.8055 63.8896 79.2777 63.8528 79.8518C63.6508 80.1481 63.4855 80.5463 63.0081 80.5ZM64.2569 70.0555C63.9263 70.0092 63.963 69.7037 63.8712 69.4629C64.0916 68.324 65.5699 68.787 65.1383 69.6018C65.019 70.0462 64.5874 70.1944 64.2569 70.0555ZM66.0841 81.7407C65.7811 81.7962 65.6434 82.037 65.2669 81.9722C64.7343 81.8703 64.7068 81.2592 64.7802 80.8796C65.3036 79.9351 66.7269 80.8796 66.0841 81.7407ZM65.9647 68.9629C65.726 68.8055 65.8086 68.4351 65.6985 68.1944C65.8637 67.287 67.8195 67.537 67.0207 68.6388C66.9105 69.0648 66.2402 69.0648 65.9647 68.9629ZM68.4806 81.6851C68.2878 81.9907 68.1776 82.4259 67.7002 82.3796C67.3421 82.1296 67.1217 81.8148 67.0758 81.3703C67.3145 80.2407 68.9673 80.8055 68.4806 81.6851ZM68.7561 66.8611C69.2795 66.9444 69.509 67.2592 69.5733 67.8148C69.4264 68.3148 68.9489 68.25 68.5817 68.4444C67.8287 68.0462 68.1409 67.1481 68.7561 66.8611ZM69.2428 81.1574C69.5182 80.0555 70.9598 80.574 70.6752 81.4166C70.5558 81.75 70.3354 81.9537 69.9865 81.9814C69.6284 81.75 69.1877 81.6388 69.2428 81.1574Z" class="brand"/>
  <path d="M67.1768 99.824C69.7754 100.759 72.5208 100.944 75.2479 101.028C72.5484 100.778 70.0508 97.6018 67.1768 99.824Z" class="brand"/>
  <path d="M82.9885 97.213C83.0069 97.6111 83.0252 98.0278 83.0436 98.4445C83.8516 98.6204 84.6321 98.8426 85.3942 98.9074C86.8083 98.287 88.1213 97.5093 89.3426 96.5926C87.2398 96.3611 84.6137 95.4537 82.9885 97.213Z" class="brand"/>
  <path d="M68.196 97.8518C66.6075 94.4259 63.0172 96.6018 60.5197 96.6667L62.1908 97.7593C63.8895 99.8148 66.0106 98.213 68.196 97.8518Z" class="brand"/>
  <path d="M93.1807 92.9259C90.2884 92.6204 84.7423 92.1852 83.2089 92.8889C83.1263 92.9259 83.0436 92.9722 82.9702 93.0278C82.9518 93.6945 82.9426 94.3796 82.9518 95.0926C85.0913 95.1574 88.4152 95.6574 91.0229 95.2037C91.7942 94.4908 92.5013 93.7222 93.1807 92.9259Z" class="brand"/>
  <path d="M64.3946 94.6944C63.9814 90.5 58.8302 92.75 56.0388 93.1482C57.9487 96.8611 61.5665 94.3796 64.3946 94.6944Z" class="brand"/>
  <path d="M96.5597 87.8148L83.1905 87.4815C83.1262 88.6759 83.0711 89.8333 83.0344 91.0278C86.9184 91.1667 91.8952 91.2222 94.3927 91.3519C95.2007 90.2315 95.9169 89.0463 96.5597 87.8148Z" class="brand"/>
  <path d="M54.8819 91.5277C57.2233 91.1944 59.6383 91.2314 61.5573 90.6203L59.5556 87.4352L52.1364 87.9537C53.0087 89.2037 53.3393 90.787 54.8819 91.5277Z" class="brand"/>
  <path d="M98.8186 82.213C94.7968 81.8704 86.744 82 83.3558 81.8704C83.3466 83.3334 83.3099 84.6945 83.2548 86L97.3035 86.2685C97.9003 84.9445 98.4054 83.5834 98.8186 82.213Z" class="brand"/>
  <path d="M51.7048 86.3981L58.8853 85.9814C58.316 84.75 58.2425 82.9166 57.2508 81.8518C54.7625 82.1851 51.8701 81.824 49.648 82.6666C50.502 83.824 50.6397 85.6944 51.7048 86.3981Z" class="brand"/>
  <path d="M99.7092 78.4723L99.8102 76.0741C98.0472 76.0464 95.4212 75.9908 92.7216 75.9723C92.5839 76.6019 92.2258 77.1204 91.5738 77.2593C87.9101 78.8797 87.1848 78.1482 83.3099 78.5278C83.3282 79.0834 83.3466 79.6204 83.3466 80.1482C86.8909 80.389 95.1732 80.676 99.2593 80.5464C99.4338 79.8519 99.5807 79.1667 99.7092 78.4723Z" class="brand"/>
  <path d="M99.9939 72.2686C99.9755 71.4538 99.8929 70.6852 99.7919 69.926C97.781 70.0556 94.053 70.0741 90.5822 70.1019C91.2984 71.1482 91.9503 72.2871 92.538 73.5463C92.6114 73.8056 92.6849 74.0834 92.74 74.3889C95.4212 74.4445 98.084 74.4352 99.8929 74.3704L99.9939 72.2686Z" class="brand"/>
  <path d="M50.502 68.4722L57.0397 68.6667C57.4712 67.3333 58.0956 65.8519 58.4537 64.6482L53.1556 64.0833C52.0997 65.3519 50.9611 66.7315 50.502 68.4722Z" class="brand"/>
  <path d="M84.9076 64.4352C86.5695 65.6204 88.057 66.9445 89.3609 68.4908L99.5164 68.3426C99.1675 66.7871 98.6441 65.3241 97.9646 63.9445L84.9076 64.4352Z" class="brand"/>
  <path d="M65.4322 61.2871L70.767 63.4908C70.2804 62.1574 70.7946 60.963 71.6852 59.8334L65.4322 61.2871Z" class="brand"/>
  <path d="M72.3004 62.0278C72.0617 63.3148 72.9891 64.0926 74.0818 64.6296C75.3122 64.9352 76.6803 64.6296 77.3231 63.2592C77.8189 61.7129 76.919 59.8426 75.2938 59.8796C73.7237 59.287 72.9983 60.9352 72.3004 62.0278Z" class="brand"/>
  <path d="M54.0922 62.6574L59.7025 63C60.3544 61.7222 61.3369 60.8333 62.1909 59.7685C60.5289 59.3704 58.7292 59.3889 57.0213 59.037C56.0296 60.1667 54.3768 61.3056 54.0922 62.6574Z" class="brand"/>
  <path d="M81.5928 59.4074C81.4367 60.7222 81.3449 62 82.4835 62.8426L97.1749 62.5093C96.4128 61.2222 95.5038 60.0092 94.4937 58.9167C92.6573 59.1574 85.7799 59.2315 81.5928 59.4074Z" class="brand"/>
  <path d="M58.5547 57.5464C61.5297 57.7964 64.6976 58.5001 66.7452 55.5741C64.9547 55.3427 63.3019 54.7778 61.5114 54.7871L58.5547 57.5464Z" class="brand"/>
  <path d="M81.7397 55.4815C81.6846 55.8333 81.6295 56.1852 81.5469 56.5278C81.7214 57 81.7489 57.4907 81.7306 58C84.375 58.1852 91.0229 57.6018 93.0154 57.4352C91.9228 56.4259 90.7291 55.5092 89.4711 54.6944C87.7449 54.8055 84.3934 55.1759 81.7397 55.4815Z" class="brand"/>
  <path d="M64.0916 53.4352C66.6075 53.4537 69.353 54.8241 71.4924 52.5463C69.0959 51.676 66.1576 51.5371 64.0916 53.4352Z" class="brand"/>
  <path d="M87.0838 53.3055C86.0278 52.75 84.9443 52.2685 83.8425 51.8426C83.1813 51.7778 82.4927 51.8148 81.8224 51.9167C81.8316 52.4722 81.8591 53.037 81.8499 53.6204C83.5027 54 85.3392 53.3704 87.0838 53.3055Z" class="brand"/>
  <path d="M77.9383 50.3796C75.6427 50.3981 72.833 49.7685 71.0884 50.6666L73.8063 51.4166L77.9383 50.3796Z" class="brand"/>
  <path d="M76.8365 44.2129L77.571 44C77.6169 44.9722 78.4525 46.0278 78.0577 47.0463C77.7271 49.1296 79.7656 49.0926 81.0143 49.1389C81.299 46.8518 84.1546 44.3796 82.0152 42.2129C79.1228 41.3426 76.1294 41.0092 72.9983 41.4259C70.8589 43.1852 71.5934 46.2222 72.0985 48.8518C74.8439 49.287 75.1194 45.4629 76.8365 44.2129ZM79.2789 44.5185C79.6187 43.9815 80.7572 44.037 80.7297 44.8704C80.5369 45.1666 80.3257 45.3796 79.9676 45.3981C79.6187 45.1574 79.2146 45 79.2789 44.5185ZM74.9633 43.7407C74.6786 44.1666 74.3389 44.1852 73.9073 44.0741C73.6962 44.0092 73.7237 43.7037 73.6778 43.5C73.7696 42.4537 75.0367 43.1111 74.9633 43.7407Z" class="brand"/>
  <path d="M133.729 35.1018L135.602 30.7962L130.956 31.2962L133.729 35.1018Z" class="brand"/>
  <path d="M119.919 14.8519L115.631 16.6945L119.368 19.5278L119.919 14.8519Z" class="brand"/>
  <path d="M123.381 22.9908L124.262 18.3889L119.855 19.9074L123.381 22.9908Z" class="brand"/>
  <path d="M127.136 26.7685L128.348 22.2407L123.84 23.4166L127.136 26.7685Z" class="brand"/>
  <path d="M130.571 30.8055L132.122 26.3703L127.54 27.2222L130.571 30.8055Z" class="brand"/>
  <path d="M26.3988 23.4537L21.8903 22.2778L23.084 26.8056L26.3988 23.4537Z" class="brand"/>
  <path d="M22.6616 27.2686L18.0889 26.4167L19.6131 30.8519L22.6616 27.2686Z" class="brand"/>
  <path d="M19.2275 31.3333L14.6088 30.8333L16.4453 35.1481L19.2275 31.3333Z" class="brand"/>
  <path d="M34.626 16.7315L30.3563 14.8889L30.8797 19.5556L34.626 16.7315Z" class="brand"/>
  <path d="M30.3838 19.9352L25.9856 18.4352L26.8395 23.0371L30.3838 19.9352Z" class="brand"/>
  <path d="M39.0977 13.8519L34.9657 11.6852L35.131 16.3797L39.0977 13.8519Z" class="brand"/>
  <path d="M115.301 11.6667L111.178 13.8148L115.117 16.3518L115.301 11.6667Z" class="brand"/>
  <path d="M39.8048 8.85187L39.6211 13.5278L43.7439 11.3148L39.8048 8.85187Z" class="brand"/>
  <path d="M110.489 8.82404L106.532 11.287L110.645 13.5092L110.489 8.82404Z" class="brand"/>
  <path d="M44.8366 6.37033L44.2948 11.037L48.6013 9.11107L44.8366 6.37033Z" class="brand"/>
  <path d="M105.476 6.34259L101.702 9.11111L105.981 11.0093L105.476 6.34259Z" class="brand"/>
  <path d="M50.0337 4.2778L49.1614 8.89817L53.578 7.30558L50.0337 4.2778Z" class="brand"/>
  <path d="M100.279 4.25931L96.725 7.29634L101.132 8.87968L100.279 4.25931Z" class="brand"/>
  <path d="M55.3685 2.60184L54.1656 7.12036L58.6833 5.87961L55.3685 2.60184Z" class="brand"/>
  <path d="M94.9437 2.58334L91.6197 5.87038L96.1282 7.10186L94.9437 2.58334Z" class="brand"/>
  <path d="M60.8227 1.32404L59.2801 5.74996L63.8712 4.84255L60.8227 1.32404Z" class="brand"/>
  <path d="M89.4527 1.2963L86.3859 4.83333L90.9862 5.73148L89.4527 1.2963Z" class="brand"/>
  <path d="M66.3504 0.453735L64.4864 4.75003L69.1418 4.20374L66.3504 0.453735Z" class="brand"/>
  <path d="M83.8884 0.425903L81.097 4.20368L85.7432 4.73146L83.8884 0.425903Z" class="brand"/>
  <path d="M78.2872 0L75.7805 3.9537L80.445 4.12963L78.2872 0Z" class="brand"/>
  <path d="M71.9332 0L69.7386 4.13889L74.4307 3.9537L71.9332 0Z" class="brand"/>
</svg>