<svg width="45" height="45" viewBox="0 0 45 45" fill="none" xmlns="http://www.w3.org/2000/svg">
<path d="M0 2C0 0.89543 0.895431 0 2 0H43C44.1046 0 45 0.895431 45 2V43C45 44.1046 44.1046 45 43 45H2C0.89543 45 0 44.1046 0 43V2Z" fill="#F5F5F5"/>
<path d="M33.9955 28.8413V23.1478H38.3924V24.5117H35.7632V25.268H37.9888V26.5778H35.7632V27.4587H38.5V28.8413H33.9955Z" fill="#31287C"/>
<path d="M28.6669 28.8413V23.1478H33.0638V24.5117H30.4325V25.268H32.6559V26.5778H30.4325V27.4587H33.1703V28.8413H28.6669Z" fill="#31287C"/>
<path d="M23.8364 28.8413V23.1478H27.9959V24.5811H25.601V25.4632H27.5071V26.8391H25.601V28.8424H23.8364V28.8413Z" fill="#31287C"/>
<path d="M19.0018 28.8413V23.1478H23.1624V24.5811H20.7696V25.4632H22.6725V26.8391H20.7696V28.8424H19.0018V28.8413Z" fill="#31287C"/>
<path d="M12.4825 25.9989C12.4825 25.0728 12.736 24.3385 13.2482 23.8037C13.7625 23.2668 14.459 23 15.3428 23C16.2246 23 16.9199 23.2668 17.4311 23.8037C17.9433 24.3385 18.1957 25.0728 18.1957 25.9989C18.1957 26.925 17.9433 27.6571 17.4311 28.1941C16.9199 28.731 16.2246 28.9989 15.3428 28.9989C14.459 28.9989 13.7625 28.731 13.2482 28.1941C12.736 27.6582 12.4825 26.925 12.4825 25.9989ZM14.2652 25.9989C14.2652 26.5369 14.3514 26.9339 14.525 27.1863C14.6996 27.4388 14.9723 27.5645 15.3418 27.5645C15.7113 27.5645 15.9828 27.4388 16.1543 27.1874C16.3247 26.9372 16.4109 26.5402 16.4109 25.9989C16.4109 25.4565 16.3257 25.0584 16.1543 24.806C15.9828 24.5579 15.7113 24.4311 15.3418 24.4311C14.9723 24.4311 14.6986 24.5579 14.525 24.8104C14.3514 25.0628 14.2652 25.4587 14.2652 25.9989Z" fill="#31287C"/>
<path d="M10.3027 26.6351H11.9746C11.9267 27.3848 11.6711 27.9691 11.2089 28.3815C10.7468 28.7938 10.126 29 9.33793 29C8.4562 29 7.76509 28.7354 7.25926 28.2007C6.75238 27.6648 6.5 26.9316 6.5 26C6.5 25.0739 6.75238 24.3396 7.25181 23.8048C7.75018 23.2679 8.43384 23.0011 9.2964 23.0011C10.0929 23.0011 10.7191 23.1996 11.177 23.5965C11.6338 23.9956 11.8905 24.5656 11.9448 25.3065H10.2516C10.2271 25.0143 10.1355 24.7938 9.97687 24.6439C9.82246 24.4972 9.59883 24.4245 9.31664 24.4245C8.97268 24.4245 8.71178 24.5557 8.5382 24.8159C8.36462 25.0772 8.2805 25.473 8.2805 26.0011C8.2805 26.5204 8.37421 26.9129 8.5563 27.1775C8.7416 27.4432 9.01208 27.5766 9.36669 27.5766C9.64249 27.5766 9.8576 27.4961 10.0195 27.3308C10.1803 27.1687 10.2761 26.9372 10.3027 26.6351Z" fill="#31287C"/>
<path d="M28.6678 22L30.5613 16H32.3109L34.2033 22H32.4891L32.2891 21.2053H30.5759L30.3664 22H28.6678ZM30.8895 19.9458H31.9754L31.4377 17.8695L30.8895 19.9458Z" fill="#31287C"/>
<path d="M25.8335 22V19.7785L23.8514 16H25.7678L26.6953 18.0438L27.631 16H29.4943L27.5602 19.7785V22H25.8335Z" fill="#31287C"/>
<path d="M21.3151 22V16H23.0772V22H21.3151Z" fill="#31287C"/>
<path d="M15.418 22V16H17.5084C18.0377 16 18.4337 16.0256 18.6922 16.0778C18.9527 16.1301 19.1788 16.2208 19.3706 16.3404C19.7436 16.5856 20.0239 16.9295 20.2105 17.371C20.398 17.8125 20.4918 18.3575 20.4918 19.0035C20.4918 19.6832 20.3772 20.2548 20.1427 20.7184C19.9124 21.1809 19.5665 21.5248 19.1152 21.7502C18.9402 21.8408 18.7203 21.9024 18.4556 21.9407C18.1909 21.9802 17.7678 21.9988 17.1864 21.9988H15.418V22ZM17.1457 20.4802H17.6136C18.043 20.4802 18.3399 20.3734 18.5098 20.1572C18.6765 19.9435 18.7589 19.5589 18.7589 19.0035C18.7589 18.462 18.6734 18.0798 18.5036 17.8544C18.3337 17.629 18.044 17.5186 17.6355 17.5186H17.1468V20.4802H17.1457Z" fill="#31287C"/>
<path d="M10.2034 22V16H14.504V17.4373H11.9332V18.2343H14.1059V19.6146H11.9332V20.543H14.6103V22H10.2034Z" fill="#31287C"/>
</svg>
